<?xml version="1.0" encoding="UTF-8" standalone="no"?>
<!-- Created with Inkscape (http://www.inkscape.org/) -->
<svg
   xmlns:dc="http://purl.org/dc/elements/1.1/"
   xmlns:cc="http://creativecommons.org/ns#"
   xmlns:rdf="http://www.w3.org/1999/02/22-rdf-syntax-ns#"
   xmlns:svg="http://www.w3.org/2000/svg"
   xmlns="http://www.w3.org/2000/svg"
   xmlns:sodipodi="http://sodipodi.sourceforge.net/DTD/sodipodi-0.dtd"
   xmlns:inkscape="http://www.inkscape.org/namespaces/inkscape"
   id="svg12666"
   sodipodi:version="0.32"
   inkscape:version="0.46"
   width="1488.1888"
   height="2104.7244"
   xml:space="preserve"
   sodipodi:docname="poster selec renard.svg"
   version="1.0"
   inkscape:output_extension="org.inkscape.output.svg.inkscape"><sodipodi:namedview
     inkscape:window-height="829"
     inkscape:window-width="1440"
     inkscape:pageshadow="2"
     inkscape:pageopacity="0.0"
     guidetolerance="10.0"
     gridtolerance="10.0"
     objecttolerance="10.0"
     borderopacity="1.0"
     bordercolor="#666666"
     pagecolor="#ffffff"
     id="base"
     showgrid="false"
     inkscape:zoom="0.70710678"
     inkscape:cx="928.73436"
     inkscape:cy="1349.8922"
     inkscape:window-x="0"
     inkscape:window-y="51"
     inkscape:current-layer="g12675" /><metadata
     id="metadata12671"><rdf:RDF><cc:Work
         rdf:about=""><dc:format>image/svg+xml</dc:format><dc:type
           rdf:resource="http://purl.org/dc/dcmitype/StillImage" /></cc:Work></rdf:RDF></metadata><defs
     id="defs12669"><inkscape:perspective
       sodipodi:type="inkscape:persp3d"
       inkscape:vp_x="0 : 526.18109 : 1"
       inkscape:vp_y="0 : 1000 : 0"
       inkscape:vp_z="744.09448 : 526.18109 : 1"
       inkscape:persp3d-origin="372.04724 : 350.78739 : 1"
       id="perspective12673" /></defs><g
     id="g12675"
     inkscape:groupmode="layer"
     inkscape:label="poster selec ok"
     transform="matrix(1.25,0,0,-1.25,0,1488.1889)"><g
   id="g3728"
   transform="matrix(-0.9946814,-0.1029995,0.1029995,-0.9946814,576.46431,995.19978)"><g
     id="g3730"
     transform="matrix(1,0,0,-1,-182.43693,954.74725)"><path
       d="M 486.59,454.453 C 486.59,484.777 461.98,509.387 431.66,509.387 C 401.34,509.387 376.73,484.777 376.73,454.453 C 376.73,424.133 401.34,399.523 431.66,399.523 C 461.98,399.523 486.59,424.133 486.59,454.453 z"
       style="fill:#ffffff;fill-opacity:1;fill-rule:nonzero;stroke:#000000;stroke-width:8.66584301;stroke-linecap:round;stroke-linejoin:round;stroke-miterlimit:4;stroke-dasharray:none;stroke-opacity:1"
       id="path3732" /></g><g
     id="g3734"
     transform="matrix(1,0,0,-1,-182.43693,954.74725)"><path
       d="M 444.09,454.477 C 444.09,461.43 438.445,467.07 431.496,467.07 C 424.543,467.07 418.902,461.43 418.902,454.477 C 418.902,447.527 424.543,441.883 431.496,441.883 C 438.445,441.883 444.09,447.527 444.09,454.477 z"
       style="fill:#ffffff;fill-opacity:1;fill-rule:nonzero;stroke:#000000;stroke-width:8.1931591;stroke-linecap:round;stroke-linejoin:round;stroke-miterlimit:4;stroke-dasharray:none;stroke-opacity:1"
       id="path3736" /></g><path
     d="M 304.15307,500.29415 C 304.15307,488.97015 301.23907,479.31715 294.97307,469.88815 L 249.22307,500.29415 L 304.15307,500.29415 z"
     style="fill:#00ff00;fill-opacity:1;fill-rule:nonzero;stroke:none"
     id="path3738" /><path
     d="M 295.11407,470.10315 C 288.89107,460.64215 281.14907,454.18115 270.73107,449.74715 L 249.22307,500.29415 L 295.11407,470.10315 z"
     style="fill:#ffff00;fill-opacity:1;fill-rule:nonzero;stroke:none"
     id="path3740" /><path
     d="M 270.86807,449.80615 C 260.46107,445.34515 250.44207,444.22015 239.30507,446.26315 L 249.22307,500.29415 L 270.86807,449.80615 z"
     style="fill:#ff0000;fill-opacity:1;fill-rule:nonzero;stroke:none"
     id="path3742" /><path
     d="M 194.35607,500.29015 C 194.35607,511.61415 197.27007,521.26715 203.53607,530.69615 L 249.28607,500.29015 L 194.35607,500.29015 z"
     style="fill:#ff00ff;fill-opacity:1;fill-rule:nonzero;stroke:none"
     id="path3744" /><path
     d="M 203.39507,530.48215 C 209.61807,539.94215 217.36007,546.40315 227.77807,550.83715 L 249.28607,500.29415 L 203.39507,530.48215 z"
     style="fill:#ff0000;fill-opacity:1;fill-rule:nonzero;stroke:none"
     id="path3746" /><path
     d="M 227.64107,550.77815 C 238.04707,555.23915 248.06707,556.36415 259.20407,554.32115 L 249.28607,500.29415 L 227.64107,550.77815 z"
     style="fill:#ffff00;fill-opacity:1;fill-rule:nonzero;stroke:none"
     id="path3748" /><g
     id="g3750"
     transform="matrix(1,0,0,-1,-182.43693,954.74725)"><path
       d="M 486.59,454.453 C 486.59,484.777 461.98,509.387 431.66,509.387 C 401.34,509.387 376.73,484.777 376.73,454.453 C 376.73,424.133 401.34,399.523 431.66,399.523 C 461.98,399.523 486.59,424.133 486.59,454.453 z"
       style="fill:none;stroke:#000000;stroke-width:8.66584301;stroke-linecap:round;stroke-linejoin:round;stroke-miterlimit:4;stroke-dasharray:none;stroke-opacity:1"
       id="path3752" /></g><g
     id="g3754"
     transform="matrix(1,0,0,-1,-182.43693,954.74725)"><path
       d="M 444.09,454.477 C 444.09,461.43 438.445,467.07 431.496,467.07 C 424.543,467.07 418.902,461.43 418.902,454.477 C 418.902,447.527 424.543,441.883 431.496,441.883 C 438.445,441.883 444.09,447.527 444.09,454.477 z"
       style="fill:#ffffff;fill-opacity:1;fill-rule:nonzero;stroke:#000000;stroke-width:8.1931591;stroke-linecap:round;stroke-linejoin:round;stroke-miterlimit:4;stroke-dasharray:none;stroke-opacity:1"
       id="path3756" /></g></g><g
   id="g3321"
   transform="translate(8.2504767,0.515911)"><g
     id="g12729"
     transform="matrix(1,0,0,-1,-182.43693,954.74725)"><path
       d="M 486.59,454.453 C 486.59,484.777 461.98,509.387 431.66,509.387 C 401.34,509.387 376.73,484.777 376.73,454.453 C 376.73,424.133 401.34,399.523 431.66,399.523 C 461.98,399.523 486.59,424.133 486.59,454.453 z"
       style="fill:#ffffff;fill-opacity:1;fill-rule:nonzero;stroke:#000000;stroke-width:8.66584301;stroke-linecap:round;stroke-linejoin:round;stroke-miterlimit:4;stroke-dasharray:none;stroke-opacity:1"
       id="path12731" /></g><g
     id="g12733"
     transform="matrix(1,0,0,-1,-182.43693,954.74725)"><path
       d="M 444.09,454.477 C 444.09,461.43 438.445,467.07 431.496,467.07 C 424.543,467.07 418.902,461.43 418.902,454.477 C 418.902,447.527 424.543,441.883 431.496,441.883 C 438.445,441.883 444.09,447.527 444.09,454.477 z"
       style="fill:#ffffff;fill-opacity:1;fill-rule:nonzero;stroke:#000000;stroke-width:8.1931591;stroke-linecap:round;stroke-linejoin:round;stroke-miterlimit:4;stroke-dasharray:none;stroke-opacity:1"
       id="path12735" /></g><path
     d="M 304.15307,500.29415 C 304.15307,488.97015 301.23907,479.31715 294.97307,469.88815 L 249.22307,500.29415 L 304.15307,500.29415 z"
     style="fill:#00ff00;fill-opacity:1;fill-rule:nonzero;stroke:none"
     id="path12737" /><path
     d="M 295.11407,470.10315 C 288.89107,460.64215 281.14907,454.18115 270.73107,449.74715 L 249.22307,500.29415 L 295.11407,470.10315 z"
     style="fill:#ffff00;fill-opacity:1;fill-rule:nonzero;stroke:none"
     id="path12739" /><path
     d="M 270.86807,449.80615 C 260.46107,445.34515 250.44207,444.22015 239.30507,446.26315 L 249.22307,500.29415 L 270.86807,449.80615 z"
     style="fill:#ff0000;fill-opacity:1;fill-rule:nonzero;stroke:none"
     id="path12741" /><path
     d="M 194.35607,500.29015 C 194.35607,511.61415 197.27007,521.26715 203.53607,530.69615 L 249.28607,500.29015 L 194.35607,500.29015 z"
     style="fill:#ff00ff;fill-opacity:1;fill-rule:nonzero;stroke:none"
     id="path12743" /><path
     d="M 203.39507,530.48215 C 209.61807,539.94215 217.36007,546.40315 227.77807,550.83715 L 249.28607,500.29415 L 203.39507,530.48215 z"
     style="fill:#ff0000;fill-opacity:1;fill-rule:nonzero;stroke:none"
     id="path12745" /><path
     d="M 227.64107,550.77815 C 238.04707,555.23915 248.06707,556.36415 259.20407,554.32115 L 249.28607,500.29415 L 227.64107,550.77815 z"
     style="fill:#ffff00;fill-opacity:1;fill-rule:nonzero;stroke:none"
     id="path12747" /><g
     id="g12749"
     transform="matrix(1,0,0,-1,-182.43693,954.74725)"><path
       d="M 486.59,454.453 C 486.59,484.777 461.98,509.387 431.66,509.387 C 401.34,509.387 376.73,484.777 376.73,454.453 C 376.73,424.133 401.34,399.523 431.66,399.523 C 461.98,399.523 486.59,424.133 486.59,454.453 z"
       style="fill:none;stroke:#000000;stroke-width:8.66584301;stroke-linecap:round;stroke-linejoin:round;stroke-miterlimit:4;stroke-dasharray:none;stroke-opacity:1"
       id="path12751" /></g><g
     id="g12753"
     transform="matrix(1,0,0,-1,-182.43693,954.74725)"><path
       d="M 444.09,454.477 C 444.09,461.43 438.445,467.07 431.496,467.07 C 424.543,467.07 418.902,461.43 418.902,454.477 C 418.902,447.527 424.543,441.883 431.496,441.883 C 438.445,441.883 444.09,447.527 444.09,454.477 z"
       style="fill:#ffffff;fill-opacity:1;fill-rule:nonzero;stroke:#000000;stroke-width:8.1931591;stroke-linecap:round;stroke-linejoin:round;stroke-miterlimit:4;stroke-dasharray:none;stroke-opacity:1"
       id="path12755" /></g></g><path
   id="path12795"
   style="fill:#000000;fill-opacity:1;fill-rule:evenodd;stroke:none"
   d="M 311.17961,570.31119 C 311.17961,570.31119 312.65661,578.30319 317.39461,582.15119 C 322.13261,586.00219 343.44561,601.69019 359.42961,598.43219 C 375.41761,595.17819 400.57861,574.75219 415.08561,568.53319 C 429.58961,562.31819 471.92161,544.55719 521.65661,517.91219 C 571.38661,491.27219 585.30061,480.90819 585.30061,480.90819 C 585.30061,480.90819 628.81661,463.44319 642.14061,456.63519 C 655.46061,449.82619 666.11761,445.68219 664.33961,438.28319 C 662.56661,430.88119 636.51561,432.36119 636.51561,432.36119 L 674.10961,402.46319 C 674.10961,402.46319 676.77361,393.28319 671.44561,390.32619 C 666.11761,387.36519 662.16061,388.14319 662.16061,388.14319 C 662.16061,388.14319 652.78561,390.35819 639.42961,395.06119 C 637.75361,395.65419 636.16061,395.12319 634.36761,395.76419 C 629.06261,397.65119 623.79661,400.40119 617.78561,402.58419 C 603.03161,407.95119 586.40261,412.74819 572.86761,414.89719 C 532.49661,421.29519 514.25361,420.40819 514.25361,420.40819 L 510.33261,418.07619 L 502.82061,417.63519 L 479.61761,408.97519 L 479.54661,399.72519 L 472.80861,392.91619 L 462.82061,373.52619 L 455.34361,380.55719 L 465.41061,398.02219 L 464.22661,406.60819 C 454.57461,412.02919 445.48061,418.49019 435.43761,423.91619 L 399.98861,441.83419 C 399.98861,441.83419 385.05861,452.26819 372.80861,464.98319 C 366.46061,471.57219 360.13661,480.78719 356.46861,486.38519 C 345.22261,503.55719 344.03961,523.24019 344.03961,523.24019 C 344.03961,523.24019 337.67161,546.92419 316.50761,546.18619 C 308.78161,545.91619 300.35961,539.16619 292.67961,535.21319 C 281.22661,529.31519 272.69561,526.20119 272.69561,526.20119 C 272.69561,526.20119 273.58261,540.70919 288.97661,552.84619 C 300.88261,562.23319 311.17961,570.60819 311.17961,570.31119 z" /><g
   transform="matrix(1,0,0,-1,-192.18739,941.41629)"
   id="g13395"><path
     id="path13397"
     style="fill:#000000;fill-opacity:1;fill-rule:nonzero;stroke:#ffffff;stroke-width:2.01119995;stroke-linecap:round;stroke-linejoin:round;stroke-miterlimit:4;stroke-dasharray:none;stroke-opacity:1"
     d="M 543.879,370.457 C 543.879,374.305 540.758,377.426 536.914,377.426 C 533.066,377.426 529.945,374.305 529.945,370.457 C 529.945,366.613 533.066,363.492 536.914,363.492 C 540.758,363.492 543.879,366.613 543.879,370.457 z" /></g><path
   id="path13399"
   style="fill:#ffffff;fill-opacity:1;fill-rule:nonzero;stroke:none"
   d="M 343.46861,572.45519 C 343.46861,570.98619 342.27761,569.79519 340.80861,569.79519 C 339.33961,569.79519 338.14461,570.98619 338.14461,572.45519 C 338.14461,573.92419 339.33961,575.11919 340.80861,575.11919 C 342.27761,575.11919 343.46861,573.92419 343.46861,572.45519 z" /><path
   style="fill:#ffffff;fill-opacity:1;fill-rule:evenodd;stroke:none;stroke-width:1px;stroke-linecap:butt;stroke-linejoin:miter;stroke-opacity:1"
   d="M 272.23658,526.29153 L 290.21263,539.58617 L 293.93789,535.87623 L 274.31721,524.33329 L 272.23658,526.29153 z"
   id="path3337"
   sodipodi:nodetypes="ccccc" /><path
   style="fill:#ff0000;fill-rule:evenodd;stroke:#000000;stroke-width:12.35523319;stroke-linecap:butt;stroke-linejoin:miter;stroke-miterlimit:4;stroke-dasharray:none;stroke-opacity:1;display:inline"
   d="M 686.69124,857.89869 L 682.60555,934.68947 L 738.87144,880.54986"
   id="path10355"
   sodipodi:nodetypes="ccc" /><path
   style="fill:none;fill-rule:evenodd;stroke:#000000;stroke-width:13.15582561;stroke-linecap:butt;stroke-linejoin:miter;stroke-miterlimit:4;stroke-dasharray:none;stroke-opacity:1;display:inline"
   d="M 645.40497,708.66307 C 645.40497,708.66307 676.35579,748.84476 679.61375,769.47861 C 682.87171,790.11245 678.5277,823.23513 678.5277,823.23513 C 678.5277,823.23513 666.03878,829.20812 651.92089,859.61582 C 637.80299,890.02364 629.65809,904.68449 629.65809,904.68449 C 629.65809,904.68449 669.83977,893.28156 685.04362,890.56659 C 700.24757,887.85162 717.0804,874.81973 717.0804,874.81973 L 759.97701,916.08742 L 808.30369,906.31345 L 874.54916,970.38701 L 889.20998,907.39946 C 889.20998,907.39946 893.01097,881.33568 884.32314,869.38969 C 875.63511,857.44382 841.96935,817.26224 841.96935,817.26224 C 841.96935,817.26224 830.02346,804.23035 830.56649,781.42448 C 831.10952,758.61872 832.7385,698.88921 832.7385,698.88921 C 832.7385,698.88921 831.10952,660.87944 822.42149,645.13258 C 813.73366,629.38574 803.41665,613.63886 803.41665,613.63886"
   id="path6824" /><path
   id="path8229"
   style="fill:#ff0000;fill-rule:evenodd;stroke:none;stroke-width:16.25;stroke-linecap:butt;stroke-linejoin:miter;stroke-miterlimit:4;stroke-dasharray:none;stroke-opacity:1;display:inline"
   d="M 807.45333,852.33298 L 807.45333,852.33298 L 807.45333,852.33298 C 807.45333,852.33298 813.91454,850.27403 822.11435,851.24698 C 833.42421,852.58893 840.03324,861.56399 840.03324,861.56399 L 891.02386,916.86468 L 891.10216,916.93094 L 877.49978,975.59309 L 811.25432,911.51955 L 762.92774,921.29352 L 720.03112,880.02581 C 720.03112,880.02581 703.19819,893.05772 687.99435,895.77268 C 672.7905,898.48764 632.60882,909.89058 632.60882,909.89058 C 632.60882,909.89058 640.75372,895.22972 654.87161,864.82192 C 668.98951,834.41421 681.47842,828.44121 681.47842,828.44121 C 681.47842,828.44121 685.82244,795.31853 682.56438,774.6847 C 679.30642,754.05085 648.35569,713.86916 648.35569,713.86916 L 651.81337,712.74133 L 751.38209,643.92171 L 807.45333,852.33298 z"
   sodipodi:nodetypes="cccscccccccscscsc" /><path
   style="fill:none;fill-rule:evenodd;stroke:#000000;stroke-width:13.15582561;stroke-linecap:butt;stroke-linejoin:miter;stroke-miterlimit:4;stroke-dasharray:none;stroke-opacity:1;display:inline"
   d="M 645.40497,708.66307 C 645.40497,708.66307 676.35579,748.84476 679.61375,769.47861 C 682.87171,790.11245 678.5277,823.23513 678.5277,823.23513 C 678.5277,823.23513 666.03878,829.20812 651.92089,859.61582 C 637.80299,890.02364 629.65809,904.68449 629.65809,904.68449 C 629.65809,904.68449 669.83977,893.28156 685.04362,890.56659 C 700.24757,887.85162 717.0804,874.81973 717.0804,874.81973 L 759.97701,916.08742 L 808.30369,906.31345 L 874.54916,970.38701 L 889.20998,907.39946 C 889.20998,907.39946 893.01097,881.33568 884.32314,869.38969 C 875.63511,857.44382 841.96935,817.26224 841.96935,817.26224 C 841.96935,817.26224 830.02346,804.23035 830.56649,781.42448 C 831.10952,758.61872 832.7385,698.88921 832.7385,698.88921 C 832.7385,698.88921 831.10952,660.87944 822.42149,645.13258 C 813.73366,629.38574 803.41665,613.63886 803.41665,613.63886"
   id="path8232" /><path
   style="fill:none;fill-rule:evenodd;stroke:#000000;stroke-width:9.05955982;stroke-linecap:butt;stroke-linejoin:miter;stroke-miterlimit:4;stroke-dasharray:none;stroke-opacity:1;display:inline"
   d="M 889.57304,916.71217 L 837.9884,860.78362 C 837.9884,860.78362 831.37947,851.80856 820.06961,850.46661 C 811.8698,849.49367 805.40859,851.55262 805.40859,851.55262 L 805.40859,851.55262 L 805.40859,851.55262"
   id="path7755"
   sodipodi:nodetypes="ccsccc" /><path
   style="fill:none;fill-rule:evenodd;stroke:#000000;stroke-width:9.05955982;stroke-linecap:butt;stroke-linejoin:miter;stroke-miterlimit:4;stroke-dasharray:none;stroke-opacity:1;display:inline"
   d="M 815.77901,891.01129 L 817.95111,872.54946 C 817.95111,872.54946 793.93479,872.80436 795.14529,848.6576 C 795.75059,836.5826 807.6341,832.36779 807.6341,832.36779"
   id="path7757"
   sodipodi:nodetypes="ccsc" /><path
   style="fill:none;fill-rule:evenodd;stroke:#000000;stroke-width:9.05955982;stroke-linecap:butt;stroke-linejoin:miter;stroke-miterlimit:4;stroke-dasharray:none;stroke-opacity:1;display:inline"
   d="M 774.51137,850.28667 C 774.51137,850.28667 772.88239,839.15531 778.31236,828.83838 C 783.74233,818.52146 792.43026,815.53492 792.43026,815.53492"
   id="path7759"
   sodipodi:nodetypes="csc" /><g
   style="display:inline"
   id="g7968"
   transform="matrix(0.7598514,0,0,-0.7598514,-113.73675,991.19162)"><path
     transform="matrix(1.2449349,0.1546446,-0.1546446,1.2449349,-287.92151,-436.75176)"
     d="M 1260.0889,524.79999 A 33.65926,33.65926 0 1 1 1192.7704,524.79999 A 33.65926,33.65926 0 1 1 1260.0889,524.79999 z"
     sodipodi:ry="33.65926"
     sodipodi:rx="33.65926"
     sodipodi:cy="524.79999"
     sodipodi:cx="1226.4297"
     id="path7970"
     style="opacity:1;fill:#ffffff;fill-opacity:1;fill-rule:nonzero;stroke:#000000;stroke-width:13.75;stroke-linecap:round;stroke-linejoin:round;marker:none;marker-start:none;marker-mid:none;marker-end:none;stroke-miterlimit:4;stroke-dasharray:none;stroke-dashoffset:0;stroke-opacity:1;visibility:visible;display:inline;overflow:visible;enable-background:accumulate"
     sodipodi:type="arc" /><rect
     transform="matrix(0.640278,0.7681433,-0.7681433,0.640278,0,0)"
     ry="0.37075976"
     y="-644.6568"
     x="841.04321"
     height="30.278574"
     width="169.89644"
     id="rect7972"
     style="opacity:1;fill:#ffffff;fill-opacity:1;fill-rule:nonzero;stroke:#000000;stroke-width:13.79953289;stroke-linecap:round;stroke-linejoin:round;marker:none;marker-start:none;marker-mid:none;marker-end:none;stroke-miterlimit:4;stroke-dasharray:none;stroke-dashoffset:0;stroke-opacity:1;visibility:visible;display:inline;overflow:visible;enable-background:accumulate" /></g><path
   style="fill:none;fill-rule:evenodd;stroke:#000000;stroke-width:9.05955982;stroke-linecap:butt;stroke-linejoin:miter;stroke-miterlimit:4;stroke-dasharray:none;stroke-opacity:1;display:inline"
   d="M 740.21724,897.05323 L 740.21724,866.67006"
   id="path8236" /><path
   style="fill:none;fill-rule:evenodd;stroke:#000000;stroke-width:9.05955982;stroke-linecap:butt;stroke-linejoin:miter;stroke-miterlimit:4;stroke-dasharray:none;stroke-opacity:1;display:inline"
   d="M 760.89972,911.1466 L 760.89972,880.76342"
   id="path8238" /><path
   style="fill:none;fill-rule:evenodd;stroke:#000000;stroke-width:3.24721241;stroke-linecap:round;stroke-linejoin:miter;stroke-miterlimit:4;stroke-dasharray:none;stroke-opacity:1;display:inline"
   d="M 859.26812,958.03857 L 825.38763,972.93342"
   id="path8242" /><path
   style="fill:none;fill-rule:evenodd;stroke:#000000;stroke-width:3.24721241;stroke-linecap:round;stroke-linejoin:miter;stroke-miterlimit:4;stroke-dasharray:none;stroke-opacity:1;display:inline"
   d="M 864.30107,961.9201 L 831.07163,991.93427"
   id="path8244" /><path
   style="fill:none;fill-rule:evenodd;stroke:#000000;stroke-width:8.56906128;stroke-linecap:butt;stroke-linejoin:miter;stroke-miterlimit:4;stroke-dasharray:none;stroke-opacity:1;display:inline"
   d="M 795.5936,890.43467 L 778.7781,890.43467 L 780.8573,872.3864"
   id="path8410"
   sodipodi:nodetypes="ccc" /><g
   transform="matrix(1,0,0,-1,-182.43693,954.74725)"
   id="g12679"><path
     id="path12681"
     style="fill:#803300;fill-opacity:1;fill-rule:evenodd;stroke:#000000;stroke-width:11.62281609;stroke-linecap:butt;stroke-linejoin:miter;stroke-miterlimit:4;stroke-dasharray:none;stroke-opacity:1"
     d="M 1089.41,564.434 L 1138.148,492.742 L 1150.332,506.629 L 1162.234,513.43 L 1111.23,580.867 L 1070.426,652.84 L 1046.145,753.609 L 1021.301,852.992 L 971.609,958.785 L 951.57,1021.301 L 921.117,1024.504 L 941.953,950.77 L 990.043,853.793 L 1009.277,768.84 L 1020.496,724.758 L 1038.129,653.426 L 1089.41,564.434 z" /></g><g
   transform="matrix(1,0,0,-1,-182.43693,954.74725)"
   id="g12683"><path
     id="path12685"
     style="fill:#000000;fill-opacity:1;fill-rule:evenodd;stroke:#000000;stroke-width:11.62281609;stroke-linecap:butt;stroke-linejoin:miter;stroke-miterlimit:4;stroke-dasharray:none;stroke-opacity:1"
     d="M 1052.008,561.883 L 1090.828,558.906 L 1120.895,576.266 C 1120.895,576.266 1123.273,585.969 1120.863,590.645 C 1118.453,595.32 1115.902,596.168 1115.902,596.168 C 1115.902,596.168 1117.887,602.547 1115.902,606.512 C 1113.922,610.48 1109.102,611.613 1109.102,611.613 C 1109.102,611.613 1108.68,617.281 1105.988,620.254 C 1103.293,623.23 1096.492,624.93 1096.492,624.93 C 1096.492,624.93 1097.91,629.324 1094.652,632.016 C 1091.395,634.707 1085.441,637.113 1073.824,633.43 C 1062.207,629.746 1053.281,621.387 1053.281,621.387 L 1037.422,617.137 L 1052.008,561.883 z" /></g><g
   transform="matrix(0.932134,0.3621135,0.3621135,-0.932134,-273.93626,707.93073)"
   id="g12713"><path
     id="path12715"
     style="fill:none;stroke:#000000;stroke-width:3.19568205;stroke-linecap:round;stroke-linejoin:miter;stroke-miterlimit:4;stroke-dasharray:none;stroke-opacity:1"
     d="M 1159.48,138.148 L 1155.949,181.715 L 1154.238,181.574 L 1155.094,181.645" /></g><path
   id="path12757"
   style="fill:#ff0000;fill-opacity:1;fill-rule:evenodd;stroke:none"
   d="M 290.75807,50.95015 L 359.87907,32.65315 L 286.24307,32.88015 L 290.75807,50.95015 z" /><g
   transform="matrix(1,0,0,-1,-182.43693,954.74725)"
   id="g12759"><path
     id="path12761"
     style="fill:#00ffff;fill-opacity:1;fill-rule:evenodd;stroke:#000000;stroke-width:11.62281609;stroke-linecap:butt;stroke-linejoin:miter;stroke-miterlimit:4;stroke-dasharray:none;stroke-opacity:1"
     d="M 696.105,767.887 L 577.711,836.242 L 559.434,904.441 L 471.238,880.809 L 493.715,796.934 L 576.395,653.723 L 713.688,732.988 L 696.105,767.887 z" /></g><g
   transform="matrix(1,0,0,-1,-182.43693,954.74725)"
   id="g12763"><path
     id="path12765"
     style="fill:none;stroke:#000000;stroke-width:11.62281609;stroke-linecap:round;stroke-linejoin:miter;stroke-miterlimit:4;stroke-dasharray:none;stroke-opacity:1"
     d="M 688.738,736.148 L 598.574,760.309" /></g><g
   transform="matrix(1,0,0,-1,-182.43693,954.74725)"
   id="g12767"><path
     id="path12769"
     style="fill:none;stroke:#000000;stroke-width:11.62281609;stroke-linecap:butt;stroke-linejoin:miter;stroke-miterlimit:4;stroke-dasharray:none;stroke-opacity:1"
     d="M 475.082,884.516 C 475.082,884.516 466.582,913.418 466.582,931.555 C 466.582,949.688 466.582,955.355 466.582,955.355 L 624.133,955.355 C 624.133,955.355 634.332,934.953 621.863,925.887 C 609.398,916.82 558.957,904.352 558.957,904.352" /></g><g
   transform="matrix(1,0,0,-1,-182.43693,954.74725)"
   id="g12771"><path
     id="path12773"
     style="fill:none;stroke:#000000;stroke-width:7.4119029;stroke-linecap:butt;stroke-linejoin:miter;stroke-miterlimit:4;stroke-dasharray:none;stroke-opacity:1"
     d="M 463.938,935.871 L 626.566,935.871" /></g><g
   transform="matrix(1,0,0,-1,-182.43693,954.74725)"
   id="g12775"><path
     id="path12777"
     style="fill:none;stroke:#000000;stroke-width:7.4119029;stroke-linecap:butt;stroke-linejoin:miter;stroke-miterlimit:4;stroke-dasharray:none;stroke-opacity:1"
     d="M 593.59,914.188 L 581.879,934.465" /></g><g
   transform="matrix(1,0,0,-1,-182.43693,954.74725)"
   id="g12779"><path
     id="path12781"
     style="fill:none;stroke:#000000;stroke-width:7.4119029;stroke-linecap:round;stroke-linejoin:miter;stroke-miterlimit:4;stroke-dasharray:none;stroke-opacity:1"
     d="M 575.934,907.383 L 568.742,920.773" /></g><g
   transform="matrix(1,0,0,-1,-182.43693,954.74725)"
   id="g12783"><path
     id="path12785"
     style="fill:none;stroke:#000000;stroke-width:7.4119029;stroke-linecap:round;stroke-linejoin:miter;stroke-miterlimit:4;stroke-dasharray:none;stroke-opacity:1"
     d="M 562.383,903.094 L 555.191,916.484" /></g><g
   transform="matrix(1,0,0,-1,-182.43693,954.74725)"
   id="g12787"><path
     id="path12789"
     style="fill:none;stroke:#000000;stroke-width:7.4119029;stroke-linecap:round;stroke-linejoin:miter;stroke-miterlimit:4;stroke-dasharray:none;stroke-opacity:1"
     d="M 548.941,899.703 L 541.75,913.094" /></g><g
   transform="matrix(1,0,0,-1,-182.43693,954.74725)"
   id="g12791"><path
     id="path12793"
     style="fill:none;stroke:#ffffff;stroke-width:7.4119029;stroke-linecap:round;stroke-linejoin:miter;stroke-miterlimit:4;stroke-dasharray:7.411903, 22.235708;stroke-dashoffset:0;stroke-opacity:1"
     d="M 612.648,703.199 L 516.504,881.031" /></g><path
   id="path13207"
   style="fill:#ff0000;fill-opacity:1;fill-rule:evenodd;stroke:none"
   d="M 655.74307,15.29815 L 717.55507,51.23515 L 665.32507,-0.67085048 L 655.74307,15.29815 z" /><g
   transform="matrix(1,0,0,-1,-182.43693,954.74725)"
   id="g13209"><path
     id="path13211"
     style="fill:none;stroke:#000000;stroke-width:7.4119029;stroke-linecap:butt;stroke-linejoin:miter;stroke-miterlimit:4;stroke-dasharray:none;stroke-opacity:1"
     d="M 930.656,861.664 L 936.719,884.285" /></g><g
   transform="matrix(1,0,0,-1,-182.43693,954.74725)"
   id="g13213"><path
     id="path13215"
     style="fill:none;stroke:#000000;stroke-width:7.4119029;stroke-linecap:round;stroke-linejoin:miter;stroke-miterlimit:4;stroke-dasharray:none;stroke-opacity:1"
     d="M 913.363,869.34 L 917.746,883.891" /></g><g
   transform="matrix(1,0,0,-1,-182.43693,954.74725)"
   id="g13217"><path
     id="path13219"
     style="fill:none;stroke:#000000;stroke-width:7.4119029;stroke-linecap:round;stroke-linejoin:miter;stroke-miterlimit:4;stroke-dasharray:none;stroke-opacity:1"
     d="M 900.746,875.887 L 905.129,890.441" /></g><g
   transform="matrix(1,0,0,-1,-182.43693,954.74725)"
   id="g13221"><path
     id="path13223"
     style="fill:none;stroke:#000000;stroke-width:7.4119029;stroke-linecap:round;stroke-linejoin:miter;stroke-miterlimit:4;stroke-dasharray:none;stroke-opacity:1"
     d="M 888.848,882.996 L 893.23,897.547" /></g><g
   transform="matrix(1,0,0,-1,-182.43693,954.74725)"
   id="g13225"><path
     id="path13227"
     style="fill:#00ffff;fill-opacity:1;fill-rule:evenodd;stroke:#000000;stroke-width:11.62281609;stroke-linecap:butt;stroke-linejoin:round;stroke-miterlimit:4;stroke-dasharray:none;stroke-opacity:1"
     d="M 684.203,728.781 C 684.203,728.781 700.07,818.891 759.578,868.762 C 819.082,918.633 825.316,922.602 825.316,922.602 L 890.492,881.797 L 841.188,814.926 L 841.188,654.543 L 684.203,728.781 z" /></g><g
   transform="matrix(1,0,0,-1,-182.43693,954.74725)"
   id="g13229"><path
     id="path13231"
     style="fill:none;stroke:#000000;stroke-width:11.62281609;stroke-linecap:butt;stroke-linejoin:miter;stroke-miterlimit:4;stroke-dasharray:none;stroke-opacity:1"
     d="M 824.711,922.605 C 824.711,922.605 840.102,948.16 851.961,961.879 C 862.801,974.418 868.793,978.711 868.793,978.711 L 980.195,867.305 C 980.195,867.305 972.984,845.664 957.754,848.07 C 942.527,850.473 886.996,883.84 886.996,883.84" /></g><g
   transform="matrix(1,0,0,-1,-182.43693,954.74725)"
   id="g13233"><path
     id="path13235"
     style="fill:none;stroke:#000000;stroke-width:7.4119029;stroke-linecap:butt;stroke-linejoin:miter;stroke-miterlimit:4;stroke-dasharray:none;stroke-opacity:1"
     d="M 850.508,967.617 L 965.504,852.621" /></g><g
   transform="matrix(1,0,0,-1,-182.43693,954.74725)"
   id="g13237"><path
     id="path13239"
     style="fill:none;stroke:#ffffff;stroke-width:7.4119029;stroke-linecap:round;stroke-linejoin:miter;stroke-miterlimit:4;stroke-dasharray:7.411903, 22.235708;stroke-dashoffset:0;stroke-opacity:1"
     d="M 766.676,744.883 L 850.059,894.148" /></g><g
   transform="matrix(1,0,0,-1,-182.43693,954.74725)"
   id="g13241"><path
     id="path13243"
     style="fill:#00ff00;fill-opacity:1;fill-rule:evenodd;stroke:#000000;stroke-width:11.62281609;stroke-linecap:butt;stroke-linejoin:miter;stroke-miterlimit:4;stroke-dasharray:none;stroke-opacity:1"
     d="M 795.078,308.496 L 678.84,341.156 L 663.414,398.719 L 729.5,447.855 L 785.719,397.387 L 795.078,308.496 z" /></g><g
   transform="matrix(1,0,0,-1,-182.43693,954.74725)"
   id="g13245"><path
     id="path13247"
     style="fill:#ff0000;fill-opacity:1;fill-rule:evenodd;stroke:#000000;stroke-width:11.66611958;stroke-linecap:butt;stroke-linejoin:miter;stroke-miterlimit:4;stroke-dasharray:none;stroke-opacity:1"
     d="M 663.777,638.891 C 663.777,638.891 678.059,724.59 558.605,755.75 C 439.148,786.914 383.641,721.668 319.367,735.949 C 285.355,743.508 274.246,773.93 274.246,773.93 C 274.246,773.93 255.094,688.559 361.242,668.754 C 447.227,652.715 506.664,607.73 566.395,606.43 C 626.121,605.133 664.426,639.215 663.777,638.891 z" /></g><path
   id="path13249"
   style="fill:#ffffff;fill-opacity:1;fill-rule:evenodd;stroke:none"
   d="M 195.22307,215.34515 C 175.48907,220.65315 156.93807,223.56015 137.59407,219.26315 C 103.58607,211.70415 92.473074,181.28215 92.473074,181.28215 C 92.473074,181.28215 73.325074,266.65315 179.46907,286.45415" /><g
   transform="matrix(1,0,0,-1,-182.43693,954.74725)"
   id="g13251"><path
     id="path13253"
     style="fill:none;stroke:#000000;stroke-width:11.66611958;stroke-linecap:butt;stroke-linejoin:miter;stroke-miterlimit:4;stroke-dasharray:none;stroke-opacity:1"
     d="M 663.777,638.891 C 663.777,638.891 678.059,724.59 558.605,755.75 C 439.148,786.914 383.641,721.668 319.367,735.949 C 285.355,743.508 274.246,773.93 274.246,773.93 C 274.246,773.93 255.094,688.559 361.242,668.754 C 447.227,652.715 506.664,607.73 566.395,606.43 C 626.121,605.133 664.426,639.215 663.777,638.891 z" /></g><g
   transform="matrix(0.8682528,0.496122,0.496122,-0.8682528,-383.90573,613.23993)"
   id="g2547"><path
     id="path2549"
     style="fill:#ff0000;fill-opacity:1;fill-rule:nonzero;stroke:#000000;stroke-width:11.62281609;stroke-linecap:round;stroke-linejoin:round;stroke-miterlimit:4;stroke-dasharray:none;stroke-opacity:1"
     d="M 714.90405,469.0321 L 864.422,461.289 L 864.422,492.461 L 723.65005,500.2041 L 714.90405,469.0321 z"
     sodipodi:nodetypes="ccccc" /></g><g
   transform="matrix(1,0,0,-1,-182.43693,954.74725)"
   id="g13255"><path
     id="path13257"
     style="fill:#00ff00;fill-opacity:1;fill-rule:evenodd;stroke:#000000;stroke-width:11.62281609;stroke-linecap:butt;stroke-linejoin:miter;stroke-miterlimit:4;stroke-dasharray:none;stroke-opacity:1"
     d="M 910.695,582.898 L 970.004,388.945 L 993.129,347.738 L 841.371,212.219 L 806.906,282.75 L 542.801,647.188 L 735.176,758.418 L 910.695,582.898 z" /></g><g
   transform="matrix(1,0,0,-1,-182.43693,954.74725)"
   id="g13259"><path
     id="path13261"
     style="fill:#ff0000;fill-opacity:1;fill-rule:nonzero;stroke:#000000;stroke-width:11.62281609;stroke-linecap:round;stroke-linejoin:round;stroke-miterlimit:4;stroke-dasharray:none;stroke-opacity:1"
     d="M 765,461.289 L 864.422,461.289 L 864.422,492.461 L 773.746,492.461 L 765,461.289 z" /></g><g
   transform="matrix(1,0,0,-1,-182.43693,954.74725)"
   id="g13263"><path
     id="path13265"
     style="fill:#00ff00;fill-opacity:1;fill-rule:nonzero;stroke:#000000;stroke-width:11.62281609;stroke-linecap:round;stroke-linejoin:round;stroke-miterlimit:4;stroke-dasharray:none;stroke-opacity:1"
     d="M 912.879,343.402 C 880.5,343.402 854.211,369.695 854.207,402.07 C 854.207,402.375 854.23,402.668 854.234,402.969 C 854.234,402.98 854.234,402.988 854.234,402.996 C 853.703,411.039 851.914,445.387 857.141,482.797 C 864.949,538.691 899.75,578.527 899.75,578.527 L 1015.926,645.621 L 1060.832,567.828 L 971.52,516.266 L 971.52,402.363 C 971.52,402.266 971.52,402.168 971.52,402.07 C 971.52,369.695 945.254,343.402 912.879,343.402 z" /></g><g
   transform="matrix(1,0,0,-1,-182.43693,954.74725)"
   id="g13267"><path
     id="path13269"
     style="fill:none;stroke:#000000;stroke-width:11.62281609;stroke-linecap:butt;stroke-linejoin:miter;stroke-miterlimit:4;stroke-dasharray:none;stroke-opacity:1"
     d="M 970.805,516.375 L 928.93,540.555 L 906.121,517.746" /></g><g
   transform="matrix(1,-0.742849,-0.742849,-1,-182.43693,954.74725)"
   id="g13271"><path
     id="path13273"
     style="fill:#ff0000;fill-opacity:1;fill-rule:nonzero;stroke:#000000;stroke-width:9.1952734;stroke-linecap:round;stroke-linejoin:round;stroke-miterlimit:4;stroke-dasharray:none;stroke-opacity:1"
     d="M 631.464,-69.692 L 779.87,-69.693 C 779.959,-69.693 780.032,-69.622 780.032,-69.532 L 780.032,87.261 C 780.033,87.35 779.96,87.42 779.87,87.42 L 631.464,87.421 C 631.375,87.421 631.302,87.35 631.302,87.261 L 631.301,-69.532 C 631.301,-69.622 631.374,-69.692 631.464,-69.692 z" /></g><g
   transform="matrix(1,0,0,-1,-182.43693,954.74725)"
   id="g13275"><path
     id="path13277"
     style="fill:#ffffff;fill-opacity:1;fill-rule:nonzero;stroke:#000000;stroke-width:9.31321621;stroke-linecap:round;stroke-linejoin:round;stroke-miterlimit:4;stroke-dasharray:none;stroke-opacity:1"
     d="M 688.406,621.574 L 539.996,511.328 C 539.91,511.262 539.891,511.137 539.957,511.047" /></g><g
   transform="matrix(1,0,0,-1,-182.43693,954.74725)"
   id="g13283"><path
     id="path13285"
     style="fill:none;stroke:#000000;stroke-width:11.45475864;stroke-linecap:round;stroke-linejoin:miter;stroke-miterlimit:4;stroke-dasharray:none;stroke-opacity:1"
     d="M 756.969,617.156 L 821.496,626.102" /></g><g
   transform="matrix(1,0,0,-1,-182.43693,954.74725)"
   id="g13287"><path
     id="path13289"
     style="fill:#00ff00;fill-opacity:1;fill-rule:nonzero;stroke:#000000;stroke-width:11.45475864;stroke-linecap:round;stroke-linejoin:round;stroke-miterlimit:4;stroke-dasharray:none;stroke-opacity:1"
     d="M 1027.793,579.551 C 1027.914,579.621 1027.953,579.773 1027.887,579.891 L 989.285,646.75 C 989.215,646.871 989.062,646.91 988.941,646.84 L 958.078,629.02 C 957.957,628.953 957.918,628.801 957.984,628.68 L 996.586,561.82 C 996.656,561.703 996.809,561.66 996.93,561.73" /></g><g
   transform="matrix(1,-0.247789,-0.247789,-1,-182.43693,954.74725)"
   id="g13291"><path
     id="path13293"
     style="fill:#ffffff;fill-opacity:1;fill-rule:nonzero;stroke:#000000;stroke-width:9.03983116;stroke-linecap:round;stroke-linejoin:round;stroke-miterlimit:4;stroke-dasharray:none;stroke-opacity:1"
     d="M 644.63,260.795 L 824.079,260.795 C 824.188,260.791 824.272,260.88 824.272,260.989 L 824.272,450.575 C 824.271,450.681 824.187,450.768 824.078,450.768 L 644.629,450.768 C 644.523,450.767 644.436,450.683 644.436,450.574 L 644.435,260.988 C 644.436,260.879 644.524,260.794 644.63,260.795 z" /></g><g
   transform="matrix(1,-0.829403,-0.829403,-1,-182.43693,954.74725)"
   id="g13295"><path
     id="path13297"
     style="fill:#ffffff;fill-opacity:1;fill-rule:nonzero;stroke:#000000;stroke-width:7.16844797;stroke-linecap:round;stroke-linejoin:round;stroke-miterlimit:4;stroke-dasharray:none;stroke-opacity:1"
     d="M 554.378,-79.299 L 696.678,-79.299 C 696.764,-79.3 696.832,-79.232 696.832,-79.146 L 696.833,71.193 C 696.831,71.281 696.763,71.349 696.678,71.35 L 554.38,71.348 C 554.294,71.349 554.224,71.278 554.223,71.193 L 554.225,-79.144 C 554.224,-79.23 554.292,-79.298 554.378,-79.299 z" /></g><g
   transform="matrix(1,-0.742849,-0.742849,-1,-182.43693,954.74725)"
   id="g13299"><path
     id="path13301"
     style="fill:#ff0000;fill-opacity:1;fill-rule:nonzero;stroke:#000000;stroke-width:9.1952734;stroke-linecap:round;stroke-linejoin:round;stroke-miterlimit:4;stroke-dasharray:none;stroke-opacity:1"
     d="M 592.568,-69.919 L 740.976,-69.918 C 741.065,-69.918 741.138,-69.847 741.136,-69.76 L 741.137,87.033 C 741.137,87.123 741.066,87.195 740.976,87.195 L 592.569,87.194 C 592.479,87.194 592.407,87.123 592.406,87.033 L 592.408,-69.757 C 592.407,-69.847 592.479,-69.919 592.568,-69.919 z" /></g><g
   transform="matrix(1,0,0,-1,-182.43693,954.74725)"
   id="g13303"><path
     id="path13305"
     style="fill:none;stroke:#000000;stroke-width:3.20469809;stroke-linecap:butt;stroke-linejoin:miter;stroke-miterlimit:4;stroke-dasharray:none;stroke-opacity:1"
     d="M 975.72435,294.81884 C 975.72435,294.81884 1029.4774,329.82945 987.941,409.996 C 980.777,424.945 975.504,436.531 971.617,445.5"
     sodipodi:nodetypes="ccc" /></g><path
   id="path13307"
   style="fill:#ffff00;fill-opacity:1;fill-rule:nonzero;stroke:none"
   d="M 476.16107,372.60315 C 476.16107,367.36015 471.90707,363.10715 466.66507,363.10715 C 461.42607,363.10715 457.17207,367.36015 457.17207,372.60315 C 457.17207,377.84515 461.42607,382.09915 466.66507,382.09915 C 471.90707,382.09915 476.16107,377.84515 476.16107,372.60315 z" /><path
   id="path13309"
   style="fill:#ffffff;fill-opacity:1;fill-rule:nonzero;stroke:none"
   d="M 507.14507,380.59915 C 507.14507,375.35715 502.89107,371.10315 497.64907,371.10315 C 492.41107,371.10315 488.15707,375.35715 488.15707,380.59915 C 488.15707,385.84115 492.41107,390.09515 497.64907,390.09515 C 502.89107,390.09515 507.14507,385.84115 507.14507,380.59915 z" /><g
   transform="matrix(1,0,0,-1,-182.43693,954.74725)"
   id="g13311"><path
     id="path13313"
     style="fill:none;stroke:#000000;stroke-width:11.45475864;stroke-linecap:butt;stroke-linejoin:miter;stroke-miterlimit:4;stroke-dasharray:none;stroke-opacity:1"
     d="M 774.789,504.559 L 813.02,534.168" /></g><g
   transform="matrix(1,0,0,-1,-182.43693,954.74725)"
   id="g13315"><path
     id="path13317"
     style="fill:none;stroke:#000000;stroke-width:8.75952053;stroke-linecap:butt;stroke-linejoin:miter;stroke-miterlimit:4;stroke-dasharray:none;stroke-opacity:1"
     d="M 720.375,1036.762 C 720.375,1036.762 729.871,1009.023 722.625,986.035 C 715.379,963.047 706.633,953.055 706.633,953.055" /></g><g
   transform="matrix(1,0,0,-1,-182.43693,954.74725)"
   id="g13319"><path
     id="path13321"
     style="fill:#00ff00;fill-opacity:1;fill-rule:evenodd;stroke:#000000;stroke-width:8.75952053;stroke-linecap:butt;stroke-linejoin:miter;stroke-miterlimit:4;stroke-dasharray:none;stroke-opacity:1"
     d="M 724.871,989.535 C 724.871,989.535 718.625,966.297 738.117,946.809 C 757.605,927.316 772.848,930.066 772.848,930.066 C 772.848,930.066 770.348,956.551 759.105,968.047 C 747.859,979.539 724.871,990.285 724.871,989.535 z" /></g><g
   transform="matrix(1,0,0,-1,-182.43693,954.74725)"
   id="g13323"><path
     id="path13325"
     style="fill:#00ff00;fill-opacity:1;fill-rule:evenodd;stroke:#000000;stroke-width:8.75952053;stroke-linecap:butt;stroke-linejoin:miter;stroke-miterlimit:4;stroke-dasharray:none;stroke-opacity:1"
     d="M 723.125,1008.523 C 723.125,1008.523 713.129,992.285 699.137,989.535 C 685.141,986.785 672.648,990.785 672.648,990.785 C 672.648,990.785 680.895,1006.777 693.637,1009.273 C 706.383,1011.773 723.871,1008.773 723.125,1008.523 z" /></g><g
   transform="matrix(1,0,0,-1,-182.43693,954.74725)"
   id="g13327"><path
     id="path13329"
     style="fill:#ff5555;fill-opacity:1;fill-rule:evenodd;stroke:#000000;stroke-width:8.75952053;stroke-linecap:butt;stroke-linejoin:miter;stroke-miterlimit:4;stroke-dasharray:none;stroke-opacity:1"
     d="M 704.105,947.852 C 705.82,948.703 713.246,952.082 719.035,945.078 C 724.824,938.074 716.984,926.762 716.984,926.762 C 716.984,926.762 725.125,917.367 719.652,906.035 C 714.184,894.703 699.109,901.191 699.109,901.191 C 699.109,901.191 692.359,883.43 678.184,889.082 C 664.008,894.734 669.453,907.145 669.453,907.145 C 669.453,907.145 658.473,908.832 657.977,919.516 C 657.359,932.727 668.543,935.707 668.543,935.707 C 668.543,935.707 663.254,945.707 671.066,953.859 C 677.465,960.535 684.535,953.27 684.535,953.27 C 684.535,953.27 688.422,960.098 696.43,958.109 C 706.637,955.574 702.391,947 704.105,947.852 z" /></g><g
   transform="matrix(1,0,0,-1,-182.43693,954.74725)"
   id="g13331"><path
     id="path13333"
     style="fill:#c8b7b7;fill-opacity:1;fill-rule:nonzero;stroke:#000000;stroke-width:8.75952053;stroke-linecap:round;stroke-linejoin:round;stroke-miterlimit:4;stroke-dasharray:none;stroke-opacity:1"
     d="M 700.137,924.691 C 700.137,930.004 695.824,934.312 690.516,934.312 C 685.203,934.312 680.895,930.004 680.895,924.691 C 680.895,919.383 685.203,915.074 690.516,915.074 C 695.824,915.074 700.137,919.383 700.137,924.691 z" /></g><path
   id="path13335"
   style="fill:#ff0000;fill-opacity:1;fill-rule:nonzero;stroke:none"
   d="M 463.22707,366.35715 C 463.22707,366.42715 463.31307,366.48215 463.41807,366.48215 C 463.52407,366.48215 463.57907,366.42715 463.53607,366.35715 C 463.49307,366.29015 463.40707,366.23515 463.34007,366.23515 C 463.27807,366.23515 463.22707,366.29015 463.22707,366.35715 z M 463.96907,366.66515 C 464.37207,366.89915 464.53207,366.89915 464.34007,366.66515 C 464.25407,366.56415 464.06707,366.48215 463.92207,366.48515 C 463.67207,366.48915 463.67607,366.50115 463.96907,366.66515 z M 463.10207,366.83715 C 463.10207,366.90715 463.15707,366.99715 463.22707,367.03615 C 463.29307,367.07915 463.34807,367.06015 463.34807,366.98915 C 463.34807,366.92315 463.29307,366.83315 463.22707,366.79015 C 463.15707,366.74715 463.10207,366.77115 463.10207,366.83715 z M 463.59807,367.05615 C 463.59807,367.11815 463.75107,367.22815 463.93807,367.29815 C 464.18807,367.39615 464.42607,367.71215 464.86007,368.54015 L 465.44607,369.65315 L 465.04007,370.04415 C 464.48107,370.59115 464.22707,370.54815 464.67607,369.98515 L 465.04007,369.53215 L 464.56307,368.66115 C 464.29707,368.18515 464.05907,367.76715 464.02807,367.73915 C 463.94607,367.65315 463.22707,367.98215 463.22707,368.10315 C 463.22707,368.26315 463.52407,368.23515 463.69207,368.06715 C 463.87507,367.88415 463.85607,367.86815 464.31307,368.77815 L 464.68807,369.52815 L 463.91107,370.40715 C 463.48107,370.88815 463.10207,371.36015 463.07107,371.45015 C 463.02407,371.57915 462.96107,371.58315 462.75407,371.46215 C 462.56307,371.34915 462.25807,371.33715 461.59407,371.42315 C 460.83307,371.51715 460.66107,371.50515 460.47307,371.33715 C 460.21107,371.09915 460.02807,371.23215 460.21507,371.52415 C 460.33307,371.70415 460.52807,371.73215 461.46107,371.70415 C 462.32107,371.67715 462.60607,371.71215 462.72307,371.85315 C 462.95007,372.12215 462.78207,372.31015 462.45007,372.16115 C 462.28207,372.08715 461.84007,372.07515 461.32107,372.13415 C 460.52407,372.22415 460.45407,372.25915 460.27007,372.62615 C 460.16107,372.84115 459.96107,373.05615 459.82507,373.10315 C 459.59807,373.17715 459.59807,373.18915 459.80107,373.24315 C 459.94207,373.28215 460.14507,373.16115 460.37207,372.89915 C 460.65307,372.57915 460.85607,372.48215 461.38707,372.40715 C 462.13707,372.30215 462.54307,372.48915 462.82907,373.07515 C 462.98507,373.38815 462.95007,373.45415 462.08607,374.51315 C 461.44207,375.31015 461.10607,375.62615 460.90707,375.63015 C 460.74707,375.63015 460.62907,375.70815 460.62907,375.81415 C 460.62907,375.95415 460.72307,375.97815 461.03207,375.91915 C 461.25107,375.87615 461.46107,375.79415 461.50107,375.73915 C 461.75107,375.36015 463.05507,373.78615 463.11807,373.78215 C 463.16507,373.77815 463.23507,373.86415 463.27407,373.97415 C 463.32507,374.10715 463.07907,374.49715 462.54707,375.13815 C 461.93807,375.86815 461.74307,376.19215 461.74307,376.48515 C 461.74307,376.74315 461.80107,376.86815 461.92607,376.86815 C 462.05107,376.86815 462.11407,376.74315 462.11407,376.48215 C 462.11407,376.19215 462.29307,375.87215 462.80907,375.23915 C 463.19207,374.77115 463.51607,374.40315 463.53207,374.42315 C 463.54307,374.44215 463.79307,374.72415 464.09007,375.04815 C 464.55907,375.56715 464.60607,375.67315 464.48907,375.92715 C 464.38707,376.15715 464.28607,376.20415 464.03607,376.15715 C 463.82907,376.11815 463.62507,376.17715 463.46907,376.31715 C 463.10607,376.64215 463.17207,376.80215 463.54707,376.50915 C 463.79307,376.31415 463.92607,376.28615 464.10607,376.38015 C 464.41107,376.54415 464.40307,376.93115 464.08607,377.15315 C 463.84007,377.32915 463.84007,377.33315 464.15307,377.53615 C 464.46107,377.73915 464.47707,377.73215 465.09007,377.21215 C 465.43407,376.92315 465.82507,376.47815 465.95407,376.22415 C 466.24307,375.66915 466.24707,375.63015 465.99707,375.63015 C 465.59807,375.63015 465.12907,374.97815 464.96107,374.18115 C 464.77807,373.30615 464.88307,373.03615 465.41107,373.03615 C 465.78607,373.03615 466.31707,373.55215 466.31707,373.91915 C 466.31707,374.07115 466.46907,374.72815 466.65707,375.37615 C 466.95407,376.41515 467.06707,376.62615 467.55507,377.09915 C 468.58307,378.09915 468.93807,378.27115 469.78607,378.19615 C 470.50407,378.13015 471.14107,377.85715 471.14107,377.60715 C 471.14107,377.54015 471.05107,377.48515 470.94607,377.48515 C 470.83307,377.48515 470.79007,377.42715 470.84407,377.34115 C 470.90707,377.23915 470.86407,377.22815 470.69607,377.29815 C 470.56707,377.34915 470.16807,377.42315 469.81707,377.45415 C 469.27807,377.50515 469.08307,377.46215 468.62207,377.19215 C 468.31707,377.01715 467.95407,376.68115 467.81307,376.45415 C 467.45807,375.88415 467.48507,375.84115 467.93407,376.25915 C 468.61807,376.89615 470.08607,377.16115 471.20007,376.85315 C 471.75807,376.70015 472.04007,376.49715 472.96507,375.60715 C 473.70407,374.89215 473.96507,374.20815 473.96507,373.00515 C 473.96107,372.39915 473.93007,372.29415 473.73907,372.29415 C 473.38707,372.29415 472.30907,373.65715 472.39907,373.98915 C 472.47707,374.27115 472.05107,375.06015 471.62207,375.42715 C 470.56707,376.33315 468.76207,376.48215 467.96507,375.73515 C 467.53607,375.33315 467.82107,375.25115 468.71107,375.52115 C 469.67607,375.81715 469.67207,375.81715 470.52807,375.43115 C 471.34407,375.06715 471.62907,374.71615 472.29007,373.28215 C 472.90307,371.93915 472.94607,371.69615 472.57107,371.60315 C 472.21107,371.51315 472.00407,371.61415 472.00407,371.88415 C 472.00407,371.99315 471.82907,372.36415 471.61407,372.71215 C 471.39507,373.06715 471.21107,373.55215 471.19207,373.82115 C 471.17207,374.08315 471.13707,374.31015 471.11807,374.32515 C 470.49707,374.76315 470.19607,374.91115 469.69207,375.02815 C 469.13307,375.15715 469.02807,375.14215 468.41107,374.84515 C 468.04007,374.66915 467.76607,374.51715 467.80107,374.50915 C 467.83607,374.50115 468.25107,374.48515 468.72707,374.47015 C 469.71507,374.44215 470.28607,374.20015 470.57107,373.68515 C 471.41107,372.16915 471.54007,371.79815 471.45807,371.14215 C 471.36407,370.39215 471.11407,370.15315 470.56707,370.29415 C 470.15707,370.39915 469.65707,371.25115 469.65707,371.84115 C 469.65707,372.93115 469.04707,373.65315 468.13307,373.65315 C 467.66507,373.65315 467.30507,373.31715 467.30507,372.88015 C 467.30507,372.75515 467.19607,372.44215 467.06707,372.18115 L 466.82507,371.70815 L 467.18407,371.36015 C 467.46907,371.09115 467.69607,371.00515 468.23107,370.95815 C 468.86407,370.90715 468.91507,370.88015 468.91507,370.59115 C 468.91507,370.39915 469.13307,370.02115 469.48507,369.61015 C 469.79707,369.24315 470.01607,368.90315 469.96907,368.85715 C 469.83307,368.72415 468.67607,370.09515 468.66807,370.39215 C 468.66507,370.67315 468.37907,370.80615 467.75807,370.80615 C 467.52407,370.81015 467.29707,370.93515 467.08307,371.18115 C 466.90307,371.38415 466.71107,371.55215 466.66107,371.55215 C 466.43807,371.55215 466.59007,371.20415 466.97307,370.83315 C 467.29707,370.51715 467.48107,370.43915 467.89907,370.43915 C 468.33607,370.43915 468.41807,370.39915 468.41807,370.19215 C 468.41807,370.05615 468.61807,369.72415 468.86407,369.45415 C 469.23907,369.04015 469.29307,368.90315 469.22307,368.58715 C 469.18007,368.38015 469.09007,368.21215 469.02407,368.21215 C 468.96107,368.21215 468.94607,368.35315 468.98507,368.52415 C 469.04707,368.76315 468.96507,368.95415 468.62507,369.37215 C 468.24707,369.83315 468.10207,369.91915 467.61007,369.97415 C 467.16807,370.02415 466.93007,370.14215 466.58307,370.48215 L 466.12907,370.92315 L 465.73507,370.67315 C 465.34007,370.42315 465.34007,370.41915 465.53607,370.01315 C 465.73107,369.60315 465.72707,369.59515 465.07907,368.38015 C 464.71907,367.71215 464.41507,367.14915 464.40307,367.13015 C 464.33307,367.03215 463.59807,366.96615 463.59807,367.05615 z M 463.04007,367.59515 C 462.94207,367.75115 463.23107,367.75115 463.47307,367.59515 C 463.62507,367.49715 463.60607,367.47415 463.38707,367.47415 C 463.23907,367.47015 463.08307,367.52415 463.04007,367.59515 z M 469.54307,367.77115 C 469.53607,367.89915 469.56707,367.97415 469.60607,367.93115 C 469.64907,367.89215 469.65307,367.78215 469.61807,367.69615 C 469.57907,367.59515 469.54707,367.62615 469.54307,367.77115 z M 462.54707,367.84115 C 462.50407,367.91115 462.55507,367.96615 462.66107,367.96615 C 462.76607,367.96615 462.85607,367.91115 462.85607,367.84115 C 462.85607,367.77415 462.80107,367.71615 462.73907,367.71615 C 462.67207,367.71615 462.58607,367.77415 462.54707,367.84115 z M 468.97707,367.84115 C 468.93407,367.91115 468.95807,367.96615 469.03207,367.96615 C 469.10207,367.96615 469.16107,367.91115 469.16107,367.84115 C 469.16107,367.77415 469.13707,367.71615 469.10607,367.71615 C 469.07507,367.71615 469.01607,367.77415 468.97707,367.84115 z M 462.85607,368.26715 C 462.85607,368.29815 462.91107,368.35715 462.97707,368.39915 C 463.04707,368.43915 463.10207,368.41515 463.10207,368.34515 C 463.10207,368.27115 463.04707,368.21215 462.97707,368.21215 C 462.91107,368.21215 462.85607,368.23515 462.85607,368.26715 z M 469.55107,368.45815 C 469.55107,368.63015 469.57907,368.70015 469.61407,368.61415 C 469.64907,368.52815 469.64907,368.39215 469.61407,368.30615 C 469.57907,368.22015 469.55107,368.29015 469.55107,368.45815 z M 470.09007,368.58315 C 470.04707,368.64915 470.09807,368.70815 470.20407,368.70815 C 470.42207,368.70815 470.45407,368.63415 470.28207,368.52815 C 470.21907,368.48915 470.13307,368.51315 470.09007,368.58315 z M 470.45807,368.95415 C 470.41807,369.02115 470.43807,369.07915 470.50807,369.07915 C 470.57507,369.07915 470.66507,369.02115 470.70807,368.95415 C 470.75107,368.88815 470.72707,368.82915 470.66107,368.82915 C 470.59007,368.82915 470.50107,368.88815 470.45807,368.95415 z M 470.05107,369.34915 C 469.87207,369.52815 469.86007,369.69615 470.02407,369.69615 C 470.08607,369.69615 470.20007,369.58315 470.27407,369.45015 C 470.41807,369.17715 470.28607,369.11815 470.05107,369.34915 z M 459.76207,371.06415 C 459.76207,371.20415 459.82107,371.28215 459.88707,371.24315 C 459.95407,371.20015 460.01207,371.08715 460.01207,370.98515 C 460.01207,370.88815 459.95407,370.81015 459.88707,370.81015 C 459.82107,370.81015 459.76207,370.92315 459.76207,371.06415 z M 459.39107,371.48215 C 459.39107,371.58715 459.45007,371.67315 459.51607,371.67315 C 459.58307,371.67315 459.64107,371.62215 459.64107,371.56015 C 459.64107,371.49315 459.58307,371.40715 459.51607,371.36415 C 459.45007,371.32515 459.39107,371.37615 459.39107,371.48215 z M 459.71907,371.75915 C 459.67607,371.80215 459.70407,371.91115 459.77807,372.00515 C 459.88307,372.12615 459.87507,372.21615 459.76207,372.35715 C 459.68007,372.45815 459.66507,372.54015 459.72707,372.54015 C 459.86007,372.54015 460.25807,372.13815 460.25807,372.00915 C 460.25807,371.88415 459.80507,371.67715 459.71907,371.75915 z M 459.35207,372.74715 C 459.20007,372.89615 459.26607,373.02815 459.45407,372.95415 C 459.55507,372.91515 459.64107,372.83315 459.64107,372.77415 C 459.64107,372.64615 459.46907,372.63015 459.35207,372.74715 z M 460.13307,375.88015 C 460.37507,376.03215 460.50407,376.03215 460.50407,375.88015 C 460.50407,375.81015 460.37907,375.75515 460.22707,375.75915 C 460.00107,375.75915 459.98507,375.78215 460.13307,375.88015 z M 460.75407,376.43115 C 460.75407,376.54015 460.82507,376.58715 460.93807,376.54015 C 461.06707,376.49315 461.12207,376.55215 461.12207,376.73215 C 461.12207,376.88815 461.20407,376.99315 461.32507,376.99315 C 461.46907,376.99315 461.50407,376.91915 461.45007,376.71215 C 461.40707,376.56015 461.37207,376.39615 461.37207,376.34115 C 461.36807,376.16115 460.75407,376.24715 460.75407,376.43115 z M 460.19607,376.49715 C 460.23907,376.56415 460.32507,376.62215 460.38707,376.62215 C 460.45407,376.62215 460.50407,376.56415 460.50407,376.49715 C 460.50407,376.43115 460.41807,376.37215 460.31307,376.37215 C 460.20807,376.37215 460.15307,376.43115 460.19607,376.49715 z M 463.54007,376.98515 C 463.32907,377.32515 463.12907,378.10715 463.23507,378.17315 C 463.35607,378.24715 463.36807,378.22415 463.56307,377.39215 C 463.68407,376.87215 463.67607,376.75915 463.54007,376.98515 z M 461.86407,377.36815 C 461.86407,377.50915 461.92207,377.59115 461.98907,377.54815 C 462.05507,377.50515 462.11407,377.39215 462.11407,377.29415 C 462.11407,377.19615 462.05507,377.11415 461.98907,377.11415 C 461.92207,377.11415 461.86407,377.23215 461.86407,377.36815 z M 461.16507,377.42715 C 461.16507,377.64215 461.39107,377.61015 461.46507,377.38815 C 461.49307,377.30615 461.43807,377.23915 461.34007,377.23915 C 461.24307,377.23915 461.16507,377.32515 461.16507,377.42715 z" /><path
   id="path13337"
   style="fill:#000000;fill-opacity:1;fill-rule:nonzero;stroke:none"
   d="M 492.14107,384.84515 C 492.14107,384.78615 492.11807,384.75515 492.07107,384.75515 C 492.03207,384.75515 492.00807,384.78215 492.00407,384.83715 C 491.99707,384.93915 491.93807,385.02415 491.82107,385.10315 C 491.70807,385.17715 491.57507,385.21615 491.42607,385.21615 C 491.24307,385.21615 491.08607,385.14215 490.95407,385.00115 C 490.82507,384.86015 490.75807,384.69215 490.75807,384.49715 L 490.75807,384.25915 C 490.75807,384.06015 490.83307,383.88415 490.97307,383.73515 C 491.11807,383.59115 491.29007,383.51715 491.48507,383.51715 C 491.59807,383.51715 491.70407,383.54015 491.79307,383.58715 C 491.88307,383.63415 491.97307,383.70815 492.06307,383.81715 C 492.08307,383.83715 492.10207,383.84915 492.12507,383.84915 C 492.16807,383.84915 492.19207,383.82915 492.19207,383.78615 C 492.19207,383.75115 492.14907,383.69215 492.06307,383.61815 C 491.89507,383.45815 491.70407,383.38015 491.48507,383.38015 C 491.25807,383.38015 491.05907,383.46615 490.88307,383.64215 C 490.70807,383.81415 490.62207,384.01715 490.62207,384.23915 L 490.62207,384.51715 C 490.62207,384.61815 490.64507,384.72415 490.68407,384.82915 C 490.73107,384.93915 490.78607,385.02815 490.86007,385.10715 C 491.01207,385.27115 491.20007,385.35315 491.42607,385.35315 C 491.51607,385.35315 491.60207,385.33715 491.69207,385.31015 C 491.78207,385.28615 491.87207,385.23515 491.96507,385.14915 C 492.05507,385.07115 492.11407,384.97015 492.14107,384.84515" /><path
   id="path13339"
   style="fill:#000000;fill-opacity:1;fill-rule:nonzero;stroke:none"
   d="M 493.33607,385.35315 C 493.57107,385.35315 493.76607,385.25515 493.92607,385.06015 C 494.08607,384.87215 494.16507,384.63415 494.16507,384.35315 C 494.16507,384.08315 494.08307,383.85315 493.92207,383.66115 C 493.75807,383.47415 493.56307,383.38015 493.33607,383.38015 C 493.10607,383.38015 492.90707,383.47415 492.74707,383.66515 C 492.58607,383.85715 492.50807,384.09115 492.50807,384.36415 C 492.50807,384.64215 492.58607,384.87215 492.74707,385.06415 C 492.90707,385.25515 493.10607,385.35315 493.33607,385.35315 M 493.33607,385.21615 C 493.14507,385.21615 492.98107,385.13015 492.84807,384.96615 C 492.71107,384.79815 492.64507,384.59915 492.64507,384.36415 C 492.64507,384.13415 492.71107,383.93515 492.84807,383.76715 C 492.98107,383.59915 493.14507,383.51715 493.33607,383.51715 C 493.52407,383.51715 493.68807,383.59915 493.82107,383.76315 C 493.96107,383.93115 494.02807,384.12615 494.02807,384.35715 C 494.02807,384.59515 493.96107,384.79815 493.82507,384.96615 C 493.69207,385.13015 493.52807,385.21615 493.33607,385.21615" /><path
   id="path13341"
   style="fill:#000000;fill-opacity:1;fill-rule:nonzero;stroke:none"
   d="M 494.74707,383.43515 L 494.74707,385.31015 L 495.36407,385.31015 C 495.54307,385.31015 495.69207,385.25515 495.81307,385.14915 C 495.93407,385.04415 495.99707,384.91515 495.99707,384.75915 C 495.99707,384.60315 495.93007,384.47015 495.79707,384.36015 C 495.66807,384.25515 495.50807,384.20415 495.32107,384.20415 L 494.88307,384.20415 L 494.88307,383.43515 L 494.74707,383.43515 M 494.88307,384.34115 L 495.32907,384.34115 C 495.47307,384.34115 495.59807,384.38015 495.70407,384.46215 C 495.80507,384.54415 495.86007,384.64215 495.86007,384.75915 C 495.86007,384.87215 495.80907,384.97015 495.71507,385.04815 C 495.62207,385.13015 495.50807,385.17315 495.37907,385.17315 L 494.88307,385.17315 L 494.88307,384.34115" /><path
   id="path13343"
   style="fill:#000000;fill-opacity:1;fill-rule:nonzero;stroke:none"
   d="M 496.57507,385.31015 L 497.26607,384.27815 L 497.26607,383.43515 L 497.40307,383.43515 L 497.40307,384.27815 L 498.07907,385.31015 L 497.92607,385.31015 L 497.34007,384.41515 L 496.73907,385.31015 L 496.57507,385.31015" /><path
   id="path13345"
   style="fill:#000000;fill-opacity:1;fill-rule:nonzero;stroke:none"
   d="M 499.25407,385.31015 L 499.25407,383.43515 L 499.39107,383.43515 L 499.39107,385.31015 L 499.25407,385.31015" /><path
   id="path13347"
   style="fill:#000000;fill-opacity:1;fill-rule:nonzero;stroke:none"
   d="M 500.66507,383.43515 L 500.66507,385.31015 L 500.84007,385.31015 L 501.85207,383.63015 L 501.85207,385.31015 L 501.98907,385.31015 L 501.98907,383.43515 L 501.81707,383.43515 L 500.80107,385.11015 L 500.80107,383.43515 L 500.66507,383.43515" /><path
   id="path13349"
   style="fill:#000000;fill-opacity:1;fill-rule:nonzero;stroke:none"
   d="M 503.87507,384.13015 L 503.87507,383.63015 C 503.71107,383.55615 503.55507,383.51715 503.39907,383.51715 C 503.16107,383.51715 502.96907,383.57915 502.83307,383.70815 C 502.69607,383.84115 502.62507,384.02115 502.62507,384.24715 L 502.62507,384.48915 C 502.62507,384.58715 502.64907,384.68515 502.68807,384.78215 C 502.73507,384.88015 502.79307,384.96615 502.86807,385.03615 C 502.98907,385.15315 503.14107,385.21615 503.32907,385.21615 C 503.47307,385.21615 503.60207,385.18515 503.70807,385.12615 C 503.81307,385.06415 503.87207,384.99315 503.87907,384.90715 C 503.87907,384.85315 503.90307,384.82515 503.94607,384.82515 C 503.98907,384.82515 504.01207,384.85715 504.01207,384.91515 C 503.99707,385.00115 503.96107,385.07115 503.90707,385.13415 C 503.85607,385.19615 503.79307,385.24315 503.72307,385.27115 C 503.64907,385.30215 503.57907,385.32115 503.51607,385.33315 C 503.45007,385.34515 503.38707,385.35315 503.32107,385.35315 C 503.10207,385.35315 502.91507,385.27815 502.75807,385.13415 C 502.67607,385.05615 502.61007,384.95815 502.56307,384.84115 C 502.51207,384.72815 502.48907,384.61015 502.48907,384.49315 L 502.48907,384.24715 C 502.48907,383.98515 502.57107,383.77415 502.73107,383.61815 C 502.89507,383.45815 503.11407,383.38015 503.38707,383.38015 C 503.60207,383.38015 503.81307,383.43915 504.01207,383.55215 L 504.01207,384.26715 L 503.41107,384.26715 L 503.41107,384.13015 L 503.87507,384.13015" /><path
   id="path13351"
   style="fill:#000000;fill-opacity:1;fill-rule:nonzero;stroke:none"
   d="M 496.27807,381.97815 L 496.27807,380.10315 L 496.41507,380.10315 L 496.41507,381.97815 L 496.27807,381.97815" /><path
   id="path13353"
   style="fill:#000000;fill-opacity:1;fill-rule:nonzero;stroke:none"
   d="M 497.64907,380.56715 C 497.64907,380.62615 497.67207,380.65715 497.71907,380.65715 C 497.76207,380.65715 497.78607,380.63015 497.78607,380.57515 C 497.79007,380.47015 497.84807,380.37615 497.95807,380.30215 C 498.06707,380.22415 498.19607,380.18915 498.34807,380.18915 C 498.50107,380.18915 498.62907,380.22815 498.73107,380.30615 C 498.83607,380.38815 498.88707,380.49315 498.88707,380.61415 C 498.88707,380.73915 498.84007,380.83315 498.73907,380.89215 C 498.67607,380.93515 498.54707,380.97415 498.35207,381.00515 C 498.14107,381.04015 497.98907,381.09515 497.89907,381.16115 C 497.78607,381.23915 497.72707,381.35715 497.72707,381.50515 C 497.72707,381.65315 497.78607,381.77415 497.89907,381.87215 C 498.01607,381.97415 498.16507,382.02115 498.34007,382.02115 C 498.53207,382.02115 498.68407,381.97015 498.79707,381.86015 C 498.90707,381.75515 498.96107,381.64915 498.96107,381.54415 C 498.96107,381.48515 498.94207,381.45415 498.89507,381.45415 C 498.85207,381.45415 498.82907,381.48215 498.82507,381.53615 C 498.82107,381.63415 498.77007,381.72015 498.68007,381.78615 C 498.58607,381.85315 498.47707,381.88415 498.34807,381.88415 C 498.21107,381.88415 498.09807,381.84915 498.00807,381.77415 C 497.91807,381.70015 497.87507,381.61015 497.87507,381.50115 C 497.87507,381.39215 497.91807,381.31015 498.00407,381.25115 C 498.07907,381.20015 498.20407,381.16115 498.37907,381.13415 C 498.59807,381.09515 498.74707,381.05215 498.82907,381.00115 C 498.96507,380.91515 499.03607,380.78615 499.03607,380.60715 C 499.03607,380.44615 498.97307,380.31015 498.84407,380.20815 C 498.71507,380.10315 498.55107,380.05215 498.34807,380.05215 C 498.16807,380.05215 498.00407,380.10315 497.86407,380.21215 C 497.72307,380.31715 497.64907,380.43915 497.64907,380.56715" /><path
   id="path13355"
   style="fill:#000000;fill-opacity:1;fill-rule:nonzero;stroke:none"
   d="M 491.18007,376.91115 L 490.13307,376.91115 L 490.13307,378.64915 L 489.99707,378.64915 L 489.99707,376.77415 L 491.18007,376.77415 L 491.18007,376.91115" /><path
   id="path13357"
   style="fill:#000000;fill-opacity:1;fill-rule:nonzero;stroke:none"
   d="M 493.03607,378.51315 L 491.92207,378.51315 L 491.92207,377.81715 L 492.54307,377.81715 L 492.54307,377.68115 L 491.92207,377.68115 L 491.92207,376.91115 L 493.10607,376.91115 L 493.10607,376.77415 L 491.78607,376.77415 L 491.78607,378.64915 L 493.03607,378.64915 L 493.03607,378.51315" /><path
   id="path13359"
   style="fill:#000000;fill-opacity:1;fill-rule:nonzero;stroke:none"
   d="M 493.54307,376.77415 L 494.24307,378.64915 L 494.46907,378.64915 L 495.17607,376.77415 L 495.03207,376.77415 L 494.79707,377.39915 L 493.91107,377.39915 L 493.68007,376.77415 L 493.54307,376.77415 M 494.74707,377.53615 L 494.37207,378.51315 L 494.32507,378.51315 L 493.96507,377.53615 L 494.74707,377.53615" /><path
   id="path13361"
   style="fill:#000000;fill-opacity:1;fill-rule:nonzero;stroke:none"
   d="M 497.20807,376.77415 L 497.04707,376.77415 C 496.90307,377.04415 496.78207,377.23915 496.68407,377.34915 C 496.59407,377.46615 496.48107,377.55215 496.35607,377.61015 L 495.91807,377.61015 L 495.91807,376.77415 L 495.78207,376.77415 L 495.78207,378.64915 L 496.42607,378.64915 C 496.58607,378.64915 496.72707,378.59915 496.84407,378.49315 C 496.96507,378.39215 497.02407,378.27115 497.02407,378.13015 C 497.02407,377.91515 496.87207,377.75515 496.56307,377.64615 C 496.67207,377.57515 496.76607,377.48215 496.84407,377.37215 C 496.92607,377.26715 497.04707,377.06715 497.20807,376.77415 M 495.91807,377.74715 L 496.29707,377.74715 C 496.46107,377.74715 496.60207,377.78615 496.71507,377.86015 C 496.83307,377.93515 496.88707,378.02815 496.88707,378.13415 C 496.88707,378.23215 496.84007,378.32115 496.74707,378.39615 C 496.65307,378.47415 496.54707,378.51315 496.42607,378.51315 L 495.91807,378.51315 L 495.91807,377.74715" /><path
   id="path13363"
   style="fill:#000000;fill-opacity:1;fill-rule:nonzero;stroke:none"
   d="M 497.70807,376.77415 L 497.70807,378.64915 L 497.87907,378.64915 L 498.89507,376.97015 L 498.89507,378.64915 L 499.03207,378.64915 L 499.03207,376.77415 L 498.86007,376.77415 L 497.84407,378.45415 L 497.84407,376.77415 L 497.70807,376.77415" /><path
   id="path13365"
   style="fill:#000000;fill-opacity:1;fill-rule:nonzero;stroke:none"
   d="M 500.29007,378.64915 L 500.29007,376.77415 L 500.42607,376.77415 L 500.42607,378.64915 L 500.29007,378.64915" /><path
   id="path13367"
   style="fill:#000000;fill-opacity:1;fill-rule:nonzero;stroke:none"
   d="M 501.70007,376.77415 L 501.70007,378.64915 L 501.87207,378.64915 L 502.88707,376.97015 L 502.88707,378.64915 L 503.02407,378.64915 L 503.02407,376.77415 L 502.85207,376.77415 L 501.83607,378.45415 L 501.83607,376.77415 L 501.70007,376.77415" /><path
   id="path13369"
   style="fill:#000000;fill-opacity:1;fill-rule:nonzero;stroke:none"
   d="M 504.90707,377.47015 L 504.90707,376.97015 C 504.74707,376.89615 504.58607,376.85715 504.43407,376.85715 C 504.19207,376.85715 504.00407,376.92315 503.86807,377.05215 C 503.72707,377.18115 503.66107,377.36015 503.66107,377.58715 L 503.66107,377.82915 C 503.66107,377.92715 503.68007,378.02415 503.72307,378.12215 C 503.76607,378.22415 503.82507,378.30615 503.89907,378.37615 C 504.02007,378.49715 504.17607,378.55615 504.36407,378.55615 C 504.50807,378.55615 504.63707,378.52415 504.74307,378.46615 C 504.84807,378.40715 504.90707,378.33315 504.91107,378.25115 C 504.91507,378.19215 504.93807,378.16515 504.97707,378.16515 C 505.02407,378.16515 505.04307,378.19615 505.04307,378.25515 C 505.02807,378.34115 504.99707,378.41515 504.94207,378.47815 C 504.89107,378.53615 504.82907,378.58315 504.75407,378.61415 C 504.68007,378.64215 504.61407,378.66115 504.54707,378.67315 C 504.48507,378.68515 504.41807,378.69215 504.35607,378.69215 C 504.13707,378.69215 503.95007,378.62215 503.79307,378.47815 C 503.71107,378.39615 503.64507,378.29815 503.59807,378.18515 C 503.54707,378.06715 503.52407,377.95015 503.52407,377.83315 L 503.52407,377.58715 C 503.52407,377.32515 503.60607,377.11415 503.76607,376.95815 C 503.93007,376.80215 504.14907,376.72015 504.42207,376.72015 C 504.63707,376.72015 504.84407,376.77815 505.04307,376.89615 L 505.04307,377.60715 L 504.44607,377.60715 L 504.44607,377.47015 L 504.90707,377.47015" /><g
   transform="matrix(1,0,0,-1,-182.43693,954.74725)"
   id="g13371"><path
     id="path13373"
     style="fill:#00ff00;fill-opacity:1;fill-rule:evenodd;stroke:#000000;stroke-width:11.45475864;stroke-linecap:butt;stroke-linejoin:miter;stroke-miterlimit:4;stroke-dasharray:none;stroke-opacity:1"
     d="M 973.391,329.918 L 758.566,325.832 L 844.617,202.137 L 973.391,329.918 z" /></g><g
   transform="matrix(-1,0,0,-1,-182.43693,954.74725)"
   id="g13375"><path
     id="path13377"
     style="fill:none;stroke:#000000;stroke-width:8.75952053;stroke-linecap:butt;stroke-linejoin:miter;stroke-miterlimit:4;stroke-dasharray:none;stroke-opacity:1"
     d="M -1209.703,916.715 C -1209.703,916.715 -1200.207,888.98 -1207.453,865.992 C -1214.699,843.004 -1223.445,833.008 -1223.445,833.008" /></g><g
   transform="matrix(-1,0,0,-1,-182.43693,954.74725)"
   id="g13379"><path
     id="path13381"
     style="fill:#00ff00;fill-opacity:1;fill-rule:evenodd;stroke:#000000;stroke-width:8.75952053;stroke-linecap:butt;stroke-linejoin:miter;stroke-miterlimit:4;stroke-dasharray:none;stroke-opacity:1"
     d="M -1205.203,869.492 C -1205.203,869.492 -1211.453,846.254 -1191.961,826.762 C -1172.473,807.273 -1157.23,810.02 -1157.23,810.02 C -1157.23,810.02 -1159.727,836.508 -1170.973,848 C -1182.215,859.496 -1205.203,870.238 -1205.203,869.492 z" /></g><g
   transform="matrix(-1,0,0,-1,-182.43693,954.74725)"
   id="g13383"><path
     id="path13385"
     style="fill:#00ff00;fill-opacity:1;fill-rule:evenodd;stroke:#000000;stroke-width:8.75952053;stroke-linecap:butt;stroke-linejoin:miter;stroke-miterlimit:4;stroke-dasharray:none;stroke-opacity:1"
     d="M -1206.953,888.48 C -1206.953,888.48 -1216.949,872.238 -1230.941,869.492 C -1244.934,866.742 -1257.43,870.738 -1257.43,870.738 C -1257.43,870.738 -1249.184,886.73 -1236.438,889.23 C -1223.695,891.73 -1206.203,888.73 -1206.953,888.48 z" /></g><g
   transform="matrix(-1,0,0,-1,-182.43693,954.74725)"
   id="g13387"><path
     id="path13389"
     style="fill:#ff5555;fill-opacity:1;fill-rule:evenodd;stroke:#000000;stroke-width:8.75952053;stroke-linecap:butt;stroke-linejoin:miter;stroke-miterlimit:4;stroke-dasharray:none;stroke-opacity:1"
     d="M -1225.973,827.805 C -1224.258,828.66 -1216.828,832.035 -1211.039,825.031 C -1205.254,818.031 -1213.094,806.719 -1213.094,806.719 C -1213.094,806.719 -1204.953,797.324 -1210.422,785.992 C -1215.891,774.66 -1230.969,781.148 -1230.969,781.148 C -1230.969,781.148 -1237.719,763.387 -1251.895,769.039 C -1266.07,774.688 -1260.621,787.098 -1260.621,787.098 C -1260.621,787.098 -1271.602,788.785 -1272.102,799.473 C -1272.719,812.684 -1261.535,815.66 -1261.535,815.66 C -1261.535,815.66 -1266.824,825.664 -1259.012,833.816 C -1252.609,840.492 -1245.543,833.227 -1245.543,833.227 C -1245.543,833.227 -1241.656,840.055 -1233.648,838.066 C -1223.441,835.527 -1227.688,826.953 -1225.973,827.805 z" /></g><g
   transform="matrix(-1,0,0,-1,-182.43693,954.74725)"
   id="g13391"><path
     id="path13393"
     style="fill:#c8b7b7;fill-opacity:1;fill-rule:nonzero;stroke:#000000;stroke-width:8.75952053;stroke-linecap:round;stroke-linejoin:round;stroke-miterlimit:4;stroke-dasharray:none;stroke-opacity:1"
     d="M -1229.941,804.648 C -1229.941,809.957 -1234.25,814.27 -1239.562,814.27 C -1244.871,814.27 -1249.184,809.957 -1249.184,804.648 C -1249.184,799.34 -1244.871,795.027 -1239.562,795.027 C -1234.25,795.027 -1229.941,799.34 -1229.941,804.648 z" /></g><g
   transform="matrix(1,0,0,-1,-182.43693,954.74725)"
   id="g13435"><path
     id="path13437"
     style="fill:none;stroke:#000000;stroke-width:9.68088531;stroke-linecap:butt;stroke-linejoin:miter;stroke-miterlimit:4;stroke-dasharray:none;stroke-opacity:1"
     d="M 1139.176,922.02 L 1166.574,912.355 L 1242.902,922.438 L 1270.02,905.633" /></g><g
   transform="matrix(1,0,0,-1,-182.43693,954.74725)"
   id="g13439"><path
     id="path13441"
     style="fill:none;stroke:#000000;stroke-width:9.68088531;stroke-linecap:butt;stroke-linejoin:miter;stroke-miterlimit:4;stroke-dasharray:none;stroke-opacity:1"
     d="M 1242.246,921.996 L 1269.723,934.422" /></g><g
   transform="matrix(1,0,0,-1,-182.43693,954.74725)"
   id="g13443"><path
     id="path13445"
     style="fill:none;stroke:#000000;stroke-width:3.20469809;stroke-linecap:butt;stroke-linejoin:miter;stroke-miterlimit:4;stroke-dasharray:none;stroke-opacity:1"
     d="M 880.223,550.703 C 880.223,550.703 866.0564,587.71057 834.38451,581.69905 C 800.61851,572.98805 810.17025,532.41529 810.17025,532.41529 C 810.17025,532.41529 814.48579,519.47657 808.79423,515.07854 C 802.39657,510.6064 797.54489,517.88009 797.54489,517.88009"
     sodipodi:nodetypes="ccccc" /></g>

<path
   style="fill:#808000;fill-opacity:1;fill-rule:nonzero;stroke:#000000;stroke-width:7.96000003999999972;stroke-linecap:round;stroke-linejoin:round;marker:none;marker-start:none;marker-mid:none;marker-end:none;stroke-miterlimit:4;stroke-dasharray:none;stroke-dashoffset:0;stroke-opacity:1;visibility:visible;display:inline;overflow:visible;enable-background:accumulate"
   d="M 310.77152,581.73154 L 310.07587,594.16958 C 309.26944,609.67216 321.10069,622.80177 336.60323,623.60819 L 357.88061,624.715 C 373.38322,625.52141 386.51285,613.69019 387.31923,598.18763 L 388.01491,585.74958 L 278.04175,580.16709"
   id="rect3174"
   inkscape:transform-center-x="66.733342"
   inkscape:transform-center-y="-16.615666"
   sodipodi:nodetypes="ccccccc" /><text
   xml:space="preserve"
   style="font-size:9.60000038px;font-style:normal;font-variant:normal;font-weight:normal;font-stretch:normal;text-align:center;line-height:125%;writing-mode:lr-tb;text-anchor:middle;fill:#ffff00;fill-opacity:1;stroke:none;stroke-width:1px;stroke-linecap:butt;stroke-linejoin:miter;stroke-opacity:1;font-family:DIN_OSP;-inkscape-font-specification:DIN_OSP"
   x="355.90784"
   y="-571.33777"
   id="text3758"
   sodipodi:linespacing="125%"
   transform="matrix(0.9985125,5.4522717e-2,5.4522717e-2,-0.9985125,0,0)"><tspan
     sodipodi:role="line"
     id="tspan3760"
     x="355.90784"
     y="-571.33777">44ers</tspan></text>
</g></svg>