<?xml version="1.0" encoding="UTF-8" standalone="no"?>
<!-- Created with Inkscape (http://www.inkscape.org/) -->

<svg
   xmlns:dc="http://purl.org/dc/elements/1.1/"
   xmlns:cc="http://creativecommons.org/ns#"
   xmlns:rdf="http://www.w3.org/1999/02/22-rdf-syntax-ns#"
   xmlns:svg="http://www.w3.org/2000/svg"
   xmlns="http://www.w3.org/2000/svg"
   version="1.0"
   width="1000"
   height="1000"
   id="svg5496">
  <metadata
     id="metadata5594">
    <rdf:RDF>
      <cc:Work
         rdf:about="">
        <dc:format>image/svg+xml</dc:format>
        <dc:type
           rdf:resource="http://purl.org/dc/dcmitype/StillImage" />
        <dc:title></dc:title>
      </cc:Work>
    </rdf:RDF>
  </metadata>
  <defs
     id="defs5498" />
  <g
     id="layer1" />
  <path
     d="m 490.86643,799.99998 c -27.89449,-9.14536 -51.29469,-31.32271 -66.60925,-63.12856 -13.19473,-27.403 -20.67928,-50.79347 -17.63542,-55.11228 2.20113,-3.12267 31.98115,-20.37311 35.17094,-20.37311 1.48055,0 4.61525,-1.74051 6.96596,-3.86776 3.26374,-2.95359 5.41687,-3.25599 9.1103,-1.27942 6.3852,3.4173 17.60651,16.87797 17.60651,21.12013 0,4.75764 11.52638,25.84349 16.82622,30.7809 23.89868,22.26511 50.03815,12.13085 62.78017,-24.33994 8.48154,-24.27586 10.08035,-49.54438 4.96807,-78.51743 -4.24138,-24.03819 -7.54477,-32.61281 -17.87878,-46.40858 -7.09427,-9.47099 -26.61912,-19.34124 -30.52776,-15.43255 -1.36769,1.36768 -3.95174,1.92457 -5.74225,1.2375 -3.82515,-1.4679 -26.17767,20.63684 -24.16361,23.89579 0.75485,1.2211 0.20566,2.22018 -1.22078,2.22018 -1.42595,0 -2.59287,1.58764 -2.59287,3.5281 0,1.94047 -1.09223,4.20324 -2.42734,5.02838 -2.7503,1.69973 -29.57166,-12.66021 -47.38263,-25.36815 l -11.85961,-8.46173 1.13361,-34.82289 c 0.62361,-19.15256 1.71513,-35.77719 2.42566,-36.94359 0.71052,-1.16639 2.13574,-16.44394 3.16702,-33.95007 1.03151,-17.50613 2.2726,-36.78733 2.75812,-42.84715 0.48552,-6.05982 1.47419,-37.98593 2.19696,-70.94689 0.72278,-32.961 1.63823,-60.2531 2.03414,-60.64913 1.27881,-1.27866 166.81508,-4.06541 189.48516,-3.18996 3.68804,0.14249 14.91865,23.35562 16.255,33.59837 0.49678,3.80809 1.6463,9.83353 2.55467,13.38984 0.97226,3.80802 0.54917,7.14702 -1.02932,8.12266 -6.94271,4.29081 -36.89337,10.45853 -47.29666,9.73969 -8.81576,-0.60913 -11.62996,0.0417 -11.62996,2.68996 0,1.92141 2.68199,4.16663 5.95992,4.98934 9.69766,2.43394 15.14978,23.48234 6.90256,26.64712 -2.35219,0.90259 -20.80708,1.66669 -41.01087,1.69802 -20.20404,0.0313 -41.52308,0.78796 -47.376,1.68141 -9.7082,1.48194 -10.93974,2.48357 -14.04139,11.41808 -1.87009,5.38651 -3.41651,14.38441 -3.43683,19.99536 -0.0245,5.61092 -1.31626,10.62811 -2.87983,11.1493 -2.75837,0.9195 -3.38369,14.87813 -1.69111,37.75623 0.41256,5.57647 -0.82658,13.08526 -2.75373,16.68616 -7.30091,13.64161 8.09444,21.20589 21.02426,10.32998 4.04991,-3.40662 13.35632,-7.24832 21.76538,-8.98475 8.07976,-1.66845 15.49991,-4.2822 16.48931,-5.80837 1.31431,-2.02719 1.80889,-2.03453 1.83631,-0.0272 0.0245,1.51119 4.67328,3.48889 10.33915,4.3949 18.02666,2.88259 31.37858,10.55488 45.68096,26.24938 7.51711,8.24897 14.79844,16.90539 16.18082,19.23648 15.12113,25.50139 18.70781,31.27844 21.97815,35.40031 3.89492,4.90879 4.22203,6.22424 5.20434,20.9256 0.31486,4.71319 2.34043,14.62926 4.5014,22.0357 3.95076,13.54193 5.99346,32.63454 7.00759,65.49697 0.50511,16.37412 -0.36799,18.94068 -6.14232,18.05326 -0.98622,-0.15155 -2.45552,2.74785 -3.26495,6.44319 -0.80945,3.69533 -1.89605,8.09601 -2.41463,9.77929 -1.53613,4.9865 -9.23663,3.50517 -16.42418,-3.1596 -6.08258,-5.64018 -7.82782,-5.76811 -6.99805,-0.51302 0.46544,2.94797 -3.09234,2.13392 -9.11714,-2.08604 -7.3298,-5.13394 -9.13306,-2.92326 -5.25404,6.4413 3.4023,8.21432 15.39119,18.48584 23.23051,19.9032 4.0864,0.73881 5.01312,3.11027 5.59951,14.3278 l 0.70246,13.44246 -18.44951,19.58728 c -10.14719,10.77301 -18.45122,20.33939 -18.45342,21.2586 -0.002,0.91922 -2.39846,2.43127 -5.32505,3.36009 -2.92634,0.92884 -6.50714,2.67617 -7.95734,3.88299 -12.08339,10.05654 -14.76367,11.8971 -17.32519,11.8971 -1.60714,0 -6.52697,1.79843 -10.93313,3.99654 C 540.56328,803.034 504.48473,804.46487 490.86643,800 z M 629.72532,677.67686 c 0,-2.68454 -8.01438,-16.24669 -11.12778,-18.83053 -5.54687,-4.60343 -6.50739,-1.61991 -2.47191,7.67812 1.98786,4.58032 3.69097,7.22604 3.78475,5.87941 0.0931,-1.34661 1.29325,-0.52028 2.66582,1.83632 2.12473,3.64766 7.14912,6.06302 7.14912,3.43668 z M 574.97495,346.76535 c -0.77517,-2.01995 -0.37681,-3.67262 0.88534,-3.67262 1.26216,0 1.75869,-1.37724 1.10351,-3.06052 -1.6571,-4.25802 -13.01159,-9.25435 -14.72597,-6.48008 -1.81574,2.9377 1.29374,12.72123 4.77097,15.01203 4.76828,3.14121 9.45576,2.08277 7.96615,-1.79881 z m 43.58855,352.64889 c -2.98192,-2.25541 -3.54725,-3.62375 -1.51727,-3.67261 1.77926,-0.0428 4.888,1.57482 6.90794,3.59475 4.72029,4.72029 0.82144,4.7766 -5.39067,0.0779 z m 43.65443,-538.98312 c 0.81335,-0.81359 2.92511,-0.90056 4.69261,-0.19318 1.95335,0.78158 1.37308,1.36175 -1.47908,1.47923 -2.58111,0.10629 -4.02714,-0.47238 -3.21353,-1.28595 z"
     id="path3117"
     style="fill:#000000" />
</svg>
