<?xml version="1.0" encoding="UTF-8" standalone="no"?>
<!-- Created with Inkscape (http://www.inkscape.org/) -->

<svg
   xmlns:dc="http://purl.org/dc/elements/1.1/"
   xmlns:cc="http://creativecommons.org/ns#"
   xmlns:rdf="http://www.w3.org/1999/02/22-rdf-syntax-ns#"
   xmlns:svg="http://www.w3.org/2000/svg"
   xmlns="http://www.w3.org/2000/svg"
   version="1.0"
   width="1000"
   height="1000"
   id="svg5496">
  <metadata
     id="metadata5594">
    <rdf:RDF>
      <cc:Work
         rdf:about="">
        <dc:format>image/svg+xml</dc:format>
        <dc:type
           rdf:resource="http://purl.org/dc/dcmitype/StillImage" />
        <dc:title></dc:title>
      </cc:Work>
    </rdf:RDF>
  </metadata>
  <defs
     id="defs5498" />
  <g
     id="layer1" />
  <path
     d="m 503.96215,805.74779 c -2.01994,-1.29525 -6.52649,-2.3719 -10.01474,-2.39251 -11.53862,-0.0683 -35.73944,-14.30848 -48.33676,-28.44245 -14.99161,-16.82012 -30.0393,-44.3291 -38.44738,-70.28626 -3.57321,-11.03116 -7.70025,-22.81113 -9.17125,-26.1777 -1.47101,-3.36656 -2.97776,-8.32459 -3.34845,-11.01785 -0.37068,-2.69324 -2.90235,-15.91465 -5.62596,-29.38091 -3.02378,-14.95078 -5.59192,-40.45242 -6.59601,-65.49498 -0.90445,-22.55597 -2.63915,-41.01087 -3.85502,-41.01087 -1.21589,0 -1.57213,-1.03311 -0.79182,-2.2958 1.41714,-2.29291 4.48524,-60.25016 4.00168,-75.59214 -0.15914,-5.0121 0.71126,-7.51074 2.27629,-6.54345 1.59367,0.98489 2.41144,-1.90817 2.20675,-7.80641 -0.44561,-12.83346 2.91043,-37.52791 5.10004,-37.52791 1.67789,0 5.07849,-18.15095 5.15121,-27.49641 0.0245,-2.33008 1.06482,-4.87412 2.32574,-5.65342 1.26093,-0.7793 2.29245,-3.89577 2.29245,-6.92547 0,-3.02972 1.61767,-7.64728 3.59475,-10.26124 1.9771,-2.61398 3.62977,-7.16667 3.67262,-10.11711 0.0416,-2.95043 1.17965,-6.04537 2.52627,-6.87763 1.34662,-0.83226 2.44841,-3.53386 2.44841,-6.00357 0,-2.46971 1.72246,-5.15136 3.82785,-5.95924 2.10539,-0.80788 3.17216,-2.52982 2.37079,-3.82654 -3.00249,-4.8578 29.06116,-38.67184 44.65631,-47.09461 15.43478,-8.33609 41.97628,-11.39273 58.71631,-6.76202 14.68874,4.06328 35.84814,21.83849 43.55916,36.59244 3.16702,6.05982 11.04993,16.41207 17.51716,23.00497 15.63946,15.94277 20.28556,23.26842 20.34922,32.08426 0.0294,4.03987 1.64068,11.75237 3.58129,17.13887 6.53456,18.13809 5.95087,18.67451 -29.3104,26.94077 -9.42638,2.20978 -21.06294,5.49898 -25.85913,7.30929 -7.94191,2.99775 -8.9798,2.8757 -11.62995,-1.36774 -1.60029,-2.56255 -2.90969,-6.83635 -2.90969,-9.49736 0,-10.31535 -10.26007,-32.15211 -17.63908,-37.54178 -4.08909,-2.98675 -8.40393,-5.15502 -9.58822,-4.81836 -1.18454,0.33666 -2.15363,-0.48968 -2.15363,-1.83631 0,-3.53951 -8.96484,-3.00596 -16.64821,0.99085 -7.68972,4.00012 -17.62267,14.82397 -17.64446,19.22717 0,1.67303 -1.75062,6.34724 -3.87192,10.38711 -6.73729,12.83102 -10.66209,26.64365 -9.21214,32.42034 0.77199,3.07647 0.11752,7.14372 -1.45509,9.03832 -1.78588,2.15183 -3.12271,15.98352 -3.56171,36.85269 -0.62801,29.84783 -0.20321,34.04336 3.98725,39.37063 4.57265,5.81306 10.44736,7.81844 12.08828,4.12641 1.51263,-3.40342 17.86508,-14.33258 30.19699,-20.18223 7.75729,-3.67966 18.30382,-6.19352 28.78913,-6.86213 21.75217,-1.38705 37.87716,6.11819 55.68615,25.91865 26.14364,29.06753 35.53549,62.63368 35.42482,126.60673 -0.0392,22.89264 -0.84837,45.47921 -1.79688,50.1924 -0.94876,4.71319 -2.87933,15.03033 -4.29035,22.92699 -1.41102,7.89664 -4.73425,18.846 -7.38465,24.33189 -2.65065,5.48588 -4.81921,12.52185 -4.81921,15.63547 0,3.39986 -1.46684,5.66114 -3.67262,5.66114 -2.01993,0 -3.67261,1.51777 -3.67261,3.37283 0,1.85503 -1.67912,4.76651 -3.73162,6.46992 -2.0525,1.70341 -3.21183,3.61709 -2.57646,4.25263 1.70801,1.70778 -18.16574,22.28273 -25.40495,26.30143 -15.50848,8.60934 -26.72881,12.87489 -38.06666,14.47154 -6.73312,0.9482 -13.89472,2.187 -15.91467,2.75285 -2.01993,0.56588 -5.32529,-0.0309 -7.34522,-1.32618 z m 18.97518,-87.75641 c 9.58307,-10.12897 11.94359,-14.50959 15.38067,-28.54116 4.39024,-17.92242 4.96096,-80.802 0.81311,-89.5831 -1.52976,-3.23861 -4.16009,-10.49513 -5.84509,-16.12559 -1.73666,-5.80261 -7.10431,-14.18257 -12.39116,-19.34501 -12.41491,-12.12301 -26.91047,-13.19728 -42.7272,-3.1665 -13.39378,8.49395 -15.72174,12.97612 -14.5372,27.98893 0.52543,6.65776 1.52708,21.0063 2.22586,31.88566 2.00892,31.27004 11.9595,72.88641 20.67217,86.4576 8.67055,13.50565 28.20446,19.10107 36.40884,10.42917 z"
     id="path3117"
     style="fill:#000000" />
</svg>
