<?xml version="1.0" encoding="UTF-8" standalone="no"?>
<!-- Created with Inkscape (http://www.inkscape.org/) -->

<svg
   xmlns:dc="http://purl.org/dc/elements/1.1/"
   xmlns:cc="http://creativecommons.org/ns#"
   xmlns:rdf="http://www.w3.org/1999/02/22-rdf-syntax-ns#"
   xmlns:svg="http://www.w3.org/2000/svg"
   xmlns="http://www.w3.org/2000/svg"
   version="1.0"
   width="1000"
   height="1000"
   id="svg5496">
  <metadata
     id="metadata5594">
    <rdf:RDF>
      <cc:Work
         rdf:about="">
        <dc:format>image/svg+xml</dc:format>
        <dc:type
           rdf:resource="http://purl.org/dc/dcmitype/StillImage" />
        <dc:title></dc:title>
      </cc:Work>
    </rdf:RDF>
  </metadata>
  <defs
     id="defs5498" />
  <g
     id="layer1" />
  <path
     d="m 77.97372,744.27846 c -0.826143,-0.82617 -1.502211,-6.00142 -1.502211,-11.50054 0,-5.49909 -0.890039,-15.25626 -1.978106,-21.68258 -1.08786,-6.4263 -2.582559,-20.74738 -3.321624,-31.82458 -1.211506,-18.16155 -1.017119,-19.814 1.978084,-16.81873 1.826925,1.82691 3.352385,5.56797 3.390014,8.31349 0.06659,4.83369 0.167749,4.8607 3.200142,0.85255 3.610208,-4.77165 3.578386,-5.20876 -5.636473,-77.86105 -5.720348,-45.09966 -6.255764,-54.73883 -5.733874,-103.21634 l 0.575625,-53.47106 2.769225,21.50338 c 1.522856,11.82689 4.149287,34.56673 5.836229,50.533 1.686942,15.96629 4.123502,36.28699 5.414344,45.15716 1.290841,8.87014 3.689128,26.77173 5.329409,39.7813 1.64028,13.00954 3.982436,29.94348 5.204472,37.63094 1.222244,7.68747 2.691365,20.75079 3.264847,29.0296 1.967991,28.40401 3.876007,41.8674 5.768067,40.69813 1.04164,-0.64385 1.90887,1.06367 1.92693,3.79453 0.0258,3.99455 0.44039,4.33461 2.11745,1.73966 1.8495,-2.8619 2.08818,-2.85941 2.11744,0.023 0.0207,1.78612 2.45202,5.85639 5.40875,9.04511 2.95672,3.18869 5.37583,6.39277 5.37583,7.1202 0,2.67954 5.6754,6.85056 17.19262,12.63527 10.42486,5.23611 14.2157,5.93243 32.2534,5.92439 68.22255,-0.0306 107.86064,-0.005 134.40809,0.0912 16.55763,0.0592 44.13573,-0.51682 61.2847,-1.27975 51.53913,-2.29296 117.78209,-3.63236 232.23675,-4.6957 59.72569,-0.55488 116.81724,-1.94396 126.87008,-3.08684 22.27925,-2.53288 163.74088,-2.22088 162.14726,0.35762 -0.62618,1.01325 -5.19113,1.62189 -10.14401,1.35259 -4.9531,-0.26932 -27.87486,0.7134 -50.93727,2.18379 -23.0624,1.47041 -60.31704,3.81386 -82.78809,5.20763 -45.16854,2.80164 -661.403813,5.08813 -664.0281,2.46382 z m 87.7369,-26.67859 c -5.91345,-2.28953 -11.82602,-5.62523 -13.139,-7.41266 -1.31322,-1.78745 -3.00661,-3.24989 -3.7631,-3.24989 -2.69825,0 -9.8677,-8.55826 -14.07033,-16.79612 -4.84236,-9.49195 -7.17331,-22.54154 -11.97954,-67.06715 -4.42905,-41.03119 -7.32471,-66.20232 -9.94683,-86.46751 -6.11557,-47.26115 27.28675,-75.59006 70.19722,-59.5352 15.5648,5.82356 25.11726,14.34004 30.73696,27.40316 5.0978,11.85035 5.18769,12.40577 10.99662,68.06655 8.64416,82.82599 10.35862,103.40011 9.28776,111.45446 -1.51557,11.39908 -19.71047,30.91343 -31.76398,34.06735 -15.24054,3.98788 -25.39208,3.85932 -36.55578,-0.46299 z m 28.70684,-38.66947 5.05285,-4.21008 -2.50018,-26.36074 c -1.37515,-14.49839 -4.8587,-47.14321 -7.74102,-72.54403 -2.88231,-25.40083 -5.2406,-47.79644 -5.2406,-49.76801 0,-6.2559 -11.82795,-16.94154 -18.75268,-16.94154 -8.30699,0 -15.65275,8.45506 -15.65275,18.01654 0,11.83028 14.19524,137.09176 16.28946,143.74047 1.78307,5.66122 11.57572,12.42908 17.86847,12.34903 3.09284,-0.0394 7.89734,-1.96608 10.67645,-4.28162 z m 134.18144,31.90543 c -3.84374,-1.30365 -6.98861,-3.76242 -6.98861,-5.46395 0,-1.70148 -1.16291,-2.70595 -2.58449,-2.2321 -4.95739,1.65244 -21.057,-13.98125 -21.10214,-20.49152 -0.0237,-3.37958 -0.54984,-3.92531 -1.83338,-1.90098 -2.2039,3.47573 -9.55289,-10.68739 -8.46826,-16.31988 0.9055,-4.70116 12.80507,-9.20486 14.09655,-5.33515 0.4935,1.47834 1.89552,2.68791 3.11583,2.68791 1.22033,0 5.5408,3.62871 9.60105,8.06379 4.06028,4.43506 9.33551,8.17666 11.7226,8.31464 2.38709,0.13802 6.5994,1.45997 9.36065,2.93778 7.71714,4.13005 16.50256,0.279 21.25934,-9.31883 3.47237,-7.00616 3.69277,-9.77066 1.70563,-21.38628 -1.25515,-7.33701 -2.86317,-17.9096 -3.57299,-23.49469 -1.78112,-14.01146 -8.1827,-18.8749 -24.84395,-18.8749 -13.49189,0 -13.26997,0.21199 -15.75921,-15.0524 -0.67521,-4.1394 -0.49801,-8.67523 0.39352,-10.07958 2.26086,-3.56124 12.38014,-7.12313 20.23662,-7.12313 4.15747,0 8.15624,-1.78899 10.81473,-4.83828 3.80307,-4.36236 4.07638,-6.84761 2.77888,-25.2665 -1.93746,-27.49922 -4.22628,-34.5488 -13.10849,-40.37118 -4.01553,-2.63228 -9.00799,-4.75376 -11.09446,-4.71441 -7.1015,0.13388 -14.22836,8.32565 -15.49406,17.80924 l -1.20118,8.99846 -16.96726,0.63349 -16.96726,0.63348 1.12291,-13.98751 c 1.47361,-18.35981 8.91551,-31.29173 22.6547,-39.36806 8.95789,-5.26569 12.32057,-5.97059 28.48404,-5.97059 17.22402,0 19.02212,0.44611 29.87855,7.41259 16.86384,10.82148 23.52559,25.90948 26.38231,59.75143 1.81983,21.55717 1.59963,27.13606 -1.52652,38.68489 -2.00908,7.42222 -4.51313,13.49501 -5.56444,13.49501 -2.48643,0 -2.39871,3.53571 0.33181,13.36707 2.35547,8.48158 7.70788,15.33589 10.58612,13.55701 0.95216,-0.58844 2.323,1.57986 3.04638,4.81849 2.29722,10.28378 4.14113,51.13325 2.66341,59.0093 -1.5403,8.21039 -15.01519,23.3156 -25.87655,29.00715 -7.97625,4.17968 -28.20665,5.48642 -37.28238,2.40819 z m 164.43114,-1.94508 c -17.23283,-4.05786 -33.05717,-16.03643 -38.65968,-29.26433 -3.48484,-8.22772 -6.89485,-40.51654 -13.45425,-127.39333 -3.13735,-41.55306 -3.1094,-44.55745 0.50984,-54.8337 5.28038,-14.99334 20.16031,-29.75799 33.33265,-33.07486 12.07761,-3.04113 23.37012,-3.23812 30.06713,-0.52447 2.71675,1.10085 7.62511,2.57693 10.9076,3.28021 3.2825,0.70328 9.91158,5.22226 14.73156,10.04218 15.65812,15.65819 16.65052,19.98145 21.28556,92.74205 2.27872,35.77001 4.73593,72.77764 5.46059,82.23914 1.12162,14.64822 0.65155,18.68326 -3.16638,27.17302 -5.32962,11.85097 -15.27645,20.30183 -31.81666,27.03107 -12.95191,5.26945 -16.46815,5.5805 -29.19796,2.58299 z m 20.91291,-34.42092 c 8.91167,-5.25807 8.94285,-5.54106 5.57369,-50.55028 -1.14139,-15.24861 -3.11648,-43.69101 -4.38905,-63.20536 -3.65493,-56.0474 -6.9183,-64.5102 -24.876,-64.5102 -8.27366,0 -9.33677,0.65476 -12.75368,7.85561 -3.52225,7.42222 -3.53214,10.47676 -0.18065,55.37126 8.21774,110.09285 8.36074,111.0643 17.0133,115.6378 9.01443,4.7647 10.60418,4.7162 19.6126,-0.59883 z m 81.94604,30.49547 c -0.67049,-1.08459 -1.82328,-6.3819 -2.56214,-11.77185 -1.2775,-9.32177 -1.04076,-9.9165 4.85506,-12.19204 5.2221,-2.0155 23.64901,-1.412 25.90966,0.84859 0.38405,0.38405 1.30697,5.13933 2.05099,10.56734 l 1.35255,9.86903 -8.33192,2.31347 c -10.22251,2.83842 -21.63521,3.01765 -23.2742,0.36546 z m 102.73271,-4.57443 c -18.72602,-3.7027 -34.45511,-17.01972 -38.3281,-32.45041 -1.80434,-7.1894 1.86414,-9.8507 14.85993,-10.78044 9.77825,-0.6995 10.85945,-0.276 14.53975,5.69533 2.1869,3.54806 4.57184,8.18396 5.29994,10.30202 1.5074,4.38467 6.08481,3.79849 6.28415,-0.80469 0.073,-1.67549 -0.8784,-4.4978 -2.11334,-6.27182 -1.51514,-2.17664 -0.81282,-2.01014 2.15959,0.51203 6.86323,5.82381 16.69287,6.95989 23.21915,2.68369 5.52036,-3.6171 5.63216,-4.16788 5.63216,-27.74189 0,-15.83962 -0.88098,-24.93257 -2.58039,-26.63195 -1.48739,-1.48739 -8.6117,-2.58039 -16.81953,-2.58039 -28.95542,0 -50.88608,-14.29129 -55.59018,-36.22572 -3.96672,-18.49556 -5.62765,-75.55587 -2.47719,-85.10162 3.68849,-11.1764 15.79898,-24.08412 28.75737,-30.65066 9.28109,-4.70309 12.85774,-5.3113 27.0158,-4.59415 22.43794,1.13653 38.00103,9.37971 46.86645,24.82353 4.59914,8.01204 6.76217,30.43358 9.18345,95.19283 1.30439,34.88926 2.76706,66.82182 3.25024,70.96122 0.48341,4.1394 0.0947,10.91298 -0.86529,15.05238 l -1.74393,7.52619 -1.71167,-11.77002 c -1.28397,-8.82894 -2.12604,-10.7096 -3.37001,-7.52619 -0.91218,2.33409 -1.7263,7.85296 -1.8095,12.2641 -0.20439,10.86634 -5.88723,24.34701 -11.93289,28.30818 -6.34051,4.15454 -29.89813,12.12747 -34.92025,11.81859 -2.10712,-0.12973 -7.86959,-1.03412 -12.80571,-2.01016 z m 61.94637,-67.97062 c -2.02325,-3.48062 -2.31591,-3.18784 -2.37333,2.37315 -0.0472,4.6261 0.57714,5.70099 2.30775,3.97034 1.70091,-1.70082 1.71941,-3.49804 0.0645,-6.34351 z M 695.7695,581.07494 c 0,-3.46654 -5.72314,-6.75289 -7.92528,-4.55081 -1.53148,1.5315 3.32786,7.84379 6.03835,7.84379 1.03777,0 1.88693,-1.48184 1.88693,-3.29298 z m 24.17908,-3.10966 c 2.97326,-2.33875 5.89192,-6.79443 6.48584,-9.90148 1.68028,-8.79028 -2.05055,-61.35712 -4.91416,-69.23722 -4.69592,-12.92316 -20.30524,-17.08655 -30.47786,-8.12924 l -5.80226,5.10913 2.06993,32.99145 c 2.36579,37.70917 4.3581,45.76502 12.3967,50.1307 7.93884,4.3113 13.89657,4.02778 20.24181,-0.96334 z m 35.30427,-22.08938 c -0.5965,-1.47836 -1.08463,-0.26879 -1.08463,2.68794 0,2.95672 0.48813,4.16629 1.08463,2.68793 0.59651,-1.47836 0.59651,-3.8975 0,-5.37587 z m -5.75774,-76.33708 c -0.0472,-2.288 -2.4529,-5.28724 -8.03087,-10.0098 -6.06785,-5.13739 -6.29664,-1.56329 -0.38149,5.95672 4.2695,5.42769 8.48181,7.45725 8.41236,4.05308 z m 109.3106,212.38679 c -7.68896,-2.32047 -16.67072,-8.61412 -12.45325,-8.7262 1.74155,-0.0463 0.16775,-1.38983 -3.49861,-2.98564 -3.6657,-1.59578 -8.94584,-6.59214 -11.73375,-11.10298 -4.54647,-7.35641 -5.19544,-11.53575 -6.29814,-40.55875 -0.67607,-17.79649 -0.55908,-34.77637 0.25976,-37.7331 1.42439,-5.14246 1.49707,-5.16403 1.67383,-0.49663 0.15922,4.22152 0.97905,4.67991 6.07686,3.4004 3.24077,-0.81335 7.18041,-2.7671 8.75511,-4.34164 1.57448,-1.57454 3.63471,-2.8628 4.57807,-2.8628 2.88856,0 4.38003,14.81644 4.40475,43.75698 0.0323,37.41951 3.32787,44.30661 20.45189,42.73703 1.18268,-0.1083 7.23053,-1.62473 13.43963,-3.3696 12.89537,-3.62387 14.92701,-1.27794 6.08631,7.02745 -2.86144,2.68833 -6.36563,7.69528 -7.78701,11.12654 -2.20648,5.32697 -3.7244,6.21159 -10.38701,6.0538 -4.29164,-0.10162 -10.39733,-0.96781 -13.56844,-1.92484 z m -18.21789,-21.07622 c -0.67885,-2.59611 -2.07228,-4.20235 -3.09626,-3.56949 -1.02401,0.63286 -0.70877,2.99709 0.70056,5.25385 3.17284,5.08028 4.01062,4.49122 2.3957,-1.68436 z M 692.68227,660.26016 c -1.16701,-3.06468 -0.91993,-3.31167 1.20374,-1.20376 1.46956,1.45868 2.13035,3.19376 1.46826,3.85584 -0.6621,0.66208 -1.86457,-0.53139 -2.672,-2.65208 z m 170.45919,-2.0774 c -2.83008,-0.74945 -3.90803,-4.86604 -5.14385,-19.64122 -2.27183,-27.16087 -2.16173,-36.62175 0.45588,-39.23945 1.66286,-1.66291 2.76922,5.16599 3.89641,24.04939 0.86573,14.50445 2.42129,28.60071 3.45712,31.32504 1.0358,2.7243 1.66544,4.84105 1.399,4.70388 -0.26642,-0.1371 -2.09551,-0.67614 -4.06456,-1.19764 z m 36.47921,-29.73287 c -0.95711,-22.36416 1.32677,-36.96958 4.53207,-28.98164 0.70123,1.74768 3.21024,3.17756 5.57562,3.17756 3.01327,0 4.49248,1.64715 4.94149,5.50216 0.96011,8.24592 -3.06016,17.25079 -7.02303,15.7301 -2.66899,-1.02419 -3.32292,0.71819 -3.44548,9.18002 -0.31955,22.08569 -3.57818,18.80734 -4.58067,-4.6082 z m 17.84225,-6.19991 c -1.90349,-2.29365 -1.7177,-3.26247 0.81195,-4.23316 2.25573,-0.86562 -20.94871,59.53477 3.28036,2.97435 1.97387,-4.60782 -0.77799,5.25215 -4.09231,1.25881 z m -18.49465,-40.83579 c -0.40965,-1.33216 -1.24913,-20.80754 -1.86543,-43.2786 -1.53232,-55.85591 -3.53258,-61.08351 -23.4243,-61.21631 -9.28108,-0.062 -10.64805,0.58964 -14.5191,6.92022 -2.35031,3.84374 -3.68717,8.4401 -2.97112,10.21412 1.74521,4.32319 5.07718,82.2535 3.61774,84.61492 -1.6736,2.70809 -4.81268,-3.10772 -5.04813,-9.353 -0.11176,-2.95672 -0.61007,-4.40819 -1.10809,-3.22551 -0.49802,1.18267 -0.87087,2.91063 -0.82873,3.83989 0.0431,0.92926 -1.45343,3.21985 -3.32379,5.09018 -2.91821,2.91815 -4.73548,3.02691 -12.80893,0.76649 -5.17457,-1.44878 -10.45236,-1.98889 -11.72859,-1.20019 -1.44719,0.89439 -2.33398,-0.83884 -2.3572,-4.60636 -0.0207,-3.32218 -0.61867,-21.52279 -1.32979,-40.4458 -0.8425,-22.41761 -0.46576,-37.44218 1.081,-43.12096 5.9018,-21.66802 34.16567,-40.02488 55.65703,-36.14839 5.54294,0.99984 6.9886,2.30526 6.9886,6.31081 0,4.02191 1.73704,5.57064 8.53105,7.60615 4.80708,1.44025 7.9384,3.51472 7.17332,4.7524 -0.7937,1.28432 0,1.67977 1.8852,0.95221 2.41354,-0.9262 3.01306,-0.044 2.34494,3.45073 -1.07366,5.61596 8.88307,17.46518 12.69562,15.10888 1.57039,-0.97053 2.1256,-0.41348 1.48695,1.49175 -0.56058,1.67235 1.21043,5.18327 3.93534,7.8021 l 4.95439,4.76141 0,-7.40584 c 0,-6.99766 -5.6182,-24.51504 -8.61018,-26.84593 -0.75885,-0.59134 -2.07679,-2.95621 -2.92854,-5.25528 -1.53341,-4.13993 -1.50396,-4.13993 3.07369,0 2.54214,2.29907 6.62928,8.05073 9.08283,12.78147 3.90823,7.53649 4.68622,14.42846 6.28306,55.66878 1.00228,25.88706 1.37537,47.51425 0.8294,48.0604 -3.63429,3.6342 -5.28446,-4.84397 -5.4281,-27.88832 -0.12052,-19.34358 -0.94832,-27.02607 -3.14897,-29.2266 -2.54663,-2.54671 -3.00682,-0.97784 -3.13219,10.68089 -0.0818,7.51635 -0.77368,20.57348 -1.53963,29.01586 -1.16077,12.79442 -4.36244,77.39476 -6.00075,17.57832 -0.21945,-8.01219 -25.50323,96.94683 -26.32917,94.26014 z m -44.07358,-85.21022 c 0,-1.1827 -1.02466,-2.15035 -2.27723,-2.15035 -1.25256,0 -1.6792,0.96765 -0.94829,2.15035 0.73091,1.18268 1.75575,2.15033 2.2772,2.15033 0.52168,0 0.94832,-0.96765 0.94832,-2.15033 z M 189.11729,424.299 c -1.43921,-3.75037 -0.30384,-13.07335 3.55129,-29.16103 1.27515,-5.3221 3.14401,-14.73324 4.15295,-20.91363 1.00894,-6.18039 3.43066,-17.60265 5.38187,-25.38282 1.95122,-7.78014 3.82266,-17.23823 4.15876,-21.01799 0.33589,-3.77977 1.13989,-8.32376 1.78628,-10.09778 0.64639,-1.77404 2.23743,-8.54761 3.53539,-15.0524 1.29794,-6.50476 4.79031,-23.36544 7.76058,-37.46817 2.97024,-14.10271 5.40056,-28.31848 5.40056,-31.59061 0,-3.2721 0.83714,-6.46662 1.86027,-7.09896 1.02313,-0.63231 2.41375,-5.2768 3.09025,-10.32108 1.62049,-12.08167 -2.42923,-16.76225 -14.42276,-16.66911 -9.60149,0.0747 -16.33184,3.85045 -16.33184,9.16269 0,3.42147 -2.03981,4.39868 -14.33437,6.86717 -8.61921,1.73057 -21.60169,-0.63007 -22.96198,-4.17523 -0.57136,-1.48866 -1.67943,-11.31198 -2.46278,-21.82962 l -1.42396,-19.123 7.15202,-4.62147 c 6.53339,-4.22187 11.1594,-4.7501 53.49618,-6.10898 39.40497,-1.26476 46.73677,-1.01459 48.96539,1.67081 3.31969,3.99997 3.6745,39.83609 0.52597,53.14162 -3.60935,15.25342 -10.66395,50.51876 -15.27086,76.33708 -5.21199,29.20909 -10.62848,54.51416 -12.88784,60.20951 -0.9382,2.36536 -4.78429,19.78312 -8.54633,38.70611 -3.76222,18.92301 -7.30083,34.87375 -7.86378,35.44615 -0.56275,0.57238 -8.20548,1.40338 -16.98383,1.84665 -13.35145,0.67422 -16.18408,0.22374 -17.32743,-2.75588 z m 171.44405,-8.43768 c -1.33752,-1.61173 -3.86351,-20.23904 -5.61304,-41.39404 -1.74952,-21.15503 -4.65205,-52.49461 -6.44994,-69.64358 -1.79789,-17.14897 -3.81685,-43.2756 -4.48667,-58.05919 -1.73146,-38.22115 -6.38653,-43.67709 -24.78655,-29.05047 -5.19286,4.12795 -11.05812,7.51474 -13.03386,7.52619 -4.36519,0.0254 -6.49231,-8.36906 -6.66112,-26.28737 l -0.12259,-12.88848 16.43657,-15.60542 c 17.02315,-16.16236 21.62101,-18.30942 39.21057,-18.30942 14.61331,0 15.67428,1.85396 20.30525,35.48062 1.14012,8.27883 2.09852,21.82596 2.1297,30.10476 0.0302,8.2788 1.94843,31.01865 4.26026,50.533 2.31183,19.51433 5.24703,50.96306 6.52262,69.88603 1.27558,18.92299 3.1582,43.59815 4.18348,54.83367 1.60802,17.62386 1.39234,20.79725 -1.5721,23.11618 -4.71463,3.68809 -27.21085,3.5082 -30.32368,-0.24248 z m 234.39805,-7.6632 c -1.69187,-1.04567 -3.26206,-14.65093 -4.62947,-40.11394 -1.13795,-21.19235 -2.99476,-50.62722 -4.12629,-65.41083 -1.97207,-25.76562 -2.96209,-42.18064 -5.60873,-92.99146 -0.66187,-12.70794 -1.96518,-30.12573 -2.89607,-38.70611 -0.9668,-8.91093 -0.84099,-18.07885 0.2933,-21.37985 1.73921,-5.06078 3.49258,-5.96737 14.10559,-7.29337 6.66585,-0.83283 22.31667,-1.59855 34.7796,-1.70162 20.27491,-0.16775 23.92856,0.4129 34.71316,5.51589 18.03749,8.53474 32.37961,29.94537 31.79838,47.47026 -0.20853,6.2692 -0.43566,6.00338 -2.34022,-2.73141 -2.32796,-10.6755 -4.78085,-14.51402 -6.9901,-10.93906 -0.79478,1.28572 -0.57887,2.33768 0.47951,2.33768 1.05841,0 2.14109,5.56401 2.4058,12.36447 0.26471,6.80047 0.86682,15.75124 1.33753,19.89064 3.88307,34.13454 3.8534,35.33066 -1.15217,46.30136 l -4.87375,10.68266 6.75703,12.21225 c 6.98409,12.6226 9.18281,20.84633 3.59989,13.46521 -4.05664,-5.36328 -4.07362,-2.00218 -0.0689,13.37551 1.77404,6.81097 3.22551,15.48641 3.22551,19.27879 0,3.79236 1.20957,7.29818 2.68794,7.79067 2.7692,0.92253 4.18025,18.81598 1.48396,18.81598 -0.8094,0 -2.06111,3.68556 -2.78149,8.19011 -3.9822,24.90386 -24.1023,39.89128 -56.81586,42.32245 -33.4924,2.48901 -42.9627,2.75063 -45.38463,1.25372 z m 61.77198,-37.94573 c 8.71984,-4.34999 9.86791,-9.42609 8.13,-35.94564 -1.61427,-24.63126 -5.79065,-34.06401 -16.77804,-37.89421 -7.67476,-2.67549 -18.88944,-3.02177 -22.50287,-0.69487 -2.53633,1.63332 -5.14362,39.51096 -2.61203,37.9446 0.76209,-0.47151 1.74093,6.964 2.17508,16.52335 0.64102,14.11415 1.5691,17.95087 4.93867,20.4148 5.49672,4.01924 18.22801,3.85299 26.64919,-0.34803 z m -7.33825,-117.27011 c -0.65178,-1.05438 0.28964,-1.91709 2.09184,-1.91709 6.45123,0 8.27258,-8.36549 7.0529,-32.39679 -1.64932,-32.49703 -6.76431,-40.9179 -26.79581,-44.11518 -7.28579,-1.16291 -10.0907,-0.65581 -13.51554,2.44354 -2.37678,2.15109 -3.81471,5.23189 -3.19518,6.8463 0.61949,1.61443 0.2877,2.41693 -0.73757,1.78337 -3.08747,-1.90819 -4.40605,10.23205 -2.18496,20.11731 1.1444,5.09322 1.47986,11.15308 0.74572,13.46648 -1.94025,6.11299 1.19711,29.96157 3.73494,28.39304 1.16139,-0.71773 3.49624,0.67197 5.18876,3.08827 1.69233,2.41626 5.72744,4.69842 8.96692,5.07138 8.93208,1.02841 19.98354,-0.61952 18.64798,-2.78061 z m -33.52984,-25.30899 c -0.43737,-4.58672 -0.15255,-10.63455 0.635,-13.43961 0.89949,-3.20696 1.50998,-0.11129 1.64459,8.3395 0.23932,15.00316 -1.05818,17.90626 -2.27959,5.10011 z m -1.63683,-22.66122 c -0.0924,-2.26681 0.41479,-3.53686 1.12936,-2.82232 0.71455,0.71453 0.79089,2.5692 0.16982,4.12148 -0.68639,1.7154 -1.19602,1.20588 -1.29923,-1.29916 z M 771.2529,396.65982 c -0.96421,-2.61106 -2.42559,-29.42252 -3.24724,-59.58103 -3.55299,-130.42098 -5.05502,-149.99155 -11.56473,-150.68831 -0.84532,-0.0906 -3.23047,-0.48869 -5.30017,-0.8849 -2.0697,-0.39622 -3.7631,-0.0247 -3.7631,0.82572 0,2.28223 -19.00405,15.27608 -22.3418,15.27608 -4.09728,0 -6.11323,-20.40877 -3.03178,-30.69343 1.60867,-5.36954 5.82485,-11.08533 11.96148,-16.2163 5.21263,-4.35819 12.335,-10.52413 15.82802,-13.70206 9.76447,-8.88411 40.81431,-13.48404 46.85935,-6.94204 1.62007,1.75328 4.79116,59.17958 7.88658,142.81572 0.59092,15.96627 1.88736,46.45844 2.88102,67.76036 2.16411,46.39132 1.31237,53.68906 -6.28436,53.8423 -2.95672,0.0595 -10.49537,0.74448 -16.75287,1.52184 -10.41581,1.29397 -11.52519,1.01228 -13.1304,-3.33395 z m 24.73148,-33.19458 c -0.71455,-0.71452 -1.22268,0.55554 -1.12936,2.82232 0.10323,2.50504 0.61265,3.01458 1.29902,1.29918 0.62125,-1.55226 0.54491,-3.40695 -0.16982,-4.1215 z m 8.62137,2.10556 c -0.6165,-2.0697 -1.62931,-24.08382 -2.25077,-48.92023 -2.86469,-114.50798 -5.67797,-171.82737 -8.57577,-174.7251 -2.55525,-2.5553 -5.95301,3.40086 -4.51829,7.92081 0.79951,2.5194 1.74607,13.50289 2.10346,24.4078 0.35739,10.90489 1.32181,30.47127 2.14302,43.48084 1.06443,16.86046 0.83992,22.7274 -0.78186,20.42824 -1.97529,-2.80035 -2.27957,-2.74623 -2.30816,0.41064 -0.0207,1.99991 0.93474,4.23427 2.11744,4.9652 1.18268,0.73096 2.08238,3.44912 1.99917,6.04036 -0.14632,4.54228 -0.21752,4.55703 -1.99917,0.41067 -1.09947,-2.55892 -1.9093,-3.06293 -1.99919,-1.24451 -0.0839,1.68091 1.22549,4.58387 2.90792,6.45101 2.83844,3.15002 4.30777,23.05598 6.44112,87.2581 0.74941,22.54955 1.32075,26.87926 3.54677,26.87926 1.26247,0 1.79082,-1.69339 1.17431,-3.76309 z M 477.91636,297.39669 c -2.41503,-2.41499 -3.63191,-7.14207 -3.63191,-14.10805 0,-14.47789 4.2265,-17.17107 26.94678,-17.17107 21.14514,0 24.70009,2.10641 26.2133,15.53189 1.07,9.49264 0.82077,10.04796 -6.13171,13.67193 -10.62204,5.53661 -38.59732,6.87443 -43.39646,2.0753 z m 216.12212,-62.45904 c -0.0431,-3.54806 0.40211,-5.25987 0.99131,-3.804 0.58897,1.45583 0.62489,4.35879 0.0795,6.45103 -0.54535,2.09221 -1.02724,0.90105 -1.07109,-2.64701 z m -0.24944,-12.72285 c -0.0924,-2.26681 0.41479,-3.53686 1.12936,-2.82234 0.71455,0.71455 0.79089,2.56922 0.16983,4.1215 -0.68639,1.7154 -1.19603,1.20586 -1.29923,-1.29916 z M 272.15246,120.57329 c -6.50476,-0.37174 -15.21366,-1.30596 -19.35306,-2.07601 l -7.52619,-1.40009 7.52619,-1.90317 c 13.89399,-3.51338 21.50341,-4.27637 21.50341,-2.15609 0,1.15266 1.50179,2.67196 3.33733,3.3763 1.83532,0.70434 2.81372,0.43366 2.174,-0.60145 -0.63973,-1.03514 0.42531,-3.20127 2.36708,-4.81363 2.86188,-2.37649 24.53861,-3.0291 114.48197,-3.44658 73.80291,-0.34257 109.75768,0.19632 107.38563,1.60927 -1.96133,1.16837 -6.35943,2.43008 -9.77373,2.80388 -3.41432,0.37377 -7.37245,1.39941 -8.79597,2.27918 -4.35422,2.69095 -121.44691,6.68901 -160.64332,5.48508 -2.36538,-0.0726 -8.17128,0.0339 -12.90205,0.23667 -4.73074,0.20278 -9.08517,0.18895 -9.67651,-0.0309 -3.73925,-1.3901 -11.11103,-1.19954 -12.04471,0.31135 -0.61114,0.98874 -2.26368,1.61869 -3.67215,1.39993 -1.40847,-0.21867 -7.88314,-0.70188 -14.38792,-1.07367 z M 80.234604,107.55064 c 7.391782,-0.41991 19.487439,-0.41991 26.879246,0 7.39178,0.41988 1.34395,0.76344 -13.439636,0.76344 -14.783587,0 -20.831415,-0.34356 -13.43961,-0.76344 z m 444.090196,0.29293 c 0.71434,-0.71454 2.56924,-0.79093 4.12134,-0.16959 1.71556,0.68641 1.20593,1.19595 -1.29902,1.29911 -2.26688,0.0933 -3.53687,-0.41485 -2.82232,-1.12938 z"
     id="path3816"
     style="fill:#000000" />
</svg>
