<?xml version="1.0" encoding="UTF-8" standalone="no"?>
<!-- Created with Inkscape (http://www.inkscape.org/) -->

<svg
   xmlns:dc="http://purl.org/dc/elements/1.1/"
   xmlns:cc="http://creativecommons.org/ns#"
   xmlns:rdf="http://www.w3.org/1999/02/22-rdf-syntax-ns#"
   xmlns:svg="http://www.w3.org/2000/svg"
   xmlns="http://www.w3.org/2000/svg"
   version="1.0"
   width="1000"
   height="1000"
   id="svg5496">
  <metadata
     id="metadata5594">
    <rdf:RDF>
      <cc:Work
         rdf:about="">
        <dc:format>image/svg+xml</dc:format>
        <dc:type
           rdf:resource="http://purl.org/dc/dcmitype/StillImage" />
        <dc:title></dc:title>
      </cc:Work>
    </rdf:RDF>
  </metadata>
  <defs
     id="defs5498" />
  <g
     id="layer1" />
  <path
     d="m 425.47093,797.94063 c 0,-1.01913 0.36781,-1.85297 0.81715,-1.85297 0.44933,0 1.33247,0.83384 1.96228,1.85297 0.62983,1.01912 0.2622,1.85296 -0.81716,1.85296 -1.07916,0 -1.96227,-0.83384 -1.96227,-1.85296 z m 364.10763,-3.19118 c -6.145,-8.1709 -7.3004,-10.48652 -4.40349,-8.82543 4.38189,2.51265 9.30684,7.20759 11.12568,10.60615 2.82817,5.28448 -2.46283,3.88286 -6.72219,-1.78072 z m 721.72994,1.44758 c 0,-1.97811 0.8368,-4.1138 1.8595,-4.74598 1.0231,-0.63215 1.4037,-2.97442 0.8462,-5.20502 -1.0478,-4.19197 -0.6344,-4.53332 13.6503,-11.26974 9.4292,-4.4467 7.3136,-9.07179 -4.9574,-10.83773 -18.4703,-2.65815 -37.7367,-19.00346 -49.1051,-41.66005 -13.791,-27.48467 -18.8559,-68.31307 -15.2347,-122.80512 1.2713,-19.12839 7.3841,-58.05079 10.3369,-65.81705 1.0114,-2.66029 1.839,-7.10239 1.839,-9.87133 0,-2.76895 1.2645,-9.5938 2.8101,-15.16633 1.5455,-5.57254 3.2197,-11.95413 3.7204,-14.18133 0.5007,-2.22719 2.5716,-7.92469 4.6018,-12.66112 2.0303,-4.73645 3.6913,-10.21022 3.6913,-12.16401 0,-1.95378 0.7411,-3.55229 1.6467,-3.55229 0.9059,0 2.2137,-3.02108 2.9063,-6.71348 1.2134,-6.46828 1.8813,-8.29347 6.0399,-16.50939 1.0487,-2.07173 2.4976,-6.45662 3.2195,-9.74424 0.7222,-3.28762 2.079,-5.50409 3.0151,-4.92549 0.9363,0.57862 1.7024,-0.27565 1.7024,-1.8984 0,-8.19872 13.6977,-27.42396 17.1089,-24.01282 0.5057,0.50576 2.9084,-1.17686 5.3391,-3.73913 5.313,-5.60016 6.752,-5.71483 12.7582,-1.01675 4.8649,3.80539 11.1177,4.9185 11.1177,1.97914 0,-3.05044 10.9544,-9.71222 13.4214,-8.16214 3.1432,1.97482 14.5324,2.08613 18.5423,0.18122 1.7835,-0.84724 3.2426,-2.69236 3.2426,-4.10027 0,-3.94043 4.0261,-4.44511 10.625,-1.33188 5.2307,2.46782 6.6438,2.49131 11.1176,0.18493 2.8191,-1.45324 5.6314,-3.33316 6.2495,-4.17755 1.4321,-1.95624 20.1417,7.94101 22.6553,11.98454 1.355,2.17989 1.0882,4.70251 -0.9407,8.8914 l -2.8321,5.84812 -6.2975,-6.11197 c -5.4845,-5.32327 -7.4928,-6.09357 -15.5621,-5.96932 -12.0733,0.18588 -16.1195,1.63964 -24.0124,8.62751 -6.3956,5.66215 -13.9733,17.79791 -13.9733,22.37824 0,1.27234 -1.7403,3.5397 -3.8674,5.0386 -2.1271,1.49891 -5.5279,5.94734 -7.5573,9.88543 -2.0297,3.93809 -5.2923,7.57914 -7.2504,8.09122 -1.9583,0.51207 -3.5869,2.29299 -3.6195,3.95761 -0.1414,7.27227 -11.7371,14.56961 -26.6582,16.77638 -8.3231,1.231 -10.039,3.89182 -5.4612,8.46945 2.515,2.51508 5.5117,3.02557 14.1094,2.40368 9.8869,-0.71516 11.2566,-0.35703 14.5251,3.79832 2.3896,3.03779 3.1764,5.89822 2.329,8.46595 -0.704,2.13292 -1.1416,5.79285 -0.9727,8.1332 0.169,2.34033 -0.8897,6.09259 -2.3527,8.33834 -3.3444,5.13356 -3.1808,26.7131 0.2415,31.82669 1.3451,2.01024 2.4587,2.84407 2.4743,1.85296 0.016,-1.06972 0.5815,-1.02433 1.3896,0.11174 0.7488,1.05255 5.665,4.63574 10.9249,7.96258 12.3424,7.80656 14.4846,12.73792 5.0524,11.62969 -1.1335,-0.13321 -4.4688,1.01364 -7.4118,2.54849 -2.9431,1.53484 -6.3934,2.79577 -7.6672,2.80205 -1.2739,0.006 -3.984,1.67906 -6.0223,3.71734 -2.0382,2.03825 -4.9566,3.70593 -6.4853,3.70593 -2.7273,0 -3.7956,6.07511 -3.3393,18.9929 0.099,2.8026 -0.6051,5.09565 -1.5643,5.09565 -0.9594,0 -1.5537,1.04229 -1.3207,2.31619 0.2331,1.27393 -0.144,6.48538 -0.8379,11.58102 -3.0973,22.7459 -3.2017,47.67593 -0.2433,58.14923 4.0587,14.36936 8.1884,18.98483 16.9606,18.95608 10.5475,-0.0346 17.9252,-2.71648 19.9685,-7.25872 1.006,-2.23648 3.3483,-4.06631 5.2049,-4.06631 1.8568,0 2.8607,-0.83384 2.2308,-1.85298 -0.6298,-1.01913 -0.4341,-1.85297 0.4351,-1.85297 2.5837,0 14.738,-27.77195 17.8408,-40.76522 1.5818,-6.62435 3.3954,-16.63037 4.0303,-22.23557 1.4325,-12.64852 5.8846,-22.02729 9.9514,-20.96375 7.3365,1.9185 14.1442,-23.40659 10.3112,-38.35783 -1.1719,-4.57141 -3.5165,-10.98018 -5.2099,-14.24176 -3.4527,-6.64957 -3.9954,-11.67304 -1.2614,-11.67304 2.0899,0 4.782,-8.8415 3.9493,-12.97074 -0.3083,-1.5287 0.047,-2.18201 0.789,-1.45181 0.7421,0.73022 4.9433,-1.25329 9.3359,-4.40775 5.339,-3.83426 9.0962,-5.314 11.3342,-4.46404 6.9319,2.63257 20.8351,13.27753 23.1636,17.73546 1.3309,2.54782 4.1331,7.21879 6.2271,10.37994 2.094,3.16116 4.9638,10.66566 6.3773,16.6767 1.4133,6.011 3.3821,11.48072 4.3751,12.15488 1.6992,1.15382 2.1784,29.24122 0.7061,41.39243 -1.8908,15.60384 -13.1227,57.07836 -16.5348,61.05521 -0.8308,0.96818 -1.5104,3.26121 -1.5104,5.09565 0,1.83443 -0.9311,3.33534 -2.0692,3.33534 -1.1567,0 -1.6418,1.63397 -1.0999,3.70592 0.533,2.03828 0.2134,3.70593 -0.7103,3.70593 -0.9237,0 -1.7381,1.45921 -1.8098,3.24269 -0.1111,2.76443 -0.342,2.70067 -1.5655,-0.43234 -1.1793,-3.01943 -1.6793,-2.37519 -2.8023,3.61129 -1.2507,6.6664 -6.6178,17.19084 -6.6212,12.98357 -8e-4,-0.99113 -1.7556,1.74177 -3.8996,6.07307 -2.1438,4.33129 -5.0617,7.87511 -6.4839,7.87511 -1.4222,0 -2.5858,1.48357 -2.5858,3.29686 0,1.81327 -1.6677,4.49885 -3.7059,5.96796 -2.0381,1.46908 -3.7058,3.65136 -3.7058,4.84952 0,1.19813 -3.1271,4.7879 -6.9486,7.9773 -3.8219,3.18934 -8.2694,7.028 -9.8836,8.53028 -1.6142,1.5023 -3.9072,2.73144 -5.0957,2.73144 -1.1884,0 -2.1607,0.71936 -2.1607,1.59858 0,1.87629 -19.9415,11.78172 -30.4435,15.12211 -4.0046,1.27378 -12.5516,2.36631 -18.9929,2.42783 -9.5165,0.0909 -11.7115,0.67471 -11.7115,3.11489 0,2.32675 1.5492,2.88104 6.879,2.46131 3.7833,-0.29796 8.0704,-0.99902 9.5268,-1.55786 2.1742,-0.83432 2.2291,-0.51122 0.306,1.80576 -1.9241,2.31848 -1.8351,2.82184 0.4992,2.82184 2.6317,0 8.7088,10.50129 11.3856,19.67488 1.1036,3.78133 0.5179,3.93735 -16.0387,4.27232 l -17.1841,0.3477 4.0886,-3.80909 c 4.0621,-3.78439 9.0951,-5.309 7.1533,-2.16682 -0.8761,1.41728 4.4664,3.81473 8.6712,3.89129 2.9439,0.0535 1.2069,-8.57256 -2.3374,-11.60716 -4.1038,-3.51392 -12.9495,-4.34279 -12.9495,-1.21341 0,1.15693 -1.5922,1.47251 -3.8359,0.76035 -2.9044,-0.92183 -4.0818,-0.2771 -4.8486,2.65458 -0.5569,2.12962 -1.7491,3.87206 -2.6495,3.87206 -0.9002,0 -1.6367,1.66766 -1.6367,3.70593 0,3.00004 -1.2354,3.70592 -6.4855,3.70592 -5.1843,0 -6.4852,-0.72151 -6.4852,-3.59657 z m 390.3146,0.79354 c 0.5914,-1.54169 0.045,-4.04527 -1.2154,-5.56352 -7.5034,-9.04102 13.038,-31.79451 26.3979,-29.24061 2.7852,0.53244 6.5371,0.34938 8.3374,-0.40679 1.8007,-0.75619 5.3001,-1.51023 7.7771,-1.67564 2.4768,-0.16549 4.8359,-1.29838 5.2421,-2.51769 0.7191,-2.15705 13.4167,9.76224 13.4167,12.59423 0,0.75294 2.5766,2.43628 5.726,3.74078 4.7822,1.98083 5.6034,3.20801 4.9814,7.44452 -0.4952,3.37447 -0.018,4.79088 1.4496,4.23084 1.4619,-0.56095 1.8953,0.71977 1.2991,3.83813 -0.9011,4.71475 -6.2686,7.87809 -9.7336,5.73661 -1.0283,-0.63549 -1.8697,0.14453 -1.8697,1.73336 0,1.93671 -1.7302,2.8888 -5.2499,2.8888 -6.8025,0 -8.4782,-1.80777 -4.4494,-4.7992 3.0221,-2.24365 2.9635,-2.86467 -0.978,-10.39558 -2.5426,-4.85761 -6.3964,-8.98512 -9.7938,-10.48891 -5.7863,-2.56129 -14.7352,-1.57108 -14.7352,1.63046 0,0.9997 -1.2684,1.81767 -2.8191,1.81767 -4.681,0 -7.3573,8.32034 -5.0717,15.76784 l 1.9852,6.46772 -10.8863,0 c -8.9561,0 -10.6955,-0.49698 -9.8104,-2.80302 z m 63.6618,-17.47022 c 0,-2.51496 -3.2696,-4.16739 -4.454,-2.25101 -1.1076,1.79187 0.4971,3.99461 2.9098,3.99461 0.8493,0 1.5442,-0.78463 1.5442,-1.7436 z m 3.7057,19.54502 c 0,-0.40053 1.2508,-1.2082 2.7795,-1.79482 1.5287,-0.58661 2.7795,-0.25891 2.7795,0.72822 0,0.98715 -1.2508,1.79482 -2.7795,1.79482 -1.5287,0 -2.7795,-0.3277 -2.7795,-0.72822 z m -34.0814,-4.05574 c -2.4585,-6.4069 0.3163,-8.59557 5.1607,-4.07033 1.9671,1.83766 1.9771,2.70917 0.054,4.63242 -3.0711,3.07103 -3.853,2.98677 -5.2148,-0.56209 z m -433.3676,-5.60035 c -0.7429,-0.74313 -1.351,-2.62966 -1.351,-4.19235 0,-2.08568 0.5482,-2.29302 2.0615,-0.77978 1.1336,1.13377 1.7416,3.02034 1.3511,4.19233 -0.3907,1.17199 -1.3183,1.52291 -2.0616,0.7798 z m 133.9155,-7.99377 c 0,-0.9358 -0.4722,-2.93177 -1.0492,-4.43549 -0.6903,-1.79857 0.9923,-3.75251 4.9172,-5.71046 7.112,-3.54802 8.7804,-3.76578 5.7674,-0.7528 -1.2231,1.22296 -2.2237,4.55828 -2.2237,7.41184 0,3.95301 -0.8822,5.18831 -3.7059,5.18831 -2.0381,0 -3.7058,-0.76563 -3.7058,-1.7014 z m -123.6854,-3.35837 c -1.274,-0.44438 -2.3162,-1.98922 -2.3162,-3.43297 0,-1.44378 -1.2015,-2.62506 -2.6702,-2.62506 -1.4684,0 -3.2606,-0.95542 -3.9823,-2.1232 -0.928,-1.50164 0.1704,-1.75111 3.7518,-0.85219 3.316,0.83224 4.6531,0.6057 3.873,-0.65626 -0.6752,-1.09231 0.4365,-1.92723 2.566,-1.92723 2.4577,0 3.4131,0.89651 2.7624,2.59202 -0.5469,1.42562 -0.1048,3.14249 0.9847,3.81529 4.3103,2.66377 0.1714,7.00274 -4.9692,5.2096 z m 141.7042,-1.933 c -5.8122,-3.60274 -5.9759,-8.48527 -0.3123,-9.29992 3.5891,-0.51622 10.6814,-10.75652 9.98,-14.40981 -1.1835,-6.16632 5.2533,-7.15764 17.2538,-2.65718 5.6764,2.12876 6.7518,3.30559 5.8506,6.40289 -1.0183,3.50038 -0.867,3.47134 1.9521,-0.37445 3.1043,-4.23478 8.4047,-5.69554 8.4047,-2.31619 0,1.01912 1.4594,1.84019 3.2428,1.82459 2.3672,-0.0207 2.6049,-0.4332 0.8795,-1.52808 -3.3723,-2.1402 -4.1821,-11.9096 -1.2152,-14.65999 2.0199,-1.87245 3.141,-1.65758 5.8196,1.1153 4.1222,4.26753 11.791,6.49133 10.4645,3.03457 -0.5027,-1.31026 0.106,-3.01239 1.3515,-3.78251 1.5304,-0.94586 1.7883,-0.62805 0.7948,0.97945 -0.9682,1.56659 -0.6216,2.09663 1.0145,1.55131 2.9353,-0.97851 9.3793,4.03408 8.0178,6.23699 -0.5177,0.83734 -0.058,1.52244 1.0213,1.52244 1.0793,0 1.9624,0.92663 1.9624,2.05917 0,1.3498 -2.2343,1.64004 -6.4855,0.84252 -5.1388,-0.96406 -6.4852,-0.62215 -6.4852,1.64676 0,1.91917 -1.7584,2.8634 -5.3322,2.8634 -2.9326,0 -6.436,1.33044 -7.7855,2.9565 -1.8001,2.16888 -4.2881,2.66319 -9.339,1.85549 -5.997,-0.95895 -7.3788,-0.44387 -10.7091,3.99212 -2.7483,3.66067 -4.2479,4.45328 -5.3323,2.81812 -1.1167,-1.68395 -2.1947,-1.32292 -4.1499,1.38973 -1.4527,2.01562 -3.606,3.66473 -4.7849,3.66473 -1.1789,0 -3.1815,1.25075 -4.4502,2.77944 -2.9425,3.54545 -5.2532,3.44464 -11.6286,-0.50739 z M 95.643176,771.98518 c -1.528696,-0.98025 -4.939264,-1.79506 -7.579183,-1.81065 -8.732468,-0.0517 -27.047728,-10.8287 -36.581413,-21.52534 -11.345703,-12.72951 -22.73384,-33.54842 -29.097111,-53.19288 -2.704217,-8.34842 -5.827574,-17.26354 -6.940836,-19.81136 -1.113262,-2.54783 -2.253575,-6.30008 -2.534116,-8.33834 C 12.629979,665.26835 10.714013,655.26234 8.6527748,645.07104 6.3643632,633.75622 4.4207883,614.45651 3.6608873,595.50421 2.9764022,578.43378 1.6635764,564.46705 0.74339409,564.46705 c -0.92018237,0 -1.18978876,-0.78185 -0.59924886,-1.73746 1.07249607,-1.73529 3.39444637,-45.59751 3.02848587,-57.20839 -0.1204429,-3.79317 0.5382863,-5.68415 1.7227014,-4.9521 1.206095,0.74537 1.8249853,-1.44411 1.6700774,-5.90792 -0.3372396,-9.7124 2.2026192,-28.40125 3.8597251,-28.40125 1.269838,0 3.84342,-13.73669 3.898453,-20.80938 0.01853,-1.7634 0.805854,-3.68875 1.760132,-4.27852 0.954278,-0.58978 1.734932,-2.94834 1.734932,-5.24123 0,-2.29289 1.224253,-5.78747 2.720521,-7.76573 1.496269,-1.97826 2.747022,-5.42375 2.779448,-7.65665 0.03149,-2.23289 0.89276,-4.57516 1.91189,-5.20502 1.019131,-0.62986 1.852968,-2.67445 1.852968,-4.54352 0,-1.8691 1.303562,-3.89857 2.896926,-4.50998 1.593363,-0.6114 2.4007,-1.91458 1.794227,-2.89593 -2.272293,-3.67641 21.99358,-29.26699 33.796035,-35.64137 11.68109,-6.30877 31.76779,-8.62204 44.436693,-5.11751 11.11649,3.0751 27.13,16.52745 32.96573,27.69329 2.39681,4.58608 8.36261,12.42069 13.25704,17.41021 11.83598,12.06556 15.35218,17.60964 15.40036,24.28149 0.0222,3.0574 1.24167,8.89423 2.71033,12.97075 4.94538,13.72697 4.50362,14.13294 -22.18221,20.38886 -7.13392,1.67239 -15.9405,4.16164 -19.57028,5.53171 -6.01046,2.2687 -6.79593,2.17633 -8.80158,-1.03513 -1.21109,-1.93934 -2.20207,-5.17376 -2.20207,-7.18762 0,-7.80668 -7.76485,-24.33283 -13.34932,-28.41174 -3.09462,-2.26039 -6.36011,-3.90134 -7.25638,-3.64656 -0.89647,0.2548 -1.629876,-0.37058 -1.629876,-1.38972 0,-2.67871 -6.784629,-2.27492 -12.599419,0.74989 -5.819606,3.02729 -13.336899,11.21883 -13.353391,14.55118 0,1.26614 -1.32487,4.80361 -2.93028,7.861 -5.098803,9.71055 -8.069105,20.16399 -6.97178,24.5358 0.58424,2.3283 0.08893,5.4064 -1.101217,6.84025 -1.351552,1.62852 -2.363271,12.09638 -2.695508,27.89023 -0.475285,22.58895 -0.153795,25.76412 3.017552,29.79582 3.460599,4.39936 7.906603,5.91701 9.148459,3.12288 1.144763,-2.57572 13.520346,-10.84695 22.853172,-15.27396 5.870748,-2.78479 13.852388,-4.68728 21.787728,-5.1933 16.46211,-1.04971 28.66553,4.63026 42.14345,19.61533 19.78559,21.99841 26.89339,47.40138 26.80962,95.81638 -0.0296,17.32523 -0.64205,34.41882 -1.35988,37.98578 -0.71803,3.56696 -2.1791,11.375 -3.24695,17.35122 -1.06786,5.97622 -3.5829,14.26273 -5.58874,18.41444 -2.00601,4.15175 -3.64717,9.47659 -3.64717,11.833 0,2.57302 -1.11012,4.28436 -2.77946,4.28436 -1.5287,0 -2.77945,1.14866 -2.77945,2.55257 0,1.40391 -1.27077,3.60732 -2.8241,4.89646 -1.55334,1.28915 -2.43071,2.73742 -1.94988,3.2184 1.29262,1.29247 -13.74788,16.86364 -19.22654,19.90501 -11.73688,6.51558 -20.22845,9.74377 -28.80897,10.95211 -5.09566,0.71761 -10.51559,1.65512 -12.04428,2.08336 -1.528693,0.42827 -4.030201,-0.0234 -5.558894,-1.00366 z m 14.360484,-66.41433 c 7.25249,-7.66564 9.03895,-10.98092 11.64014,-21.60005 3.32255,-13.56374 3.75447,-61.15122 0.61536,-67.79679 -1.15772,-2.45099 -3.14837,-7.94273 -4.42357,-12.20389 -1.31432,-4.39144 -5.37657,-10.73342 -9.37769,-14.64038 -9.395629,-9.17473 -20.365927,-9.98773 -32.33608,-2.39642 -10.13646,6.42826 -11.898259,9.82038 -11.001794,21.18213 0.397647,5.03861 1.155695,15.89762 1.684531,24.13117 1.520357,23.66527 9.050992,55.16068 15.644767,65.4314 6.561905,10.22111 21.345226,14.45575 27.554336,7.89283 z m 1494.89804,66.4585 c -0.64,-1.03576 0.1361,-1.8832 1.7251,-1.8832 3.2547,0 3.734,1.11191 1.1638,2.70032 -0.9487,0.58634 -2.2487,0.21863 -2.8889,-0.81712 z M 272.20498,765.72474 c -21.11064,-6.92124 -38.81998,-23.70515 -50.4101,-47.77591 -9.98581,-20.73869 -15.65013,-38.44067 -13.34654,-41.70916 1.66582,-2.36324 24.20342,-15.41845 26.61748,-15.41845 1.12048,0 3.49283,-1.3172 5.27186,-2.92712 2.47001,-2.23527 4.09951,-2.46414 6.89471,-0.96827 4.83235,2.58622 13.32467,12.77331 13.32467,15.98379 0,3.60059 8.7232,19.55843 12.73414,23.29509 18.0866,16.8503 37.86902,9.18066 47.51223,-18.42055 6.41885,-18.37205 7.62884,-37.49535 3.75985,-59.42224 -3.20988,-18.19219 -5.7099,-24.68151 -13.53072,-35.12218 -5.36895,-7.16767 -20.14543,-14.63752 -23.1035,-11.67941 -1.03507,1.03508 -2.99069,1.45654 -4.34576,0.93654 -2.89489,-1.1109 -19.81135,15.61804 -18.2871,18.08444 0.57125,0.92411 0.15565,1.68021 -0.9239,1.68021 -1.07916,0 -1.96228,1.20155 -1.96228,2.67008 0,1.46855 -0.8266,3.18103 -1.83704,3.80551 -2.08143,1.28636 -22.3799,-9.5813 -35.85931,-19.19871 l -8.97538,-6.40387 0.85791,-26.35405 c 0.47196,-14.49473 1.29801,-27.0763 1.83575,-27.95905 0.53772,-0.88273 1.61632,-12.44483 2.3968,-25.69352 0.78064,-13.2487 1.71993,-27.84079 2.08736,-32.42687 0.36745,-4.5861 1.11567,-28.74789 1.66268,-53.69284 0.54699,-24.94499 1.23981,-45.59975 1.53943,-45.89948 0.9678,-0.96767 126.24621,-3.0767 143.40301,-2.41415 2.7911,0.10782 11.29046,17.6756 12.30182,25.42736 0.37596,2.88197 1.24593,7.44204 1.93337,10.13347 0.73581,2.88192 0.41563,5.40889 -0.77898,6.14726 -5.25425,3.24729 -27.92102,7.91504 -35.79428,7.37104 -6.67178,-0.46101 -8.80157,0.0316 -8.80157,2.03575 0,1.45413 2.02972,3.15331 4.51048,3.77596 7.33922,1.84199 11.4654,17.7715 5.22388,20.16662 -1.78013,0.68307 -15.74687,1.26135 -31.03716,1.28506 -15.29049,0.0237 -31.4248,0.59634 -35.85432,1.2725 -7.3472,1.12154 -8.27924,1.87957 -10.62657,8.64124 -1.41529,4.07653 -2.58563,10.88617 -2.601,15.13256 -0.0186,4.24637 -0.99615,8.04338 -2.17945,8.43783 -2.08755,0.69587 -2.56081,11.25981 -1.27987,28.57403 0.31224,4.2203 -0.62555,9.90296 -2.08402,12.62815 -5.52535,10.324 6.1259,16.04869 15.91122,7.81776 3.065,-2.57814 10.10812,-5.48556 16.47212,-6.7997 6.11478,-1.26267 11.73038,-3.24078 12.47917,-4.39577 0.99466,-1.53419 1.36897,-1.53975 1.38973,-0.0205 0.0184,1.14366 3.53674,2.6404 7.8247,3.32606 13.64264,2.18155 23.74742,7.98797 34.5715,19.86562 5.68898,6.24284 11.1995,12.79406 12.2457,14.55823 11.44372,19.29953 14.15813,23.67163 16.63314,26.79108 2.94768,3.71498 3.19524,4.71054 3.93865,15.83657 0.23829,3.56695 1.77126,11.07145 3.40668,16.67668 2.98995,10.24858 4.53586,24.69792 5.30337,49.56834 0.38227,12.39197 -0.2785,14.33435 -4.64853,13.66275 -0.74638,-0.11469 -1.85834,2.07959 -2.47093,4.87622 -0.61258,2.79664 -1.43494,6.1271 -1.8274,7.401 -1.16255,3.77381 -6.99031,2.65273 -12.42987,-2.39119 -4.60332,-4.26851 -5.92412,-4.36533 -5.29615,-0.38825 0.35226,2.23102 -2.34029,1.61495 -6.89988,-1.57873 -5.54722,-3.88539 -6.91193,-2.21232 -3.97628,4.87481 2.57489,6.21663 11.64812,13.99014 17.58094,15.06281 3.0926,0.55913 3.79394,2.35385 4.23772,10.84332 l 0.53162,10.17329 -13.96265,14.82373 c -7.67942,8.15303 -13.96394,15.3929 -13.96561,16.08857 -0.002,0.69567 -1.81517,1.84 -4.03001,2.54293 -2.21467,0.70294 -4.92462,2.02533 -6.02214,2.93865 -9.14474,7.61084 -11.1732,9.00376 -13.11176,9.00376 -1.21628,0 -4.93964,1.36107 -8.27423,3.0246 -8.24866,4.11494 -35.55302,5.19782 -45.8594,1.81878 z M 377.29384,673.1502 c 0,-2.03168 -6.06531,-12.29557 -8.42153,-14.25102 -4.19789,-3.48389 -4.92482,-1.22596 -1.87076,5.81082 1.50443,3.4664 2.79335,5.46871 2.8643,4.44957 0.0704,-1.01913 0.97875,-0.39375 2.01752,1.38973 1.608,2.76056 5.41047,4.5885 5.41047,2.6009 z M 335.85858,422.71525 c -0.58665,-1.52868 -0.28516,-2.77943 0.67004,-2.77943 0.9552,0 1.33098,-1.0423 0.83512,-2.31623 -1.25408,-3.22247 -9.84721,-7.00371 -11.14465,-4.90414 -1.37416,2.22327 0.9791,9.62746 3.61069,11.36117 3.60865,2.37727 7.15615,1.57624 6.0288,-1.36137 z M 1803.1728,766.47661 c -0.752,-1.2167 -3.1058,-1.75754 -5.2308,-1.20184 -2.125,0.55571 -4.8929,0.15621 -6.1508,-0.88785 -1.258,-1.04401 -6.0474,-2.20462 -10.6434,-2.57913 -4.5959,-0.3745 -10.1374,-1.6342 -12.3145,-2.79932 -2.1771,-1.16514 -5.22,-1.63428 -6.762,-1.04256 -1.5419,0.59176 -5.4375,-0.0607 -8.6569,-1.44985 -3.2191,-1.38919 -7.9377,-3.38618 -10.4854,-4.43777 -5.4061,-2.23127 -25.9414,-20.41095 -25.9414,-22.96549 0,-0.9569 -1.6095,-3.46726 -3.5765,-5.57862 -4.9817,-5.34713 -16.626,-33.08674 -17.9531,-42.76803 l -1.0997,-8.02391 9.7742,-5.31981 c 9.2334,-5.02544 13.7679,-8.19009 19.4149,-13.54982 1.3421,-1.27392 3.1693,-2.31619 4.0605,-2.31619 0.8911,0 5.0319,-2.50906 9.202,-5.57566 4.17,-3.0666 8.7117,-5.13813 10.0931,-4.6034 4.3999,1.70335 11.2748,13.59899 12.9061,22.33173 1.8665,9.99029 6.8743,21.20069 9.4709,21.20069 1.012,0 1.36,-1.25075 0.7734,-2.77946 -1.3367,-3.48359 0.8991,-3.50773 9.0601,-0.0978 6.6334,2.77165 21.2574,3.20547 21.2574,0.63058 0,-0.80256 2.3724,-1.45923 5.2718,-1.45923 2.9184,0 6.7688,-1.65428 8.6255,-3.70593 1.8445,-2.03825 4.7361,-3.70592 6.4258,-3.70592 6.3774,0 16.1456,-14.06774 20.586,-29.64744 1.3073,-4.5861 2.9669,-9.17217 3.6885,-10.1913 2.3793,-3.36133 3.9493,-21.14794 2.6807,-30.37155 -0.899,-6.53686 -2.8116,-10.6634 -6.8627,-14.80718 -3.0892,-3.15961 -6.4853,-5.208 -7.5466,-4.55195 -1.2485,0.77166 -1.0041,1.91069 0.6924,3.22614 5.9276,4.59611 12.7566,20.28891 7.3844,16.96864 -1.8131,-1.12053 -5.7394,8.49942 -5.7394,14.06219 0,1.88618 -0.7435,3.42942 -1.6522,3.42942 -0.9086,0 -2.2006,2.18532 -2.8709,4.85626 -0.6702,2.67094 -2.4284,6.06583 -3.9067,7.54421 -1.4785,1.47838 -2.688,4.29606 -2.688,6.26156 0,1.96544 -1.6676,5.24123 -3.706,7.27948 -3.973,3.97309 -10.4098,5.20484 -8.1578,1.56109 0.9166,-1.48344 0.034,-1.80711 -2.8626,-1.04961 -3.6405,0.95203 -4.0756,0.50564 -3.3261,-3.41408 0.4739,-2.48008 0.2775,-4.50925 -0.4367,-4.50925 -2.0041,0 -5.7826,-9.3221 -4.5724,-11.28024 0.5905,-0.95575 -0.2326,-4.35671 -1.8296,-7.55769 -3.9885,-7.99533 -3.6608,-9.54843 1.729,-8.19565 3.4185,0.858 4.6326,0.42506 4.6326,-1.65208 0,-1.54811 0.8338,-2.81475 1.8529,-2.81475 1.019,0 1.8529,-1.16154 1.8529,-2.5812 0,-1.41967 1.3446,-3.09719 2.9882,-3.72784 2.4663,-0.94636 2.5749,-1.64473 0.6219,-3.99799 -1.9907,-2.39855 -1.7297,-3.01781 1.6441,-3.90011 2.2058,-0.57684 4.1074,-2.41076 4.2257,-4.07537 0.1834,-2.57001 0.3427,-2.5374 1.0623,0.2161 0.4662,1.78349 1.6693,3.2427 2.6737,3.2427 1.0048,0 1.3112,-0.83384 0.6814,-1.85297 -0.6298,-1.01913 -0.054,-1.86574 1.2804,-1.88133 1.932,-0.0226 1.9141,-0.3524 -0.088,-1.62135 -1.8355,-1.1631 -1.9365,-1.94999 -0.3732,-2.91605 1.6156,-0.99849 1.6084,-1.96445 -0.03,-3.93755 -1.5971,-1.92539 -6.9578,-2.61448 -20.3393,-2.61448 -14.048,0 -18.8311,-0.66061 -21.0821,-2.9118 -3.629,-3.62897 -3.7349,-14.01644 -0.2969,-29.13426 1.4379,-6.32424 3.6312,-17.33545 4.8739,-24.46936 1.2424,-7.13391 3.0862,-14.01304 4.0973,-15.28697 1.3307,-1.67669 0.8804,-2.3672 -1.6311,-2.5009 -8.9458,-0.47623 7.0154,-3.16792 19.785,-3.33654 7.6945,-0.10159 14.7821,-0.8807 15.7503,-1.73139 0.9681,-0.85067 5.6966,-2.99496 10.5079,-4.76505 9.7372,-3.58241 17.4964,-10.10391 22.8041,-19.16652 1.9399,-3.31217 4.0801,-6.02214 4.7558,-6.02214 0.6758,0 2.2479,-2.70996 3.4934,-6.02211 1.2455,-3.31218 3.223,-8.02409 4.3938,-10.47091 3.1091,-6.496 2.7378,-40.55392 -0.5191,-47.62603 -3.0963,-6.72357 -13.1889,-14.23062 -18.0541,-13.42919 -1.8624,0.30675 -4.5216,-0.1536 -5.9093,-1.02313 -1.4919,-0.9346 -3.0145,-0.78634 -3.7245,0.36257 -0.6607,1.06889 -3.5694,2.53784 -6.4639,3.26431 -2.8948,0.72651 -8.0143,4.07235 -11.3773,7.43526 -3.3628,3.36289 -6.6146,5.61406 -7.2262,5.00258 -0.6113,-0.61148 -1.1117,0.17584 -1.1117,1.74961 0,1.57375 -1.3376,3.97151 -2.9726,5.32833 -3.4093,2.82966 -7.0644,10.79137 -6.5118,14.18444 0.2061,1.26521 -2.6867,5.36189 -6.4286,9.10372 -5.5319,5.53198 -7.3643,6.41618 -9.8057,4.73157 -1.6513,-1.13949 -7.5883,-4.70473 -13.1934,-7.92275 -5.6054,-3.21803 -14.7774,-9.22622 -20.3828,-13.35154 -5.6052,-4.12534 -10.296,-7.57519 -10.4243,-7.66636 -0.1283,-0.0911 -0.8083,-2.25035 -1.511,-4.79818 -1.0292,-3.72988 -0.8621,-4.09088 0.857,-1.85296 1.7643,2.29673 1.9763,2.05536 1.2213,-1.38973 -0.5025,-2.29305 -0.1581,-4.16918 0.7657,-4.16918 0.9237,0 1.6795,-0.91076 1.6795,-2.02394 0,-1.11316 1.6257,-4.09064 3.6125,-6.61663 1.987,-2.52596 4.9185,-9.08436 6.5145,-14.57418 2.6705,-9.18613 3.4234,-10.07943 9.449,-11.20985 5.3528,-1.00418 6.7457,-2.21958 7.6341,-6.66111 0.6298,-3.14992 3.706,-7.43094 7.3208,-10.18794 3.4289,-2.61533 6.2344,-5.90693 6.2344,-7.31467 0,-1.49484 1.9269,-2.55951 4.6323,-2.55951 2.5479,0 4.6325,-0.63029 4.6325,-1.40066 0,-0.77034 2.7099,-2.56897 6.0221,-3.99695 3.3122,-1.42798 8.2354,-4.13302 10.9407,-6.01123 2.705,-1.87818 6.2602,-3.41489 7.9,-3.41489 1.6402,0 4.4297,-0.74825 6.1996,-1.66274 11.8774,-6.13804 20.4507,-8.42585 29.6785,-7.91987 6.0435,0.33138 9.5986,-0.15416 8.9394,-1.22088 -1.4603,-2.36295 9.3008,0.1186 16.4826,3.80099 6.9745,3.5762 17.1193,5.94112 23.1619,5.39944 3.6845,-0.33032 4.0639,-0.025 1.8529,1.49199 -1.5287,1.04902 -1.9038,1.92005 -0.8337,1.93566 1.0701,0.0149 2.8147,-0.8408 3.8771,-1.90312 1.34,-1.34003 2.6579,-1.05629 4.3033,0.92649 1.3046,1.57188 3.0648,2.85798 3.9119,2.85798 3.1403,0 18.8341,17.68082 22.9353,25.83938 10.5004,20.88804 12.6558,30.23398 11.4393,49.60218 -0.6264,9.97325 -1.1104,21.26004 -1.0754,25.08178 0.037,4.06283 -0.8268,6.94862 -2.0806,6.94862 -1.2319,0 -1.7316,1.57676 -1.1752,3.70593 0.5332,2.03825 0.165,3.70592 -0.8194,3.70592 -0.9839,0 -1.3277,0.74648 -0.7637,1.6588 0.5638,0.91234 -0.1429,2.10676 -1.5687,2.65426 -1.427,0.54748 -3.1777,3.76174 -3.8911,7.14277 -0.7131,3.38104 -2.3547,8.64885 -3.6479,11.70622 -1.2929,3.05739 -3.3649,9.24205 -4.604,13.74371 -1.239,4.50164 -4.6792,10.61107 -7.6447,13.57652 -2.9654,2.96545 -5.3916,6.1793 -5.3916,7.14188 0,0.9626 -2.1082,2.71074 -4.6849,3.88478 -3.3987,1.54851 -4.0347,2.54739 -2.3164,3.63782 1.7342,1.10037 1.4998,1.51082 -0.8738,1.5316 -1.7835,0.0149 -3.2426,1.29261 -3.2426,2.8378 0,1.54519 -2.9691,4.22522 -6.5978,5.95566 -4.7752,2.27717 -6.3569,4.06702 -5.726,6.47966 0.5302,2.02712 -0.5152,4.07558 -2.6672,5.22731 -2.7685,1.48181 -3.5387,1.27492 -3.5387,-0.95075 0,-3.55163 -2.5688,-3.66814 -5.4094,-0.24538 -1.6568,1.99641 -1.6022,2.80132 0.2364,3.47049 1.3164,0.47918 -1.1984,0.71763 -5.5884,0.52991 -4.39,-0.18774 -8.3223,0.20952 -8.7383,0.88273 -1.3525,2.18827 20.7006,18.45912 25.0188,18.45912 1.041,0 1.8928,0.75727 1.8928,1.68284 0,0.92552 3.7507,4.05241 8.3349,6.94861 4.5843,2.89618 8.3365,6.52832 8.3383,8.0714 0,1.54307 1.5077,6.96301 3.3459,12.04428 2.4397,6.74263 3.2434,13.74426 2.9754,25.91535 -0.4771,21.6771 -2.1434,34.69804 -4.6375,36.23945 -1.0999,0.67977 -1.7682,2.81 -1.4849,4.73382 0.5529,3.75766 0,6.03244 -6.2462,25.27021 -2.2301,6.87914 -4.6994,12.50753 -5.4873,12.50753 -0.7881,0 -1.4329,1.25075 -1.4329,2.77945 0,1.52868 -1.1167,2.77943 -2.4819,2.77943 -2.5938,0 -6.7828,7.49234 -6.7828,12.13146 0,1.48075 -0.9525,2.69227 -2.1167,2.69227 -1.1639,0 -4.7078,2.50839 -7.8751,5.57422 -6.3189,6.11683 -21.694,20.09358 -25.6962,23.35933 -1.3922,1.13604 -4.4436,3.08907 -6.781,4.34003 -3.5281,1.88813 -4.0518,3.2684 -3.0839,8.12575 1.1499,5.77244 1.1261,5.79511 -1.7609,1.68211 -3.6946,-5.26376 -6.2195,-5.23056 -16.0845,0.21132 -4.3674,2.40926 -11.0754,5.39488 -14.9064,6.63471 -3.8313,1.23982 -6.4885,3.02673 -5.9049,3.97092 0.5837,0.94419 -0.451,2.27539 -2.2989,2.9582 -1.8482,0.68283 -3.8816,2.0167 -4.5183,2.96419 -0.6671,0.99221 -1.7378,0.78464 -2.5254,-0.48952 z m 13.8749,-127.89096 c 0,-1.01914 -0.8339,-1.85297 -1.8531,-1.85297 -1.0191,0 -1.853,0.83383 -1.853,1.85297 0,1.01914 0.8339,1.85297 1.853,1.85297 1.0192,0 1.8531,-0.83383 1.8531,-1.85297 z m -6.9908,-13.72806 c 0.6111,-3.19683 0.1463,-4.1921 -1.6369,-3.5077 -2.7374,1.05048 -3.4783,7.97094 -0.8532,7.97094 0.9002,0 2.0208,-2.00847 2.4901,-4.46324 z m -759.3281,139.00014 c -20.0735,-3.9652 -36.5119,-17.08596 -48.7987,-38.94992 -5.35771,-9.53388 -11.90446,-28.11448 -14.09305,-39.99803 -0.65691,-3.56696 -1.59671,-7.91761 -2.08834,-9.66812 -0.70228,-2.50014 3.20187,-5.16096 18.20469,-12.40722 19.5328,-9.43413 29.4608,-14.90945 31.1919,-17.20234 0.5365,-0.71057 1.9905,-0.66456 3.2312,0.10236 2.0478,1.26561 3.8335,7.75315 7.2129,26.20467 1.6556,9.03908 10.679,21.58983 17.808,24.76927 11.2436,5.01443 17.0164,5.0173 27.0576,0.0129 16.8733,-8.40827 26.7472,-28.8093 30.2327,-62.46552 3.3989,-32.81839 -3.3878,-56.97438 -18.8891,-67.23257 -6.276,-4.1534 -8.8452,-4.74924 -17.4138,-4.03867 -12.3387,1.02323 -20.9029,7.50574 -27.2069,20.59369 -2.9151,6.05223 -5.2232,8.67802 -7.1786,8.16665 -3.5179,-0.91995 -34.6771,-20.36408 -40.167,-25.06518 -3.9017,-3.3411 -3.9204,-3.6725 -1.3904,-24.57227 1.4105,-11.65202 3.7679,-29.94076 5.2387,-40.64163 1.4708,-10.70088 3.9225,-28.7631 5.4483,-40.13827 1.526,-11.37518 3.7484,-25.96728 4.939,-32.42688 1.9789,-10.73701 3.8268,-23.64176 9.3762,-65.48072 1.0814,-8.15306 2.521,-15.37698 3.199,-16.05317 0.678,-0.67621 38.7194,-1.776 84.5367,-2.444 45.817,-0.66799 84.0582,-1.68076 84.9802,-2.25063 2.3886,-1.47626 4.9441,3.36165 4.0998,7.76165 -0.3929,2.04673 -1.7227,8.93279 -2.9555,15.30235 -1.2328,6.36957 -3.0586,11.58105 -4.0572,11.58105 -0.9988,0 -1.4221,2.05933 -0.941,4.57632 0.481,2.51698 0.2897,4.21467 -0.4258,3.77263 -0.7151,-0.44207 -2.3009,5.21156 -3.5239,12.56357 -3.4074,20.48504 -3.7149,21.47356 -7.2724,23.37744 -1.8281,0.97832 -25.3739,2.20013 -52.3244,2.71518 -26.9505,0.515 -50.8975,0.98938 -53.2158,1.05415 -5.3855,0.15047 -7.4096,5.31411 -10.7946,27.53755 -1.4433,9.47565 -3.803,19.06473 -5.2438,21.30908 -7.0365,10.96016 -4.2437,34.91849 4.2166,36.17315 2.1959,0.32566 3.9926,-0.0961 3.9926,-0.93739 0,-0.84124 2.2931,-2.50621 5.0956,-3.69997 17.3435,-7.38683 20.1497,-7.99856 36.6932,-7.99856 15.1838,0 18.6486,0.65069 28.9579,5.43857 15.5393,7.21692 23.9371,16.3067 32.6368,35.32665 9.9138,21.67412 12.4536,35.08113 12.2857,64.85377 -0.2096,37.1898 -7.498,66.88501 -23.2302,94.6476 -3.9614,6.99088 -7.2026,12.96355 -7.2026,13.27257 0,0.55546 -18.8705,21.46973 -21.6986,24.04843 -7.584,6.91575 -16.0485,13.03272 -23.5641,17.02871 -4.9559,2.6351 -10.1143,5.70701 -11.4633,6.82648 -1.3488,1.11945 -6.433,2.4072 -11.298,2.86168 -4.8651,0.45449 -9.6441,1.62489 -10.6201,2.60091 -2.3621,2.36215 -19.6336,1.94657 -33.5781,-0.80796 z m -610.89147,-4.4015 c -2.94938,-3.35352 -3.96016,-21.64121 -6.06717,-109.7528 -0.49956,-20.89218 -1.35174,-43.99233 -1.89374,-51.33368 -0.66706,-9.03486 -0.23606,-14.54783 1.33358,-17.06145 1.98731,-3.18208 1.69546,-4.37748 -2.03918,-8.35278 -3.43817,-3.6599 -5.08657,-4.24945 -7.80857,-2.79272 -1.89761,1.01557 -3.4502,3.06791 -3.4502,4.56075 0,1.49284 -0.79086,2.71425 -1.75755,2.71425 -2.51652,0 -11.21321,-8.37748 -11.21321,-10.80183 0,-1.12119 -1.66767,-2.93103 -3.70595,-4.02188 -2.03825,-1.09085 -3.70592,-3.7259 -3.70592,-5.8557 0,-3.35334 0.78048,-3.71629 5.82258,-2.70785 3.20248,0.64048 6.88135,2.6125 8.17547,4.38228 2.15888,2.95259 2.54356,2.79937 4.66613,-1.85938 1.81126,-3.97516 1.83148,-6.13454 0.0945,-9.94902 -3.19933,-7.02178 -1.29614,-7.49018 7.01922,-1.72764 4.02277,2.78784 8.82288,4.77827 10.66674,4.42315 4.81142,-0.92657 5.20388,-6.3693 0.73527,-10.19542 -2.97383,-2.54621 -3.82562,-5.466 -3.82562,-13.11322 0,-11.20694 -0.30964,-10.98505 17.05801,-12.2222 6.83411,-0.48681 13.19831,-1.36264 14.14276,-1.94631 0.94445,-0.58366 3.82267,0.5951 6.39624,2.61946 5.68472,4.47165 5.89651,4.48144 10.55895,0.48945 5.1164,-4.38082 4.67539,-8.65971 -1.61856,-15.70379 -4.91093,-5.49636 -5.74921,-5.7988 -10.31139,-3.72016 -3.6761,1.67493 -4.67466,3.18008 -3.84454,5.79524 0.96634,3.04476 0.27926,3.46301 -4.97559,3.02831 -3.35311,-0.27738 -9.64059,-0.62308 -13.9719,-0.76821 -5.24091,-0.17568 -9.16235,-1.55125 -11.7237,-4.11255 -3.64442,-3.64447 -3.7969,-5.2915 -2.87099,-31.03715 0.53774,-14.95366 1.01895,-32.43771 1.06936,-38.85347 l 0.0907,-11.66499 6.27302,1.17684 c 3.70519,0.69508 6.77091,0.37161 7.48895,-0.79017 1.80497,-2.92035 -4.39487,-11.33653 -8.35113,-11.33653 -1.8852,0 -4.40969,-1.83506 -5.61003,-4.07793 -2.23802,-4.18179 -2.27619,-25.10362 -0.0741,-40.36175 l 1.19923,-8.30687 11.36776,-0.25922 c 6.25208,-0.14249 20.95648,-0.85835 32.67592,-1.59062 14.07457,-0.87943 21.71009,-0.68155 22.49148,0.58288 0.65076,1.05284 1.71528,10.01665 2.36586,19.91956 0.86626,13.1881 0.62149,17.65847 -0.9148,16.709 -3.98221,-2.46119 -6.86894,19.11592 -3.20545,23.96035 3.15134,4.1671 3.70092,12.21747 1.01728,14.90107 -1.14921,1.14934 -1.2187,3.98372 -0.18585,7.58534 0.90702,3.16267 1.63931,16.87468 1.62727,30.47109 -0.0185,21.20399 -0.50845,25.33922 -3.44151,29.06813 -6.21058,7.89545 -2.57525,33.40223 5.18515,36.38015 1.41437,0.54276 2.35605,-0.55382 2.35605,-2.74366 0,-2.00629 0.93797,-3.43933 2.08458,-3.18454 1.87205,0.41598 3.22231,-4.82935 3.57752,-13.89725 0.0703,-1.78348 1.32599,-3.24269 2.79132,-3.24269 1.58242,0 2.66436,-1.81915 2.66436,-4.48016 0,-2.4641 2.0846,-8.63049 4.63242,-13.70312 2.54782,-5.07259 4.63241,-10.22384 4.63241,-11.44722 0,-1.22337 1.50424,-4.43761 3.34275,-7.14275 1.83869,-2.70514 4.8531,-8.67069 6.69883,-13.25677 1.84556,-4.5861 6.59508,-15.13597 10.5543,-23.44418 3.95924,-8.30822 7.19859,-15.8206 7.19859,-16.6942 0,-0.8736 1.59949,-2.58728 3.55436,-3.80819 2.85597,-1.78358 3.53583,-4.31292 3.45894,-12.87085 -0.0575,-6.369 0.74859,-10.93248 2.00435,-11.35106 1.15495,-0.38505 2.10014,-1.94034 2.10014,-3.45622 0,-1.51589 2.44499,-7.49169 5.43327,-13.27959 2.98846,-5.78788 6.82428,-13.97166 8.524,-18.18619 3.71334,-9.20657 6.30101,-9.88956 37.58425,-9.91998 11.53222,-0.011 22.58416,-0.88552 24.55984,-1.94288 2.95404,-1.58096 3.93642,-1.16691 5.53003,2.33067 1.85661,4.07484 0.38642,9.51356 -5.39954,19.97442 -4.51994,8.17191 -5.81926,11.37664 -5.81926,14.35284 0,1.80695 -1.71269,4.35495 -3.80599,5.66224 -2.71943,1.6983 -3.45624,3.47877 -2.58092,6.23666 0.72317,2.2785 0.49781,3.41032 -0.55013,2.76267 -0.97632,-0.60341 -2.86679,2.21057 -4.20101,6.25334 -1.33424,4.04273 -3.16878,7.35044 -4.07681,7.35044 -0.90801,0 -2.93235,2.70997 -4.49855,6.02215 -5.49973,11.63076 -7.11936,14.36046 -8.52045,14.36046 -0.77747,0 -1.41357,2.0151 -1.41357,4.47801 0,2.46288 -0.62757,4.75593 -1.39456,5.09566 -2.03769,0.90247 -22.34111,42.57886 -22.86846,46.94174 -0.63483,5.25046 1.89354,24.12144 4.84086,36.13282 1.37543,5.60522 3.50885,15.61123 4.74093,22.23558 1.23209,6.62436 3.86902,15.71876 5.85986,20.20979 1.99084,4.49103 3.90184,11.99553 4.24667,16.67668 0.56618,7.68593 2.57018,17.21698 7.93693,37.74789 1.00654,3.85063 2.64573,8.01982 3.64264,9.26483 2.73355,3.41387 7.81885,22.40646 7.81885,29.20188 0,3.29186 0.90027,9.41728 2.00062,13.61204 3.12525,11.91422 6.73696,25.21787 9.91198,36.51066 1.60111,5.6948 2.91111,11.44853 2.91111,12.78606 0,1.33756 2.01085,6.68419 4.46852,11.88142 2.45768,5.19724 4.99696,12.57639 5.64285,16.39813 l 1.17436,6.94862 -12.06182,0 c -6.63401,0 -20.44135,0.95286 -30.68299,2.11743 -21.95181,2.4962 -24.34362,1.37404 -27.39249,-12.85111 -1.02803,-4.79735 -4.94019,-20.39614 -8.69337,-34.66397 -3.75318,-14.26782 -10.5317,-40.95051 -15.0635,-59.29487 -14.33787,-58.04007 -17.37024,-67.19453 -21.42713,-64.68723 -2.13016,1.31656 -13.47067,25.25633 -16.37909,34.57656 -1.19257,3.82173 -2.93751,6.94861 -3.87771,6.94861 -0.94,0 -1.70917,2.08459 -1.70917,4.63242 0,2.54782 -0.65187,4.6324 -1.44846,4.6324 -5.78236,0 -7.67331,34.40486 -5.14328,93.57474 l 1.34692,31.5004 -30.47589,0.42785 c -26.90894,0.3778 -30.80592,0.0525 -33.29648,-2.77944 z M 468.0891,421.70754 c 0,-1.06381 1.0423,-1.70208 2.31622,-1.41837 4.25606,0.9478 14.22224,-4.41071 15.46076,-8.31271 0.87812,-2.76682 0,-4.84906 -3.12632,-7.37709 -2.39218,-1.9372 -4.61685,-2.72059 -4.94334,-1.74088 -0.32668,0.97972 -4.30536,1.36297 -8.8416,0.85167 -13.73141,-1.54772 -17.42418,4.26566 -9.03932,14.2305 4.85588,5.77095 8.1736,7.29993 8.1736,3.76688 z m 774.0761,338.11361 c -1.9429,-1.97197 -1.7415,-13.32744 0.2585,-14.56347 0.9065,-0.56029 2.0765,-3.73636 2.6,-7.05798 1.3135,-8.33581 4.9632,-22.13266 6.7603,-25.55627 0.82,-1.56217 2.1102,-5.73132 2.8671,-9.26482 0.7568,-3.53352 2.0173,-7.25841 2.8011,-8.27753 0.7837,-1.01912 2.0496,-4.76805 2.8129,-8.33091 0.7632,-3.56289 2.4471,-8.98279 3.7417,-12.04428 1.2947,-3.06148 3.4415,-9.31857 4.7707,-13.90467 1.329,-4.58608 2.8822,-8.75525 3.4513,-9.2648 0.5694,-0.50958 2.1134,-5.09568 3.4314,-10.19133 2.299,-8.88906 6.5824,-19.70676 16.5084,-41.6917 2.5306,-5.60522 6.1876,-14.20775 8.1263,-19.11675 1.9387,-4.909 5.9181,-14.08118 8.8429,-20.38261 2.9251,-6.30144 7.1543,-15.62635 9.3986,-20.722 2.2442,-5.09565 6.0953,-13.21019 8.5574,-18.0323 2.4624,-4.82211 4.4769,-9.9641 4.4769,-11.42663 0,-1.46251 0.689,-2.93707 1.5309,-3.27679 0.8418,-0.33971 5.1066,-7.28833 9.4775,-15.44138 4.3706,-8.15303 9.8697,-18.3675 12.2198,-22.6988 2.35,-4.33131 3.8896,-7.87509 3.4209,-7.87509 -0.4686,0 0.7149,-1.68175 2.6299,-3.73722 1.915,-2.05545 4.5367,-6.01616 5.826,-8.80157 1.2896,-2.78543 3.5876,-7.67937 5.107,-10.87549 3.7192,-7.82347 0.8775,-13.06867 -7.9807,-14.7305 -3.65,-0.68472 -25.528,-0.56515 -48.6179,0.26568 -23.09,0.83086 -46.1509,1.56366 -51.2465,1.62846 l -9.2648,0.11783 -0.5784,-8.0536 c -0.3183,-4.42946 0.3269,-12.27587 1.4336,-17.43644 1.1068,-5.16058 2.4928,-16.96237 3.0799,-26.22626 0.5873,-9.26386 1.6262,-20.13967 2.3086,-24.16847 1.4551,-8.58889 -5.5172,-7.54047 62.316,-9.37035 76.2568,-2.05716 97.5957,-2.68733 117.1416,-3.4594 23.7671,-0.93878 24.4318,-0.40149 21.1033,17.06144 -1.2955,6.79702 -2.4958,14.18257 -2.6671,16.41233 -0.1711,2.22979 -2.9014,6.39896 -6.0669,9.26483 -8.354,7.56327 -10.4808,12.59997 -9.006,21.32892 0.6972,4.12633 0.5371,8.02462 -0.3556,8.66285 -1.7308,1.23752 -12.9295,21.8782 -24.2552,44.70512 -3.7922,7.64347 -7.4811,14.33111 -8.1973,14.86141 -0.7163,0.53033 -2.2168,3.03181 -3.3349,5.55889 -1.1181,2.5271 -4.4786,8.76387 -7.468,13.85952 -7.5002,12.78458 -9.9864,18.23455 -15.6383,34.27986 -2.6924,7.64347 -6.1111,16.25785 -7.5971,19.14306 -1.4862,2.88519 -2.7019,6.8459 -2.7019,8.80159 0,1.95567 -0.8339,3.55575 -1.8531,3.55575 -1.0191,0 -1.853,1.66767 -1.853,3.70594 0,2.03825 -0.9727,3.70592 -2.1618,3.70592 -1.1889,0 -1.6278,0.53392 -0.9752,1.1865 0.6525,0.65255 0.03,3.36252 -1.3855,6.02212 -1.4144,2.65961 -4.3924,10.25559 -6.6175,16.87993 -2.2252,6.62435 -4.7561,13.71193 -5.6245,15.75019 -0.8685,2.03827 -3.0019,9.12586 -4.7413,15.75021 -1.7391,6.62435 -3.8944,12.99829 -4.7895,14.16429 -0.8949,1.166 -2.129,6.35644 -2.7422,11.53429 -0.6134,5.17785 -1.7776,9.00479 -2.5873,8.5043 -2.6637,-1.64615 -4.0629,3.12202 -3.8336,13.06413 0.1547,6.71249 -0.5665,10.0926 -2.2954,10.75601 -1.69,0.64849 -2.5516,4.35518 -2.6136,11.24287 -0.054,5.92388 -1.2516,11.93075 -2.83,14.1842 -1.8134,2.58904 -2.4057,6.38584 -1.7539,11.2453 0.5414,4.0351 -0.016,13.35511 -1.2391,20.71111 -1.2226,7.356 -2.3783,16.62769 -2.5681,20.60376 l -0.345,7.22919 -38.9122,0.82101 c -21.4018,0.45157 -39.5376,0.18634 -40.3021,-0.58939 z m 447.0278,-13.76354 c 0,-1.01912 1.2508,-1.85296 2.7795,-1.85296 1.5287,0 2.7795,0.83384 2.7795,1.85296 0,1.01914 -1.2508,1.85298 -2.7795,1.85298 -1.5287,0 -2.7795,-0.83384 -2.7795,-1.85298 z M 368.84655,689.60111 c -2.25672,-1.7069 -2.68458,-2.74246 -1.14828,-2.77944 1.34654,-0.0324 3.69926,1.19182 5.22795,2.72053 3.57234,3.57231 0.62167,3.61493 -4.07967,0.0589 z M 1810.5623,664.52716 c 0.6298,-1.01914 1.9299,-1.85297 2.8887,-1.85297 0.9591,0 1.7436,0.83383 1.7436,1.85297 0,1.01913 -1.3001,1.85297 -2.8887,1.85297 -1.589,0 -2.3736,-0.83384 -1.7436,-1.85297 z m -16.8121,-6.80048 c 0.6546,-1.70593 0.12,-3.77189 -1.1916,-4.60404 -1.7498,-1.11021 -1.5214,-1.51699 0.8637,-1.53787 2.2312,-0.0195 3.2427,1.41672 3.2427,4.60404 0,2.54783 -0.9231,4.63241 -2.0513,4.63241 -1.1549,0 -1.5322,-1.35229 -0.8635,-3.09454 z m 11.6138,-0.0553 c -4.737,-1.22793 -2.7923,-5.18833 2.5476,-5.18833 2.7675,0 4.6892,1.22728 5.0773,3.24269 0.6203,3.22119 -1.0549,3.64869 -7.6249,1.94564 z M 1602.25,584.07767 c -0.081,-1.95331 0.3574,-3.04772 0.9732,-2.43201 0.6157,0.61571 0.6816,2.2139 0.1463,3.55153 -0.5916,1.47816 -1.0308,1.03909 -1.1197,-1.11952 z M 394.60999,570.87252 c -1.64024,-4.27447 -0.30389,-4.41237 5.84593,-0.60325 l 5.55888,3.4431 -5.15384,0.01 c -2.94288,0.006 -5.62449,-1.21689 -6.25097,-2.84962 z m 317.89852,-3.83327 c -2.46268,-2.96734 -3.69475,-50.43146 -1.34677,-51.88241 1.55182,-0.95896 16.39129,-2.49007 34.87214,-3.59803 33.25618,-1.99379 63.33594,-4.33253 70.93491,-5.51527 4.23677,-0.65944 5.48946,0.0785 7.035,4.1434 1.86704,4.91072 2.86585,48.18061 1.15173,49.89472 -0.97697,0.97698 -27.77537,3.20691 -75.41572,6.27543 -16.81565,1.08313 -31.55524,2.30213 -32.75464,2.70892 -1.1994,0.40681 -3.21389,-0.50524 -4.47665,-2.02676 z M 1923.902,561.37878 c -0.6796,-0.67942 -1.2356,-2.7148 -1.2356,-4.52305 0,-1.80825 -0.9552,-3.87824 -2.1229,-4.59998 -1.4944,-0.92347 -1.7584,0.14193 -0.8914,3.59659 1.6679,6.64524 0.3084,6.21214 -8.5334,-2.7183 -6.3758,-6.43998 -6.8579,-7.41409 -3.0972,-6.2586 2.4496,0.75267 5.3491,2.08045 6.4434,2.9506 1.148,0.91276 2.9118,0.66006 4.1692,-0.59737 2.8478,-2.84786 5.0847,-0.32198 6.5206,7.36327 1.1478,6.14348 0.9314,6.97092 -1.2527,4.78684 z m -349.6549,-21.07789 c -1.4947,-0.94523 -1.8834,-1.78998 -0.8644,-1.87719 1.0191,-0.0873 0.1853,-0.87524 -1.8529,-1.75113 -3.4694,-1.49079 -3.4262,-1.6008 0.6762,-1.72271 4.22,-0.12544 4.2722,-0.29844 1.4106,-4.66602 -3.4288,-5.23266 -2.1566,-6.56947 4.3985,-4.62187 2.5477,0.757 3.7985,1.5426 2.7795,1.7458 -1.0191,0.20316 0.2316,0.94584 2.7795,1.65037 7.7402,2.14041 7.1327,11.02021 -0.6583,9.62182 -0.8716,-0.15639 -2.5673,0.53095 -3.7682,1.52755 -1.3586,1.12753 -3.2097,1.16282 -4.9005,0.0934 z m -16.778,-2.39009 c -4.3693,-3.22019 -7.281,-9.6086 -6.835,-14.99638 0.3684,-4.45038 3.2925,-7.02449 3.2925,-2.89834 0,1.03024 1.7746,5.64841 3.9435,10.26259 4.273,9.09028 4.1724,11.00289 -0.401,7.63213 z m 334.1988,-0.50477 c 0.6159,-0.61572 2.2139,-0.68153 3.5515,-0.14619 1.4783,0.5915 1.0392,1.03059 -1.1194,1.11949 -1.9532,0.0804 -3.0478,-0.35749 -2.4321,-0.97322 z m -301.6639,-6.38201 c -0.5481,-0.8869 0.049,-3.28659 1.3266,-5.33264 1.9624,-3.14229 1.7256,-4.52043 -1.5238,-8.87283 -2.116,-2.834 -6.8256,-5.98844 -10.4661,-7.00984 -9.1124,-2.55669 -9.3035,-5.46112 -0.3991,-6.06906 5.4708,-0.37354 8.771,0.59696 12.6017,3.70592 5.5003,4.46415 8.9603,14.88578 6.8955,20.77145 -1.3022,3.71252 -6.7538,5.52677 -8.4348,2.807 z m 45.4341,-56.44862 c -1.694,-2.04107 -2.9743,-2.26398 -4.7135,-0.82058 -1.8615,1.54489 -2.1803,1.03936 -1.4465,-2.29335 0.7523,-3.41567 0.5425,-3.71632 -1.0439,-1.49564 -2.4743,3.46423 -2.6461,0.0964 -0.1889,-3.7059 0.9878,-1.5287 1.8089,-1.99469 1.8245,-1.03556 0.014,0.95914 1.2525,0.12526 2.7489,-1.85297 1.4963,-1.97827 2.7471,-2.93898 2.7794,-2.13494 0.033,0.80405 1.9059,-0.2587 4.163,-2.36165 2.2573,-2.10297 5.2439,-3.3862 6.637,-2.85163 1.393,0.53454 3.8748,0.97192 5.5148,0.97192 2.4532,0 2.3447,0.46612 -0.6119,2.62795 -1.9766,1.44538 -2.9899,3.23187 -2.2518,3.96999 0.7381,0.7381 2.639,0.26564 4.2242,-1.04993 2.4041,-1.99527 3.3237,-1.80859 5.5447,1.12566 3.3068,4.36866 3.5442,8.43308 0.4643,7.9468 -1.2741,-0.20112 -5.4163,1.01309 -9.2054,2.69824 -8.5261,3.792 -11.4649,3.84524 -14.4389,0.26159 z m -22.6798,-1.05204 c -4.9524,-2.88445 -4.2227,-7.80925 0.9263,-6.25355 5.5627,1.68056 7.6348,3.79285 6.122,6.24051 -1.5188,2.45734 -2.8476,2.45982 -7.0483,0.0129 z m 346.9677,-7.26343 c 0,-1.01913 0.8338,-1.85296 1.8529,-1.85296 1.019,0 1.8528,0.83383 1.8528,1.85296 0,1.01911 -0.8338,1.85294 -1.8528,1.85294 -1.0191,0 -1.8529,-0.83383 -1.8529,-1.85294 z m -299.2014,-20.7089 c -1.1769,-3.34703 -0.3732,-9.62773 1.4,-10.93964 0.7988,-0.59105 0.8913,-2.53709 0.2054,-4.32454 -0.9602,-2.50208 -1.5897,-2.69563 -2.7359,-0.84113 -1.0691,1.72995 -2.028,0.99046 -3.4021,-2.62407 -1.0526,-2.76808 -2.768,-5.03287 -3.8125,-5.03287 -1.0441,0 -1.8989,-2.50151 -1.8989,-5.55892 0,-6.67776 1.1166,-6.90745 6.273,-1.29056 5.7656,6.28041 9.139,13.48214 9.5027,20.28711 0.177,3.31016 0.6603,7.21972 1.0747,8.68791 0.9512,3.3722 -5.4392,4.95545 -6.6064,1.63671 z m 17.5506,-7.73971 c -5.6781,-5.20083 -8.2238,-9.01594 -13.0598,-19.5723 -2.0617,-4.50018 -5.178,-9.27888 -6.9253,-10.61934 -2.781,-2.13351 -2.8305,-2.66401 -0.3974,-4.25775 1.5287,-1.00133 2.5709,-2.26793 2.3161,-2.81467 -1.2206,-2.61954 -0.1955,-4.69999 2.3162,-4.69999 1.5287,0 2.7795,0.83383 2.7795,1.85296 0,1.01912 0.943,1.85296 2.0953,1.85296 1.3727,0 1.7205,-2.31076 1.0083,-6.69949 -1.4773,-9.10301 2.2267,-12.51637 13.9866,-12.88952 10.9011,-0.34591 14.8514,2.89834 17.806,14.62332 3.0495,12.10159 4.4513,30.55909 2.0657,27.20128 -1.4698,-2.06915 -1.6861,-0.87295 -0.8457,4.68081 0.9753,6.44761 0.4853,8.01962 -3.6107,11.58102 -6.0487,5.25922 -13.6331,5.1663 -19.5348,-0.23929 z m -29.5011,-61.88342 c -0.081,-1.27392 -1.3971,-2.31622 -2.9258,-2.31622 -1.5287,0 -2.5709,-0.96814 -2.3163,-2.15145 0.4224,-1.96144 -3.8521,-2.64458 -24.5517,-3.92367 -2.5477,-0.15752 -5.2578,-1.14799 -6.022,-2.20121 -0.925,-1.27436 -1.8933,-1.13672 -2.8951,0.41134 -1.0834,1.67433 -6.5361,2.15946 -19.4562,1.73099 -9.8728,-0.32744 -17.9508,-0.005 -17.9508,0.72034 0,0.72364 -2.0839,1.19544 -4.6311,1.04847 -2.5471,-0.14694 -4.6316,-0.87175 -4.6324,-1.61061 -8e-4,-0.73887 -2.3844,-0.86678 -5.2969,-0.28427 -4.1114,0.82226 -6.3907,-0.0359 -10.1913,-3.83647 -2.6927,-2.69261 -4.8658,-5.90002 -4.8292,-7.12762 0.036,-1.22759 5.8734,-5.06153 12.9708,-8.5199 7.0973,-3.45834 12.9043,-6.97596 12.9043,-7.81694 0,-0.84095 1.2508,-1.04907 2.7794,-0.46244 1.5287,0.58661 2.7794,0.23818 2.7794,-0.77434 0,-1.01249 2.2931,-2.29766 5.0956,-2.85595 2.8027,-0.55826 13.0172,-2.99398 22.6989,-5.4127 15.2976,-3.82166 19.9617,-4.2215 35.6106,-3.05281 20.7897,1.55264 31.5915,6.20568 34.6281,14.91648 1.0088,2.89368 3.1282,5.26125 4.7099,5.26125 3.4385,0 3.7069,-2.13386 0.6523,-5.18829 -1.4876,-1.48761 -1.5531,-2.22356 -0.1981,-2.22356 2.094,0 4.2748,4.15257 4.2748,8.1405 0,1.25316 -1.8615,4.2765 -4.1366,6.71847 -2.275,2.44202 -4.1513,5.71618 -4.1692,7.27596 -0.037,3.27704 -12.9463,10.84862 -18.8711,11.06907 -2.2083,0.082 -4.4353,1.19166 -4.9494,2.46558 -0.7478,1.85296 -0.9639,1.85296 -1.0809,0 z m 41.7977,-6.938 c 0.5843,-1.52282 1.8226,-2.29904 2.7515,-1.72491 1.943,1.20082 0.3834,4.49372 -2.1285,4.49372 -0.9269,0 -1.2072,-1.24596 -0.623,-2.76881 z M 401.88436,281.6969 c 0.61556,-0.61572 2.21375,-0.68155 3.55139,-0.14621 1.47829,0.59151 1.03915,1.03059 -1.11937,1.11951 -1.95341,0.0804 -3.04777,-0.35751 -2.43202,-0.97324 z"
     id="path3117"
     style="fill:#000000" />
</svg>
